P2
# CREATOR: ImgTools v0.1 - hfabioen UNIVALLE
95 127
255
55
56
56
57
57
59
57
54
148
99
53
60
59
58
72
114
227
163
75
51
61
61
62
63
67
69
69
62
60
62
61
61
61
61
59
61
60
60
61
61
59
61
61
60
60
61
60
61
58
59
58
59
58
58
57
56
57
57
56
56
57
57
56
56
56
56
56
56
54
54
56
55
55
54
55
55
55
55
54
54
54
53
53
52
52
52
52
50
48
49
49
50
50
50
50
56
56
59
58
58
59
56
65
155
84
55
60
59
63
52
128
217
81
64
60
60
57
57
59
62
62
62
58
59
62
60
60
60
60
60
60
60
60
60
59
60
61
62
60
61
61
60
61
59
60
59
59
58
58
58
58
57
58
57
57
57
58
57
56
57
57
56
56
55
54
54
55
55
54
55
55
54
54
54
54
54
52
52
52
52
52
51
50
49
49
50
51
50
50
48
57
57
58
58
60
58
53
82
152
69
59
60
61
59
60
209
168
34
58
62
59
59
58
57
59
60
60
60
60
60
61
62
59
60
60
59
61
60
61
59
59
61
60
61
61
60
59
60
61
59
58
58
58
58
58
58
56
57
56
56
57
57
56
56
56
56
56
55
55
55
54
55
56
55
55
55
54
53
53
54
52
52
52
51
51
52
50
50
50
50
51
50
51
49
47
56
58
58
58
59
58
54
91
141
60
60
60
59
55
103
238
108
47
61
60
59
57
58
59
59
59
58
61
60
59
59
60
59
60
58
59
60
60
59
59
60
61
61
61
60
61
61
59
59
60
58
57
57
58
58
58
57
58
57
57
56
56
56
55
56
55
56
55
55
56
53
55
54
54
53
53
53
53
52
53
51
52
51
51
51
52
51
51
49
51
50
52
49
50
47
56
55
56
57
58
58
53
104
136
55
58
61
59
55
163
225
72
58
60
60
58
58
58
59
59
58
58
60
58
57
59
59
58
58
60
60
59
58
60
59
59
60
60
60
61
61
60
61
59
60
58
58
57
58
58
57
57
56
58
57
56
56
55
54
55
55
56
55
55
56
54
54
54
51
52
53
52
53
52
52
52
52
51
50
52
52
52
51
51
51
51
50
51
49
49
55
55
56
56
58
56
51
115
126
50
58
58
56
75
217
170
54
59
60
60
59
59
57
58
59
58
59
59
58
60
59
58
58
58
59
59
59
58
59
58
59
59
59
60
61
60
60
61
60
60
59
59
58
57
57
57
56
56
57
56
56
56
56
55
55
55
56
54
54
55
54
54
53
51
52
52
52
52
52
52
52
52
51
51
52
52
51
50
51
50
51
50
48
50
48
55
55
58
58
56
56
52
116
111
50
59
57
51
119
238
117
51
61
59
59
59
57
57
57
57
58
60
57
57
59
57
58
58
58
57
58
58
58
59
59
59
60
59
61
61
59
59
59
60
59
59
59
58
57
58
58
57
56
56
56
55
55
55
55
55
55
55
54
54
55
54
54
53
53
52
52
52
52
52
52
52
51
51
51
51
52
52
51
50
49
50
49
49
49
47
56
56
57
57
56
55
56
119
100
50
57
56
56
169
223
79
52
57
59
57
58
58
58
59
56
57
59
57
58
60
58
58
58
57
57
58
59
59
58
58
60
60
59
60
61
59
59
59
58
58
59
60
58
57
57
57
58
56
56
56
55
53
54
55
54
56
55
53
54
53
53
54
54
52
52
52
51
52
52
52
50
51
52
51
49
50
51
50
50
51
51
51
50
49
47
57
58
57
56
55
54
61
123
94
53
58
53
76
219
166
53
57
58
58
57
57
56
56
57
58
57
56
57
56
57
57
58
59
58
57
57
55
55
55
56
60
58
60
58
59
58
59
57
58
58
58
56
58
59
57
59
57
57
58
57
56
56
55
52
53
54
55
55
54
54
54
54
53
53
53
53
52
52
52
52
52
51
50
49
50
49
49
49
49
49
50
48
48
48
47
55
57
56
54
57
53
63
124
97
53
56
53
126
234
107
52
57
57
57
58
58
57
57
57
58
56
58
56
59
57
58
58
56
53
61
57
78
71
71
63
54
61
60
59
59
58
59
58
59
58
57
56
57
58
59
57
58
57
57
56
55
56
56
55
54
53
53
54
54
54
54
54
53
52
52
52
52
52
52
52
51
49
50
50
50
49
50
48
49
47
47
48
47
46
45
55
56
57
56
57
53
66
125
92
52
55
62
182
205
72
54
57
56
56
57
57
57
57
57
57
57
57
56
57
55
56
58
75
149
121
86
129
98
108
71
50
53
59
61
60
59
59
59
57
57
57
57
57
56
58
57
58
57
57
56
56
56
55
54
53
53
53
54
54
54
54
55
54
53
53
53
53
52
51
52
51
50
50
49
50
49
50
49
50
49
48
48
47
45
44
57
58
58
56
58
53
67
127
91
51
53
86
223
151
54
56
57
56
56
56
57
56
57
57
57
57
58
59
50
63
109
93
117
130
62
64
67
85
102
104
99
91
90
71
64
67
59
57
58
59
58
56
57
57
56
57
58
57
57
57
57
57
55
53
54
55
54
54
54
54
54
54
53
53
53
52
52
52
51
52
50
50
50
50
50
49
49
50
50
50
49
48
46
45
44
58
58
59
59
60
55
72
129
86
52
50
129
231
93
52
57
57
57
57
57
57
56
57
57
58
58
57
51
64
117
113
107
84
49
53
91
115
143
154
169
147
123
80
83
97
83
75
64
54
59
60
56
58
58
58
57
57
57
57
57
57
57
56
54
54
55
54
54
54
54
55
55
53
54
54
52
51
50
50
50
50
50
51
51
50
49
50
50
50
50
49
48
47
46
45
60
58
60
60
58
54
75
131
87
51
56
181
196
62
52
55
55
55
56
57
56
56
57
56
57
58
55
55
117
103
126
133
61
54
74
79
99
92
93
78
79
90
113
122
117
95
82
66
56
57
57
57
60
58
58
58
57
58
57
57
56
56
56
55
55
54
54
54
54
54
54
54
54
55
54
53
53
52
52
52
50
50
50
50
50
50
49
49
50
49
47
47
47
45
45
62
62
60
57
58
53
77
132
86
50
82
225
139
52
57
55
53
55
56
56
55
55
55
56
56
57
52
96
142
111
118
72
34
104
97
79
42
45
89
100
85
111
84
70
104
113
91
89
59
51
55
57
58
58
60
59
58
57
58
57
55
56
56
55
54
54
55
54
54
54
54
54
53
54
53
53
54
54
53
53
52
51
50
49
50
50
49
49
50
48
47
47
46
45
45
49
53
57
56
60
55
83
134
78
51
125
235
83
55
57
55
54
55
56
54
55
54
54
56
56
49
92
169
133
75
38
35
84
85
96
88
58
115
161
160
176
131
106
86
106
95
88
67
55
47
64
63
57
59
59
59
58
57
58
58
58
57
56
55
54
55
55
54
54
53
55
55
55
54
53
53
53
51
50
50
52
52
50
49
50
50
50
49
49
49
48
47
47
46
47
38
39
40
37
36
34
76
129
73
50
183
191
63
64
63
61
60
57
56
55
54
54
54
56
52
60
135
140
80
61
53
55
52
55
87
117
114
138
139
148
149
123
134
127
90
110
102
53
43
52
71
55
60
60
57
58
56
57
57
56
58
59
55
56
57
56
54
55
55
54
55
55
56
55
55
55
53
50
50
52
50
50
50
50
50
50
50
49
49
47
46
46
46
45
45
43
41
42
38
31
18
67
121
60
70
224
131
50
58
60
66
64
64
62
60
60
59
56
53
62
105
118
78
53
56
53
54
87
79
98
132
116
106
129
111
89
58
107
149
125
111
84
78
55
49
55
51
59
63
61
60
59
57
57
57
58
58
57
58
58
56
55
56
55
54
54
53
53
54
55
55
54
53
51
50
50
49
49
48
48
49
49
49
48
48
47
46
45
45
44
42
42
38
40
43
29
69
115
49
133
230
78
36
41
44
47
52
54
60
62
63
65
63
60
71
106
102
56
53
59
65
99
101
98
104
85
79
121
152
119
102
137
116
99
105
118
96
86
64
47
44
43
51
59
60
61
62
59
58
58
57
56
56
56
56
56
55
55
56
55
55
54
52
53
53
53
53
53
53
51
51
51
49
48
48
49
49
49
49
49
49
48
46
45
43
40
38
32
39
41
36
82
109
66
196
188
50
45
48
43
41
39
43
45
46
49
53
60
57
84
119
79
59
57
65
72
110
92
107
75
80
86
128
159
116
124
154
118
120
126
117
110
103
79
52
48
43
40
49
61
62
61
62
61
60
58
56
56
54
53
54
55
55
55
56
56
56
56
55
53
52
52
52
52
51
51
51
52
51
52
51
50
49
48
48
48
47
47
46
45
42
36
37
48
44
37
89
105
103
233
128
44
53
55
54
54
51
49
46
44
41
45
45
43
101
121
91
55
74
69
78
116
109
90
139
86
77
140
178
136
105
122
121
119
118
131
112
96
75
63
59
43
35
37
51
63
61
62
62
60
60
59
56
55
53
53
55
54
54
55
55
55
58
57
55
54
53
52
51
51
50
52
51
51
52
52
50
51
49
49
48
46
46
46
45
43
36
46
53
52
42
95
100
149
223
77
38
49
54
56
57
60
58
57
56
55
52
47
61
110
102
70
65
84
53
106
148
120
139
118
102
120
152
181
144
100
115
124
123
137
120
103
78
67
56
43
53
68
47
41
61
62
58
59
59
59
59
57
58
57
55
54
54
54
54
53
54
54
55
55
54
53
54
53
53
51
50
49
49
50
50
51
52
52
51
50
48
47
45
43
40
39
48
53
53
54
106
96
196
177
48
38
41
46
54
55
58
62
63
61
60
57
68
91
101
83
58
68
58
69
146
134
95
86
97
98
81
102
152
116
148
102
132
127
118
131
108
97
64
51
112
218
227
165
66
43
58
59
58
56
57
57
57
57
58
56
56
56
55
55
53
53
53
53
53
52
53
54
54
54
54
53
53
52
49
49
48
47
50
50
50
49
49
46
44
37
41
55
59
58
60
108
116
228
128
44
40
40
41
44
49
53
58
61
61
64
60
64
103
104
83
75
70
63
97
127
109
74
119
74
62
107
84
84
132
152
132
113
120
116
137
142
92
81
111
227
216
150
179
154
50
53
59
59
56
55
54
55
54
56
55
56
56
56
56
55
54
54
52
52
53
53
52
52
52
52
53
53
53
51
50
49
49
48
48
47
46
46
46
44
37
48
58
62
61
66
108
158
222
77
37
42
43
39
40
44
48
51
57
61
62
59
83
134
70
88
80
71
76
82
104
80
94
71
44
79
90
45
86
98
88
91
90
121
139
157
122
117
135
135
168
117
193
207
195
104
38
66
63
59
58
56
54
53
52
53
53
54
53
55
56
55
56
54
53
54
52
51
50
49
50
51
51
51
51
49
51
51
48
48
46
44
44
44
43
42
53
60
59
57
65
104
201
173
52
44
44
43
45
42
41
42
48
50
55
61
58
92
138
75
66
60
66
65
82
60
87
81
49
62
65
41
34
60
89
76
87
98
117
148
148
115
121
118
111
128
146
234
238
229
179
54
62
67
65
62
61
60
56
54
52
51
51
52
54
55
54
55
56
55
54
53
53
51
50
50
49
48
49
48
49
51
51
51
51
49
48
47
44
43
51
54
64
89
113
96
110
226
115
46
54
52
48
44
42
40
39
42
46
51
55
48
97
177
100
58
94
74
68
56
59
66
60
58
56
54
51
56
99
81
103
85
81
124
149
125
120
116
105
115
170
176
124
138
187
215
115
44
56
51
55
58
60
60
61
58
57
56
54
51
51
52
52
53
53
53
54
54
54
52
52
52
50
50
51
51
50
49
48
48
48
48
49
49
46
41
62
99
133
158
153
162
211
73
49
63
66
60
49
40
38
41
38
41
44
47
55
117
110
108
107
106
58
48
48
53
58
51
53
47
108
106
111
86
123
128
81
103
131
115
128
141
112
96
119
183
188
105
81
132
206
179
51
39
38
39
43
49
53
55
59
61
61
61
59
57
54
52
52
54
54
54
53
54
55
53
53
53
51
51
49
48
47
46
45
43
44
45
45
44
20
72
110
127
150
107
187
165
54
53
67
71
68
64
53
41
40
41
40
40
43
53
90
75
75
105
97
43
41
43
77
75
42
75
129
137
100
102
150
178
142
100
102
102
98
116
127
124
115
132
183
219
172
90
146
235
204
67
41
34
34
36
37
41
42
45
49
51
55
59
60
60
60
58
55
55
55
53
52
52
52
52
53
53
50
50
50
49
47
46
43
42
43
44
43
22
49
74
69
45
36
167
96
47
42
53
63
68
67
67
57
41
38
41
38
35
58
102
75
69
83
67
41
42
51
64
43
54
99
88
56
81
134
178
193
181
143
124
93
95
113
124
117
106
122
193
248
245
162
183
209
162
73
51
42
37
39
43
44
44
42
41
41
42
45
49
53
55
58
59
58
57
56
55
54
54
55
55
52
51
51
50
49
49
49
48
45
45
47
45
20
31
41
27
11
59
97
58
33
18
22
29
35
41
50
52
48
38
38
40
39
45
69
91
74
74
64
42
42
49
46
49
42
39
46
81
89
124
185
190
172
197
170
132
122
132
154
121
108
117
189
248
250
220
184
171
202
101
58
50
42
44
48
50
50
51
50
48
45
43
42
43
43
45
46
47
51
55
57
58
55
57
55
50
52
53
53
53
51
52
51
51
51
49
49
21
25
32
28
20
61
82
65
15
17
18
16
15
17
18
23
24
26
24
36
42
40
59
80
74
54
48
49
56
37
35
40
35
41
62
69
86
119
157
158
204
222
206
200
207
195
195
214
196
149
174
246
253
252
236
236
221
159
71
55
46
45
44
46
52
53
54
55
55
53
51
50
48
47
45
45
43
42
43
44
46
46
48
50
50
53
54
54
55
55
54
53
52
52
50
24
24
29
29
23
33
87
79
15
19
19
17
18
17
16
15
16
16
18
22
36
42
61
97
79
47
44
63
47
29
32
47
47
61
67
74
84
87
123
176
221
232
232
243
249
248
247
247
247
221
199
242
253
253
252
235
216
206
114
80
59
44
44
43
43
46
52
56
58
57
56
54
54
54
53
47
39
39
47
47
42
40
45
51
39
37
42
43
45
45
48
48
51
53
53
23
22
37
31
17
53
98
50
15
18
19
21
17
18
18
17
16
17
17
16
20
32
57
101
81
45
47
54
41
30
40
57
66
67
69
75
71
89
141
190
209
223
239
246
248
241
241
245
247
244
239
247
248
249
248
235
233
222
173
116
75
50
62
62
57
46
45
52
55
60
58
61
61
55
40
73
129
103
49
46
53
52
46
41
29
33
35
35
35
33
32
33
35
36
37
25
22
55
45
163
171
95
28
18
18
18
19
17
18
18
16
17
16
17
17
18
18
38
79
86
56
60
57
45
49
64
73
69
68
70
74
71
88
133
176
193
218
242
249
244
218
214
231
243
246
247
247
241
237
237
239
238
229
207
164
134
86
51
67
81
84
55
44
51
55
60
61
59
72
131
208
238
208
135
67
41
47
45
40
36
40
43
40
40
38
35
34
32
31
30
19
34
70
148
236
163
80
17
19
21
18
18
19
19
18
16
18
17
17
17
17
17
19
52
75
76
98
98
68
75
78
77
75
72
72
74
70
74
117
165
196
228
248
242
219
194
205
233
244
247
245
239
226
219
218
229
234
227
217
200
200
175
80
36
64
95
88
44
43
50
53
52
68
185
238
204
186
204
230
182
77
50
51
42
36
43
43
42
42
41
42
43
41
41
38
13
60
125
211
215
134
53
14
20
18
18
18
19
19
18
17
17
18
17
19
18
18
20
25
40
67
89
136
97
80
79
79
78
76
76
76
70
78
130
180
206
230
217
179
131
146
219
247
249
247
243
230
215
206
211
219
229
229
224
215
209
208
189
97
51
73
84
76
50
46
45
35
106
212
188
180
185
188
219
231
172
107
45
42
40
53
51
47
45
44
43
42
43
42
40
25
96
146
226
188
108
35
24
26
26
19
18
19
20
17
20
17
18
18
19
16
20
17
15
19
20
47
137
147
92
83
82
82
81
78
72
68
90
137
172
171
164
129
97
76
154
242
249
250
246
239
225
212
203
204
207
218
224
227
221
215
219
218
200
128
50
80
106
75
45
69
169
209
139
151
193
185
167
217
209
175
129
47
40
45
58
59
56
56
53
51
47
45
43
42
58
104
161
221
153
82
51
57
59
54
24
17
21
19
20
19
18
16
18
18
16
17
19
19
16
16
15
80
147
123
94
86
83
79
77
76
74
90
104
107
85
81
81
79
112
193
237
247
245
241
233
224
213
206
201
201
208
221
225
220
218
227
230
229
217
125
75
115
91
61
169
232
134
101
183
180
159
177
154
101
118
83
49
39
47
58
58
58
55
57
57
54
54
53
50
82
94
154
167
95
110
118
30
34
37
49
25
17
19
17
19
19
19
19
18
17
19
19
18
18
19
15
28
108
147
110
84
80
80
78
77
80
86
83
63
56
84
87
77
129
178
202
218
223
226
223
224
220
212
203
200
202
211
217
215
216
228
236
242
241
192
102
114
101
140
201
133
97
175
174
158
171
160
52
45
67
75
44
37
49
56
54
54
56
56
54
53
54
54
53
89
105
170
133
67
168
120
25
28
37
64
40
17
19
19
18
18
18
19
19
19
17
18
19
19
18
20
13
47
133
153
98
77
79
79
84
86
90
69
47
72
82
66
69
110
125
163
181
190
201
210
221
226
219
207
197
196
201
205
205
211
224
235
243
245
221
127
127
200
210
130
95
181
174
155
160
192
204
50
13
49
64
45
38
46
55
54
55
54
54
53
54
53
54
54
86
98
149
107
65
86
40
29
32
30
54
49
19
18
18
20
19
19
19
19
18
17
18
20
22
18
18
19
13
84
178
139
92
85
88
91
91
81
56
58
57
54
56
79
82
92
113
122
156
184
203
215
223
220
209
193
188
192
193
195
203
215
227
238
246
229
137
174
205
147
138
181
167
160
172
189
209
187
136
102
42
57
49
39
47
57
57
59
58
56
55
53
54
53
52
32
105
127
56
47
32
27
31
33
31
50
50
19
20
21
20
19
19
20
20
19
18
19
20
19
20
19
21
12
45
142
153
108
85
85
88
86
73
61
58
50
55
68
72
78
87
85
95
144
185
196
201
208
210
206
195
181
181
178
177
189
207
219
228
243
220
176
193
127
118
190
168
161
136
169
203
166
51
109
130
46
47
45
40
45
54
55
53
54
53
53
51
53
51
51
66
199
115
27
35
30
41
33
39
38
48
39
19
20
21
20
21
19
19
19
20
20
19
19
19
19
20
19
20
21
66
93
74
68
63
57
61
73
65
54
55
63
72
78
85
87
85
94
131
168
185
189
193
195
196
191
170
166
145
140
172
199
207
219
224
209
202
128
124
181
153
164
134
101
183
182
103
32
26
64
65
39
42
37
41
50
48
48
50
49
49
49
51
50
49
135
205
66
38
61
43
46
46
40
39
41
32
23
19
20
17
20
19
19
19
19
20
19
19
20
19
21
20
23
18
21
23
26
76
103
56
67
78
77
62
57
58
65
72
81
91
92
86
90
123
171
189
184
172
173
180
161
146
100
98
151
191
202
212
216
197
129
145
190
160
163
144
133
172
178
112
62
54
48
87
63
37
31
34
41
51
52
53
53
52
50
50
49
49
49
199
149
68
63
78
52
45
45
44
47
49
46
39
36
32
28
23
19
19
17
18
19
20
18
19
20
20
19
19
20
19
17
13
74
144
108
74
101
120
63
54
52
44
51
62
87
95
90
84
95
136
168
174
164
145
144
150
124
76
81
141
183
199
220
196
130
160
189
166
167
150
149
186
205
188
54
66
69
44
47
78
74
54
43
30
32
41
51
56
56
57
57
53
52
49
207
104
96
69
107
68
34
33
38
46
48
49
49
51
50
48
41
37
31
28
25
21
19
17
18
18
18
20
22
19
20
21
17
26
102
132
91
95
125
81
53
55
125
198
99
65
88
92
90
83
86
119
166
174
135
111
130
108
73
81
131
174
207
190
128
171
187
171
174
154
164
193
137
129
88
29
47
99
43
74
65
88
129
109
74
40
18
17
27
31
38
45
49
52
54
181
89
85
64
91
62
37
26
27
28
31
35
40
44
46
49
46
45
47
48
47
42
39
34
25
20
22
19
18
19
19
20
21
18
31
84
124
108
114
108
59
159
250
220
89
62
76
82
81
81
80
97
141
158
131
94
93
80
72
78
120
182
181
139
180
174
167
175
160
174
186
192
100
62
49
76
67
63
141
234
74
107
138
131
123
107
76
36
10
10
12
14
19
25
28
128
66
65
59
69
42
34
29
27
26
26
26
27
28
29
32
33
39
41
45
48
51
55
47
26
43
44
32
22
20
22
24
21
21
15
26
84
120
133
132
107
213
164
74
52
63
70
70
75
73
81
90
91
99
118
96
76
80
72
81
153
186
160
187
172
167
169
160
195
184
183
188
53
38
80
68
58
98
123
102
60
129
133
130
131
126
118
96
51
13
8
11
11
9
9
77
42
86
105
114
41
31
30
28
27
26
24
23
24
23
23
25
27
27
30
34
37
42
33
35
50
51
49
41
31
36
40
36
34
29
22
25
72
128
133
136
127
70
70
71
67
69
74
65
57
72
80
74
77
116
99
84
77
68
128
204
197
185
179
185
189
179
198
196
134
92
52
55
55
59
30
32
81
97
38
73
133
129
130
125
121
118
110
93
58
17
8
11
10
9
56
46
100
115
113
37
27
29
27
26
26
25
23
24
23
22
23
21
21
22
21
23
24
20
26
33
37
43
43
39
39
41
47
50
50
46
37
38
61
95
102
110
119
85
83
82
82
71
54
65
73
78
74
75
100
104
76
54
96
216
222
200
203
214
208
202
199
194
222
106
34
69
95
100
90
73
54
33
20
18
122
142
125
122
122
124
121
115
110
95
64
16
6
10
10
45
52
106
115
104
34
27
27
28
26
27
26
24
25
25
24
21
23
23
21
20
20
19
20
20
20
20
23
27
31
33
32
34
37
45
51
56
53
46
52
70
130
129
92
86
88
73
64
70
84
82
79
74
75
100
87
126
161
224
246
205
220
228
212
190
199
167
128
107
39
40
84
107
114
90
68
72
30
16
41
135
142
129
119
119
127
123
118
116
106
100
56
12
9
10
32
66
113
122
101
36
28
29
28
27
27
26
24
24
24
23
23
22
23
22
21
20
19
21
20
21
20
20
20
19
23
24
24
26
30
34
38
48
48
43
75
106
85
93
124
84
79
76
89
93
86
79
74
84
90
131
248
254
251
233
228
229
199
169
198
215
155
44
56
91
102
91
84
98
64
26
29
26
19
39
113
136
131
117
108
120
121
121
120
113
102
93
43
6
10
31
78
111
123
99
36
28
30
28
28
26
27
25
23
24
24
25
21
22
23
21
21
20
22
19
21
20
18
19
21
21
20
21
23
23
24
26
28
27
60
86
83
49
67
93
90
84
93
95
92
90
83
89
97
78
218
254
253
244
233
231
179
175
202
171
177
87
29
81
141
132
123
118
122
70
25
28
24
16
43
111
129
124
113
110
112
126
122
118
121
107
103
86
30
4
31
90
108
120
86
31
29
29
28
29
27
27
25
25
25
24
23
22
22
22
22
20
21
21
21
20
19
19
20
22
21
19
21
21
21
24
21
15
61
68
68
74
42
29
42
51
61
111
114
93
96
103
103
52
158
254
254
253
240
223
174
182
211
189
76
59
54
80
90
114
130
127
122
121
64
29
26
22
17
53
121
127
117
109
120
118
122
123
113
121
115
106
109
72
14
42
91
105
118
78
30
30
30
29
29
28
26
27
25
25
24
22
23
22
22
23
21
20
21
22
21
22
21
20
20
19
21
22
20
23
19
17
81
93
37
41
45
49
44
35
28
36
71
81
89
93
86
41
99
251
252
254
252
246
222
210
205
209
160
36
56
127
139
125
100
101
105
120
116
61
28
22
20
16
81
133
122
107
107
126
114
114
121
113
116
121
105
106
98
53
50
94
106
119
71
28
30
30
30
29
28
27
26
24
25
25
23
22
22
23
21
20
21
21
21
20
21
21
20
20
22
22
22
21
20
21
88
106
45
29
28
45
50
47
43
34
34
29
40
47
47
36
49
222
251
248
254
252
246
236
192
110
105
59
61
75
118
135
133
126
118
112
124
112
70
27
21
19
24
108
135
112
98
107
118
105
96
114
120
116
123
111
106
105
88
56
98
109
118
64
30
30
31
29
29
27
27
25
23
24
25
24
22
22
23
20
20
20
21
22
21
20
20
21
21
20
22
22
20
21
75
77
66
32
29
29
49
40
59
58
40
37
35
35
40
42
33
171
251
246
249
254
252
193
166
100
65
53
90
130
117
98
104
119
129
128
122
119
117
81
23
22
16
42
127
122
98
93
119
125
109
103
107
122
117
121
122
115
109
102
65
99
105
114
56
30
30
31
29
28
27
27
25
24
25
25
23
22
22
23
22
21
21
21
21
21
21
21
21
23
22
22
22
19
66
60
62
55
26
29
35
50
60
61
41
38
43
39
39
45
31
108
251
248
243
250
213
142
95
115
130
126
110
131
130
127
121
106
102
129
128
122
120
130
76
20
22
16
61
132
112
91
106
137
132
124
125
106
122
122
120
124
126
111
101
70
97
106
111
52
30
31
31
30
28
27
27
27
24
26
26
24
23
22
23
23
21
21
20
22
20
21
20
22
22
21
18
17
65
63
48
74
33
27
29
39
52
43
32
30
47
49
44
44
37
60
230
251
243
249
200
55
58
95
133
140
134
142
129
126
126
131
121
118
127
126
121
123
130
66
19
20
15
81
129
104
99
130
147
136
140
136
116
103
116
131
140
133
117
97
73
103
115
112
51
29
32
30
29
29
27
27
27
24
26
26
23
23
22
23
23
21
20
20
22
21
20
21
21
21
14
26
96
76
40
54
58
25
29
32
39
31
29
31
38
55
52
65
43
33
182
251
247
247
236
82
55
72
71
116
137
135
138
126
122
124
126
119
125
127
122
117
131
121
57
18
19
23
100
125
105
123
130
130
137
142
132
122
109
116
106
110
136
121
108
78
109
118
111
48
28
32
29
28
29
27
26
27
25
25
25
23
23
22
23
22
21
21
22
20
21
22
22
24
14
46
107
82
38
37
48
36
28
30
34
35
31
33
31
52
51
56
87
36
124
252
245
244
247
128
42
82
53
37
66
109
139
149
126
121
128
123
124
129
126
119
120
130
114
51
18
17
37
114
119
110
130
121
121
138
148
138
130
119
82
66
117
146
135
120
80
109
112
99
43
30
32
30
29
28
27
27
27
25
24
24
25
24
23
23
23
21
21
22
22
23
22
22
16
48
106
62
30
34
31
36
29
30
31
38
34
32
36
35
63
44
58
88
94
237
250
244
250
192
47
78
66
40
39
34
53
88
114
132
135
126
122
127
129
121
123
130
129
107
44
19
15
51
121
110
123
137
127
136
142
144
135
137
123
116
133
134
141
143
135
81
109
109
90
37
31
33
30
29
29
28
27
28
25
24
26
25
23
22
23
24
22
21
22
21
22
23
22
22
86
74
35
26
28
30
31
31
29
33
38
36
38
39
44
65
41
57
88
209
252
243
246
237
77
72
82
46
43
41
37
26
58
90
91
111
127
122
130
129
121
133
136
127
97
37
18
17
69
121
116
140
140
142
140
142
135
132
149
160
152
146
139
136
145
144
85
111
107
82
35
31
30
31
27
27
27
27
27
24
25
25
25
24
22
23
24
22
22
22
21
21
23
17
45
78
59
43
25
29
34
31
31
30
32
38
40
43
37
53
66
42
42
160
251
244
243
249
134
72
107
56
39
43
38
32
84
140
139
92
101
124
122
127
122
131
136
131
110
92
33
16
22
82
123
136
137
140
145
136
130
137
160
164
162
155
156
147
143
140
143
91
111
107
78
33
33
30
30
28
29
27
27
25
25
25
24
24
22
22
23
24
21
21
23
23
23
22
19
67
62
58
46
26
31
33
31
29
31
34
38
43
48
38
66
61
33
86
247
247
245
249
194
65
132
75
42
44
39
35
103
147
141
143
139
126
122
125
129
134
138
133
120
104
80
29
16
26
84
131
136
140
140
143
135
152
158
149
164
164
157
157
152
143
140
141
101
111
107
71
32
32
30
30
29
27
26
27
25
24
25
25
24
23
22
24
24
21
22
22
24
24
20
30
66
37
55
50
29
35
34
31
29
32
35
37
49
47
43
81
54
46
211
252
244
246
242
88
126
109
48
45
42
43
120
149
135
142
146
138
119
122
130
135
141
134
124
105
95
70
26
17
28
91
125
124
126
141
157
156
114
47
58
123
160
160
157
149
139
134
135
111
110
103
63
32
31
30
30
30
28
26
27
26
24
25
26
23
23
23
24
23
22
22
22
22
22
20
36
54
28
44
58
37
34
31
32
30
32
33
39
53
44
52
89
35
158
254
244
246
250
139
98
166
85
46
45
45
116
147
137
140
145
149
130
120
126
134
142
138
123
109
100
93
66
23
17
34
94
126
113
127
140
120
75
21
8
22
94
153
163
155
142
133
133
140
116
106
98
57
32
29
30
29
29
27
27
27
25
25
26
25
23
23
22
24
24
22
22
22
24
23
21
45
64
32
34
60
52
34
31
31
31
33
35
42
55
50
83
60
102
249
248
244
248
206
79
175
197
120
54
89
113
138
139
138
140
143
138
123
123
128
139
141
124
111
104
94
92
60
21
18
37
97
113
105
120
81
43
17
16
19
25
87
137
161
157
141
139
145
137
120
106
97
55
31
30
30
28
29
27
27
27
24
24
26
24
22
23
23
24
23
22
22
22
24
25
19
53
74
29
28
64
59
32
32
30
32
33
36
41
63
84
90
65
223
252
244
247
244
99
126
220
244
138
95
135
135
130
137
136
144
141
135
122
128
135
142
127
111
106
98
90
85
50
16
22
46
93
87
105
76
31
16
16
17
18
22
74
126
158
161
151
156
151
142
122
104
96
52
30
31
30
29
28
27
27
26
24
24
26
25
23
23
23
23
22
22
23
23
24
23
18
60
72
32
24
56
58
33
32
31
34
34
40
47
89
100
65
182
254
247
245
250
160
79
196
251
253
237
148
123
131
137
137
137
142
149
134
120
131
140
134
114
105
97
87
86
79
43
16
22
46
72
85
87
36
19
19
17
16
14
37
62
101
145
166
164
159
158
155
125
100
91
47
29
31
30
29
27
26
26
25
24
27
29
28
25
24
22
23
22
21
22
23
28
28
26
68
71
35
28
45
56
37
31
32
33
36
43
56
102
115
152
252
249
245
250
220
80
126
204
251
253
254
241
152
124
135
135
138
142
140
120
120
133
133
113
100
97
79
70
72
75
42
16
23
35
50
79
45
21
17
17
17
15
18
34
30
73
125
161
165
162
159
157
129
100
85
43
29
31
28
28
27
27
26
27
30
29
28
28
28
27
23
22
22
23
24
32
39
38
38
71
69
35
28
35
55
45
34
34
36
40
46
61
160
243
253
251
250
247
250
123
83
124
201
244
254
254
254
251
191
124
136
140
136
128
117
124
131
120
102
92
83
70
68
64
67
32
16
21
23
35
56
23
17
16
16
15
17
16
18
23
46
91
150
165
162
160
156
123
99
83
44
27
30
29
28
27
29
31
31
27
23
23
25
24
27
27
27
23
23
22
30
38
39
36
89
76
32
29
30
55
53
36
34
37
48
41
114
249
254
253
252
249
252
170
82
86
158
232
247
254
254
253
254
252
172
130
138
136
123
119
130
123
108
97
81
73
68
69
78
64
29
16
21
21
25
30
17
17
17
15
15
16
16
20
21
24
57
125
155
158
153
153
117
97
82
42
27
31
29
27
31
33
28
24
25
25
23
23
23
24
26
29
28
24
22
29
37
35
52
136
65
34
30
26
50
55
35
36
38
40
50
213
254
254
254
254
254
214
81
69
85
174
252
252
254
254
253
254
254
242
147
134
140
121
120
119
107
99
94
74
69
72
79
80
58
25
16
19
21
22
21
16
17
16
14
14
14
14
19
20
20
32
91
142
149
150
148
111
97
80
39
26
29
32
33
29
26
24
25
24
24
24
23
23
22
22
26
27
30
29
26
34
33
103
113
52
33
32
27
41
56
39
36
29
65
190
253
254
254
253
254
254
239
208
185
133
156
167
149
214
253
254
254
254
254
222
138
131
117
112
105
91
93
84
71
76
82
68
66
56
24
17
17
19
19
21
17
16
15
14
14
14
15
18
20
20
18
57
121
148
150
144
103
93
77
38
31
35
32
27
26
26
25
26
26
25
24
24
22
24
24
24
24
27
29
30
34
44
111
82
48
33
32
29
35
55
42
31
53
219
254
253
232
217
235
246
252
254
253
254
237
127
74
54
106
236
254
254
254
254
254
203
123
109
105
93
82
85
82
78
85
78
63
63
51
20
14
18
16
16
20
18
16
15
14
13
13
15
17
17
19
18
29
98
139
137
138
96
93
72
38
30
27
26
26
25
24
25
27
25
22
22
24
25
24
23
24
22
23
26
28
28
56
118
73
49
33
32
31
33
50
46
25
85
243
254
254
184
132
154
182
211
236
249
254
251
148
68
59
62
185
252
254
254
254
254
253
183
97
96
106
103
74
76
75
76
66
60
53
43
20
16
17
14
15
19
16
15
16
13
13
12
14
17
16
18
17
13
88
128
125
124
93
92
65
30
27
26
28
26
26
25
25
25
23
23
23
23
22
22
24
24
23
23
26
25
22
86
114
76
54
34
33
34
33
46
54
28
58
225
243
237
162
83
84
90
106
130
161
206
205
119
71
64
50
137
248
254
254
254
254
254
251
181
106
106
128
118
99
80
64
64
44
36
36
20
17
15
15
15
17
16
16
15
12
12
12
15
15
17
8
8
76
111
107
117
117
91
88
61
28
30
27
27
27
26
26
25
25
25
24
23
23
23
22
23
24
24
24
27
27
27
95
99
68
57
43
30
30
34
38
43
49
187
222
196
219
125
77
114
157
153
140
126
127
156
101
73
64
50
92
209
249
253
253
254
253
254
254
143
66
67
114
148
130
88
60
20
31
34
17
17
17
15
15
16
16
16
14
13
10
7
5
5
18
60
120
127
86
97
109
115
89
83
58
26
27
28
27
26
26
26
26
26
25
23
23
24
23
23
23
23
25
24
27
29
32
69
73
54
54
57
54
53
28
50
128
213
253
220
213
243
219
132
140
203
232
244
235
223
234
124
60
59
54
57
106
158
208
248
253
253
252
182
97
95
65
65
89
132
152
124
80
52
25
16
13
9
9
13
16
15
15
14
10
15
47
75
102
133
163
130
78
85
106
117
124
88
85
61
26
28
27
27
26
25
25
25
24
23
24
24
24
24
23
24
24
25
28
28
23
37
126
187
197
130
80
112
158
162
219
242
250
240
238
197
219
218
173
139
108
132
190
246
252
249
132
55
58
54
50
49
52
98
190
232
233
192
62
60
73
95
80
49
77
138
162
167
125
57
19
39
71
55
12
5
15
15
13
10
71
128
110
92
79
54
37
40
62
99
132
140
86
94
57
25
27
26
26
26
25
25
23
23
23
24
24
24
22
23
24
26
26
29
22
57
158
254
254
254
245
163
106
192
254
254
251
234
227
183
99
98
95
109
113
86
85
134
167
195
180
100
60
57
53
50
51
49
50
89
152
208
138
20
28
55
108
125
92
59
71
111
149
136
83
26
67
93
98
85
55
20
6
0
10
32
25
16
11
8
7
6
8
18
36
70
99
87
93
45
25
24
23
24
25
25
25
23
23
23
23
24
24
23
25
24
26
28
23
60
133
218
254
254
254
254
248
204
220
248
253
253
239
217
193
197
146
115
101
81
73
91
111
100
93
83
70
69
63
60
52
50
48
46
47
126
209
72
17
27
47
79
96
91
61
51
86
113
102
56
23
43
104
169
154
70
10
35
82
32
2
9
7
10
8
13
16
18
11
8
11
21
89
83
38
23
25
25
24
24
23
23
23
23
23
22
23
24
24
24
26
28
26
28
93
176
248
250
254
254
254
252
250
249
249
239
221
200
192
203
207
174
245
172
88
84
77
83
86
78
67
69
66
66
64
62
57
53
47
50
132
122
20
28
25
29
36
52
66
85
101
91
74
51
32
32
67
91
120
92
37
65
161
168
113
35
10
67
111
113
118
118
109
99
44
4
8
87
67
29
24
25
24
24
23
23
23
24
23
23
22
22
22
23
25
26
26
16
80
147
233
251
236
242
251
249
243
237
240
241
216
180
160
188
176
132
152
147
96
91
82
75
85
95
82
66
64
64
64
65
63
58
55
51
52
76
29
21
23
23
22
21
30
61
89
93
76
72
50
29
44
27
5
17
36
57
84
70
56
46
43
34
85
124
88
79
85
89
59
41
37
4
86
64
25
22
23
23
23
23
22
22
22
23
23
21
22
22
23
24
23
19
106
154
143
242
254
246
227
218
213
211
209
217
242
237
164
137
170
99
120
187
111
83
82
82
78
86
98
87
76
71
67
67
65
61
60
57
51
50
37
20
24
20
21
21
20
27
48
54
62
81
74
47
44
38
6
17
72
104
60
2
0
1
18
40
49
44
35
4
6
12
10
11
111
110
55
91
62
25
21
21
20
21
21
21
21
20
20
21
21
22
22
24
23
17
102
168
87
117
247
254
253
252
233
224
234
239
246
251
222
129
137
120
55
207
232
134
56
64
71
79
84
87
87
77
72
69
68
64
65
61
58
52
53
28
22
23
19
21
19
18
23
25
28
60
103
101
47
32
15
29
110
126
131
129
85
54
96
145
99
61
37
8
10
49
58
27
83
133
114
103
96
66
45
44
45
45
46
45
46
48
48
49
51
53
55
59
65
65
107
160
110
37
122
245
254
254
252
249
249
250
249
250
240
187
161
129
96
120
214
134
37
47
47
44
46
52
61
75
78
71
71
69
65
63
62
62
59
48
22
21
21
18
20
18
18
19
18
26
51
82
97
65
16
23
111
118
109
112
120
133
146
154
147
125
78
40
12
18
73
123
136
126
116
101
95
90
70
68
71
69
69
69
72
71
70
70
71
72
74
74
75
76
86
133
113
63
13
96
235
253
246
229
230
231
233
237
229
199
221
233
136
140
199
122
52
53
51
48
43
36
31
32
43
45
41
42
48
54
58
59
59
58
40
21
22
22
21
19
18
17
18
19
21
26
54
84
82
66
98
112
108
118
114
110
119
127
131
141
140
112
43
9
10
27
68
88
99
115
99
89
86
68
66
67
67
66
68
70
70
68
68
67
70
68
68
70
67
77
99
83
37
17
65
199
245
244
207
206
210
203
185
149
200
251
199
115
185
140
52
54
52
50
50
44
39
33
22
46
40
23
21
24
27
31
33
31
28
22
22
23
21
21
19
19
18
20
18
17
19
38
77
99
97
100
118
121
121
116
105
105
113
128
139
141
135
82
20
3
10
21
41
79
111
103
95
91
72
66
67
67
65
69
71
70
70
71
71
72
73
74
75
76
86
87
78
32
22
40
134
214
227
134
128
162
138
96
105
222
213
148
160
146
54
52
54
51
50
45
43
40
24
42
97
61
22
22
21
19
18
20
18
17
21
23
23
20
20
20
19
19
20
19
15
18
41
73
93
98
114
114
107
119
123
123
119
118
131
133
134
137
139
118
70
14
10
26
59
102
112
99
94
70
67
67
67
67
69
70
72
73
73
73
75
76
77
80
84
87
107
109
34
27
28
106
188
169
63
88
98
71
64
155
203
141
145
167
60
53
57
52
50
45
40
40
30
25
50
81
47
18
22
20
20
19
19
18
17
21
20
20
20
16
18
20
19
17
16
13
13
34
72
65
43
32
20
27
34
44
52
59
71
89
105
123
134
140
147
144
84
15
8
36
84
119
109
86
66
68
66
66
66
68
70
72
72
74
74
76
76
77
81
85
89
113
103
37
26
33
119
146
105
99
94
96
88
96
139
123
133
175
109
44
53
51
45
40
36
38
31
21
24
33
56
25
18
20
21
20
18
19
21
20
18
17
18
18
18
18
18
17
17
15
16
12
21
53
84
71
54
43
15
3
4
4
9
7
14
28
44
66
93
128
146
144
100
45
17
46
110
119
85
66
68
66
66
67
67
71
72
72
74
75
76
77
77
81
87
86
99
100
37
27
32
90
71
90
181
86
118
165
93
77
106
149
147
53
42
44
44
40
35
37
31
22
18
25
28
23
17
20
20
18
18
19
19
19
16
19
21
19
16
17
17
16
17
16
16
13
14
12
26
67
105
121
114
80
50
32
20
12
9
8
9
5
9
20
43
85
139
156
140
99
75
106
121
89
66
66
65
65
66
69
70
71
72
74
75
76
77
77
80
83
88
91
86
35
30
26
36
38
126
174
87
130
119
79
115
129
153
93
37
40
39
39
35
36
30
27
19
18
24
22
21
20
19
19
19
17
16
18
17
18
19
17
17
15
15
13
14
14
14
12
13
14
12
11
22
35
39
46
51
57
60
47
24
13
13
13
13
9
5
2
17
57
73
83
98
87
65
87
89
66
66
64
66
66
67
69
69
71
73
75
76
77
78
81
83
85
91
68
24
28
28
18
70
121
97
118
146
154
104
214
214
130
52
37
39
37
36
34
30
27
23
18
21
24
25
22
20
19
19
18
16
17
18
18
26
18
16
17
17
13
12
14
13
13
13
13
13
13
11
10
9
9
8
10
14
17
18
17
15
14
14
16
20
23
25
29
29
29
33
29
14
20
60
83
63
66
64
65
65
65
67
68
69
71
73
76
76
76
78
80
83
88
56
28
32
27
19
61
55
74
182
193
204
216
235
240
111
34
40
35
36
32
33
27
22
20
18
21
23
24
21
21
20
19
18
17
16
17
20
23
16
18
23
23
13
12
12
11
11
12
12
13
13
12
11
11
13
13
14
12
12
13
13
12
12
13
13
18
22
26
31
41
49
52
43
32
21
24
73
58
65
64
64
66
64
65
67
67
69
71
74
75
76
77
76
79
79
73
80
36
22
23
27
25
112
207
213
235
244
240
229
83
34
39
35
32
31
29
22
19
18
18
23
23
23
23
22
20
20
18
15
14
18
19
18
14
17
25
20
11
10
11
11
11
11
10
11
11
11
11
11
11
12
12
13
12
11
10
12
12
12
11
11
11
11
13
10
11
12
12
9
9
10
68
56
66
64
64
66
64
64
64
65
67
69
71
72
74
74
73
75
72
80
84
28
24
24
24
21
143
213
225
203
212
240
167
48
36
37
35
29
29
22
20
19
18
22
25
22
21
23
21
20
18
16
15
16
17
17
16
14
12
19
14
10
11
10
10
10
10
9
9
10
10
11
11
10
10
10
12
11
12
11
11
10
11
11
11
11
10
10
12
11
9
10
12
12
10
64
55
67
64
64
65
64
63
65
64
65
67
70
70
72
72
72
74
72
79
80
24
22
21
21
26
153
212
218
200
229
228
88
36
41
39
33
27
22
18
21
18
20
26
25
22
22
22
21
19
16
16
15
16
17
17
16
13
12
16
12
9
11
9
10
9
10
9
9
9
9
10
9
9
9
8
9
8
9
10
12
11
11
10
10
11
10
9
11
9
10
10
10
10
10
60
55
68
65
64
65
64
64
63
64
64
66
67
68
69
69
73
74
71
80
76
23
24
22
21
26
154
210
218
225
235
149
41
40
41
38
28
23
19
18
21
17
21
26
23
20
21
21
21
18
17
16
13
15
18
16
15
12
12
16
14
9
9
9
10
9
9
9
9
9
8
8
8
8
8
8
8
8
8
8
8
9
10
9
9
9
9
9
10
9
9
8
9
9
9
57
56
69
65
64
64
64
62
62
64
63
65
64
65
66
67
69
72
68
87
78
20
23
23
20
25
138
212
221
227
203
69
36
41
39
33
21
18
21
23
20
18
22
23
22
20
20
21
19
19
17
15
15
16
16
16
15
12
10
14
15
12
10
10
10
9
9
9
9
9
8
8
8
9
9
9
8
7
7
7
6
7
7
7
7
7
8
9
9
9
9
9
9
9
9
55
57
69
64
63
64
63
62
62
64
64
65
64
65
65
66
67
70
64
100
68
18
21
19
15
25
144
213
220
212
100
38
42
43
35
23
17
23
23
22
19
16
23
23
22
20
20
19
20
17
17
17
16
17
18
18
13
12
10
10
13
11
11
13
11
10
9
8
8
8
8
8
8
8
8
8
7
8
7
7
6
6
6
6
7
6
6
7
8
7
6
7
8
9
8
51
58
70
65
63
64
64
62
61
63
63
63
64
65
64
64
66
64
82
113
45
19
20
21
47
78
112
197
203
103
36
43
53
96
66
18
20
25
23
32
17
17
23
20
23
23
20
17
18
16
17
17
18
19
20
17
14
13
10
10
13
14
13
12
12
12
12
8
7
9
8
8
7
7
8
7
7
8
7
8
7
6
7
7
7
6
7
6
5
5
5
6
6
6
6
49
59
68
66
64
63
62
63
63
62
62
63
64
64
63
64
66
63
88
76
36
34
18
58
95
74
62
139
96
48
59
62
71
115
72
18
25
23
29
35
13
17
24
24
29
29
23
18
17
17
18
16
17
19
19
17
15
12
10
9
11
12
11
13
12
12
16
17
8
9
7
9
8
7
8
8
7
8
8
6
7
6
6
7
6
7
6
6
5
5
5
5
5
5
5
48
61
68
67
65
62
61
63
63
62
63
63
63
63
63
64
63
64
68
55
51
54
49
73
83
64
62
76
65
72
71
66
62
76
37
22
26
21
34
30
11
19
24
26
28
30
24
16
18
16
19
17
16
17
18
16
14
12
10
9
10
10
11
14
12
12
20
31
18
5
10
7
8
8
7
7
7
8
8
8
7
6
6
6
6
6
6
6
6
6
5
5
5
5
5
44
59
68
67
64
63
62
61
62
62
62
63
63
63
63
64
63
64
64
62
66
64
67
66
69
73
74
68
71
68
66
63
63
54
25
28
20
25
41
27
12
20
20
23
23
25
21
16
19
17
18
18
19
18
16
16
13
12
10
10
10
10
11
15
16
12
13
34
38
12
7
8
9
8
8
8
8
7
8
8
8
7
7
6
7
6
6
6
6
6
5
5
5
4
4
46
60
67
66
65
65
61
61
61
62
62
61
62
61
61
63
63
61
63
61
63
64
66
67
70
70
70
69
68
63
64
61
61
58
39
28
33
44
56
27
15
19
19
20
19
19
20
16
20
18
18
16
20
19
16
15
13
12
11
10
11
11
12
14
16
13
10
23
40
34
8
9
8
8
8
9
8
8
9
7
8
8
6
6
5
6
5
6
5
5
5
5
5
4
4
39
59
64
66
66
65
62
61
61
62
61
60
60
60
60
60
62
60
60
61
62
65
66
68
69
69
69
66
66
64
63
58
60
76
82
75
87
69
73
18
15
19
20
20
20
18
19
19
19
18
18
15
20
20
16
15
13
11
10
10
12
12
12
14
14
14
10
14
33
55
26
5
7
9
10
10
9
9
8
9
7
7
7
6
6
6
6
6
6
5
5
5
5
5
4
30
57
64
66
65
63
63
62
61
62
61
59
60
61
60
61
60
60
61
62
62
65
67
68
68
67
68
66
63
60
60
57
65
88
91
101
87
74
66
12
14
16
19
20
21
20
21
20
19
19
16
13
22
23
14
16
12
11
10
11
12
13
13
15
16
15
11
11
25
63
55
8
6
8
9
8
8
8
6
8
7
8
8
7
7
6
6
6
6
6
6
5
5
5
4
47
63
64
65
64
64
61
62
61
61
60
59
59
59
59
60
60
61
61
60
64
65
66
67
68
64
65
61
60
59
58
54
69
89
90
95
75
80
48
10
12
15
18
19
22
22
21
21
20
17
14
13
22
23
14
16
13
12
12
12
13
13
14
17
14
14
13
13
22
64
83
47
10
3
4
5
5
9
9
5
4
6
6
7
6
7
6
6
6
6
6
5
5
5
4
57
62
61
62
62
62
62
62
60
60
60
60
59
58
60
60
62
60
59
60
63
64
65
65
65
63
61
59
61
58
57
55
74
89
89
82
70
77
23
9
11
16
19
23
25
23
22
22
20
17
13
10
21
27
18
18
12
11
12
14
14
14
17
16
16
14
14
11
22
60
102
114
91
49
33
42
44
62
73
56
36
21
10
5
8
6
7
7
5
5
6
5
5
4
5
57
61
61
62
63
63
63
62
61
59
58
58
59
60
60
60
60
59
60
61
63
64
64
62
62
62
60
58
59
57
56
57
83
92
85
74
77
70
11
10
12
21
23
27
30
24
19
23
20
16
14
10
29
41
25
22
13
10
13
15
15
15
16
16
15
14
15
13
25
60
101
128
144
129
111
109
102
103
116
120
110
99
65
20
3
9
6
7
6
6
6
5
4
4
4
55
60
61
63
62
60
60
62
59
58
57
57
57
57
57
59
58
58
60
62
62
63
62
61
60
59
58
57
57
57
56
60
88
91
80
70
89
56
8
14
24
25
27
43
37
25
23
20
19
14
13
12
40
70
41
31
14
11
13
17
16
16
15
15
14
16
14
13
30
67
101
127
142
144
130
114
116
109
110
116
129
122
101
65
17
3
7
6
6
5
5
5
4
4
5
56
57
60
61
61
60
60
62
59
59
59
59
59
58
58
60
59
59
60
62
63
63
62
61
59
58
58
56
56
57
56
65
87
92
75
74
96
49
13
21
25
23
42
52
35
24
21
18
19
17
14
9
55
103
61
38
17
12
14
16
16
16
15
14
16
14
13
18
43
79
107
125
141
144
138
133
131
126
112
112
118
110
107
92
50
6
6
7
6
6
5
5
4
4
4
57
58
61
60
62
62
60
61
60
60
59
59
59
59
59
60
60
60
60
61
62
62
61
60
59
57
56
57
55
56
55
69
89
85
75
83
97
46
14
21
21
26
33
30
22
20
17
16
18
15
15
10
69
115
68
46
26
14
13
17
18
15
15
15
15
15
16
30
57
89
116
127
140
142
135
136
138
136
129
121
117
111
104
97
69
16
5
8
6
6
5
5
4
4
4
57
59
58
57
59
61
61
60
61
59
58
59
59
59
59
60
59
59
59
59
60
60
59
57
57
58
55
55
55
55
56
72
92
80
78
90
97
34
13
17
16
18
19
20
19
16
17
16
16
14
14
11
69
116
78
62
35
16
13
18
21
16
16
15
15
15
23
41
71
101
121
130
138
141
134
122
130
139
141
128
113
106
99
89
80
36
5
7
6
5
5
4
4
4
4
56
41
30
29
34
48
59
61
60
60
59
59
59
59
59
59
58
59
58
58
58
58
57
57
56
56
54
55
56
54
57
75
90
80
78
97
79
16
25
26
21
18
18
18
17
17
15
16
15
15
14
11
61
112
83
67
53
28
17
24
26
22
19
16
15
17
29
52
84
111
128
131
136
143
138
120
113
128
137
135
122
106
100
81
94
74
14
5
6
6
5
4
4
4
3
29
18
16
20
20
30
54
61
60
58
59
60
59
59
58
58
59
58
58
58
57
57
56
55
54
55
54
55
55
55
56
76
88
83
77
95
51
11
42
50
51
53
31
18
16
17
14
15
16
15
14
13
57
100
86
92
78
43
26
34
31
27
21
18
19
25
36
60
86
113
128
131
135
137
139
127
113
116
136
144
124
108
91
83
111
81
13
4
5
5
5
4
4
4
3
17
17
20
24
18
22
56
63
60
54
54
54
58
61
58
57
58
60
58
56
55
55
56
55
54
55
55
53
53
53
55
77
87
81
83
89
42
9
43
90
112
110
80
51
34
24
25
31
25
19
19
17
48
118
114
94
74
53
35
45
43
33
30
21
24
31
46
65
87
112
122
130
133
133
137
138
126
117
127
134
130
119
88
96
100
55
20
5
6
5
5
3
4
5
4
18
17
18
19
18
43
64
58
35
26
24
29
41
56
58
56
57
55
55
57
55
55
55
53
54
53
54
53
54
53
55
79
85
79
82
90
39
4
33
91
119
125
114
96
83
77
70
62
44
35
30
16
58
130
98
91
83
62
49
56
51
44
41
34
36
42
53
67
87
108
116
129
134
135
136
138
132
118
118
128
137
119
105
99
85
62
39
3
5
5
6
5
4
5
3
36
30
18
16
27
44
50
26
15
18
20
20
26
49
56
55
60
57
57
56
53
53
54
52
52
52
53
53
54
53
56
79
86
78
87
89
26
4
17
52
91
118
121
121
126
121
112
97
88
79
69
42
51
124
111
101
95
72
54
59
61
60
56
50
53
60
67
72
81
97
110
123
134
134
134
139
136
122
108
118
117
127
128
108
64
68
43
3
6
5
6
4
4
4
4
57
36
16
18
19
24
23
16
18
19
19
19
23
51
55
56
45
42
44
51
57
55
52
53
52
53
52
53
54
53
55
78
79
78
90
73
19
6
10
19
53
82
106
121
124
123
125
124
121
112
106
58
47
130
120
108
106
86
60
58
66
70
71
70
75
81
81
79
78
83
98
114
127
133
133
136
137
128
119
113
121
141
128
103
63
73
42
6
5
5
6
5
4
4
4
36
18
17
19
19
20
18
20
19
18
19
20
44
59
48
24
17
18
24
32
52
54
51
50
51
52
53
53
53
51
54
73
78
78
76
58
22
8
11
10
18
47
82
110
122
123
116
113
109
103
102
52
39
122
124
108
112
99
69
62
72
77
80
84
94
102
96
91
86
80
84
101
113
122
131
135
134
136
125
114
116
118
126
107
70
74
37
4
5
5
6
5
4
4
4
16
16
15
17
19
16
33
46
33
21
15
24
37
41
21
14
18
20
19
22
47
54
52
51
52
51
51
52
53
51
53
74
75
71
66
59
26
8
13
12
11
21
45
77
102
115
112
105
101
90
85
44
29
110
122
102
109
102
78
67
72
78
86
96
106
112
111
102
96
92
84
89
101
114
128
133
137
136
124
107
106
118
117
95
75
69
55
10
5
6
5
4
4
4
4
21
23
19
18
14
23
52
58
34
18
18
20
22
19
17
19
17
20
19
23
51
55
50
41
37
40
47
51
54
53
54
73
68
62
64
60
36
17
13
11
14
15
20
41
74
100
106
102
90
83
70
37
24
97
119
99
104
100
85
74
75
81
89
97
107
117
118
105
97
100
88
80
94
109
120
131
134
136
133
128
122
110
102
104
86
88
78
16
5
6
5
5
5
5
3
