P2
# CREATOR: ImgTools v0.1 - hfabioen UNIVALLE
95 127
255
121
127
131
137
137
142
131
121
230
197
110
147
142
137
172
208
246
234
176
106
152
152
157
159
165
169
169
157
152
155
152
152
152
152
147
152
152
152
155
152
147
152
152
152
152
152
147
152
142
142
142
147
142
142
137
131
137
137
131
131
137
131
127
127
131
127
127
131
121
115
127
127
127
121
127
127
127
121
115
115
121
110
110
106
106
106
106
102
95
95
98
98
98
98
102
127
127
142
142
137
142
127
161
232
184
121
147
142
157
110
219
244
182
159
147
147
137
137
147
155
155
155
142
147
155
147
147
147
147
147
152
152
152
152
147
147
152
155
152
152
152
147
152
147
147
147
147
142
142
142
137
137
137
131
131
137
137
131
127
131
131
127
127
121
115
115
121
121
115
127
127
121
121
121
121
121
110
110
106
106
106
102
98
98
98
98
102
98
98
95
131
131
137
137
147
137
110
182
231
167
142
147
152
142
152
242
235
74
142
155
147
147
142
131
142
147
147
152
147
147
152
155
147
147
147
147
152
147
152
147
147
152
152
152
152
152
147
147
152
147
142
142
142
142
142
142
131
131
131
131
137
137
131
127
127
127
127
121
121
121
115
127
127
121
121
127
121
115
115
121
110
110
110
106
106
106
102
102
98
98
102
98
102
95
93
127
137
137
137
142
137
115
191
228
147
147
147
142
121
199
247
204
93
152
152
142
131
137
142
147
142
142
152
147
142
147
147
147
147
142
147
147
147
147
147
152
152
152
152
152
152
152
147
147
147
142
137
137
137
137
142
137
137
137
131
127
127
127
121
127
121
127
121
121
127
115
127
121
121
115
115
115
115
110
115
106
110
106
106
106
110
106
106
98
102
102
106
98
102
93
127
127
131
131
137
137
110
199
225
121
137
152
142
121
234
245
171
137
147
147
142
137
137
142
147
142
142
147
137
137
147
142
142
142
147
147
147
142
147
147
147
147
147
152
152
152
152
152
147
147
142
142
137
137
137
137
137
131
137
131
127
127
121
115
127
121
127
121
121
127
121
121
121
106
110
115
110
115
110
110
110
110
106
102
110
110
110
106
106
102
106
102
106
98
98
121
121
131
131
142
127
102
208
218
102
137
137
127
176
243
235
115
142
147
152
147
147
137
137
147
142
142
142
137
147
147
137
142
142
142
147
147
142
142
142
142
147
147
152
152
147
152
152
152
152
147
147
142
137
137
137
131
131
137
131
127
127
127
121
127
121
127
121
115
127
121
121
115
106
110
110
110
110
110
110
110
110
106
106
110
110
106
102
106
102
102
102
95
102
95
121
121
142
142
127
127
110
210
205
102
142
131
106
212
247
211
106
152
142
142
142
137
137
137
137
142
147
137
131
142
137
137
142
142
137
142
142
142
142
142
147
152
147
152
152
147
147
147
147
147
147
147
142
137
137
137
137
131
131
131
127
121
121
121
121
121
121
115
115
127
121
121
115
115
110
110
110
110
110
110
110
106
106
106
106
110
110
106
102
98
102
98
98
98
93
131
131
131
131
127
121
131
213
197
102
137
127
131
235
245
180
106
137
147
131
137
137
137
142
131
137
142
137
137
147
137
137
142
137
137
142
147
142
137
137
152
152
142
147
152
147
147
142
142
142
147
147
137
137
137
137
137
131
131
131
127
115
115
121
115
127
121
110
115
115
115
121
121
110
110
110
106
110
110
110
102
106
110
106
98
98
106
102
102
106
106
106
102
98
93
137
137
137
127
121
115
155
216
193
110
137
115
176
244
234
115
137
137
137
137
137
131
131
137
137
137
131
137
127
131
137
142
142
142
131
137
127
127
121
131
152
142
152
142
147
142
142
137
142
142
142
131
142
147
137
142
137
137
142
137
131
127
121
106
115
121
121
121
121
115
121
121
115
115
115
115
110
110
110
110
110
106
102
98
102
98
98
98
98
98
102
95
95
95
93
127
131
131
115
131
115
159
217
195
110
127
110
218
247
203
110
137
137
137
137
137
131
131
137
137
131
142
131
142
137
137
137
131
115
152
137
179
171
170
159
121
152
147
147
147
142
142
142
142
142
137
131
137
137
142
137
142
137
137
131
127
127
127
121
121
115
115
115
121
121
121
121
115
110
110
110
110
110
110
110
106
98
102
102
102
98
102
95
98
93
93
95
93
91
89
121
127
131
127
131
115
165
218
191
106
121
155
237
241
172
121
137
131
131
131
131
131
131
137
131
137
137
131
137
121
127
137
176
230
214
187
220
196
202
171
98
115
147
155
152
142
147
147
137
137
137
137
137
131
137
137
142
137
137
131
127
127
127
121
115
115
115
115
121
121
121
127
121
115
115
115
115
110
106
110
106
102
102
98
102
98
102
98
102
98
95
95
93
91
89
131
137
137
127
137
110
166
219
191
102
110
187
245
231
121
131
137
131
131
127
131
131
131
137
137
137
137
142
102
157
204
192
211
221
159
161
166
186
199
200
196
190
190
170
161
165
147
137
142
147
142
131
137
137
131
137
137
137
137
131
137
131
127
115
121
121
115
115
121
121
115
121
115
115
115
110
110
110
106
110
102
102
102
102
102
98
98
102
102
102
98
95
91
89
89
137
137
142
142
147
121
172
222
187
106
102
220
246
193
110
131
137
137
137
131
131
131
131
137
142
137
137
106
161
210
208
204
187
98
121
191
208
229
232
235
230
216
181
183
195
184
176
159
121
147
147
131
142
142
142
137
131
137
137
131
137
131
131
121
121
121
115
115
115
121
121
127
115
121
121
110
106
102
102
102
106
102
106
106
102
98
102
102
102
102
98
95
93
91
89
147
137
147
147
137
115
176
223
188
106
127
237
239
157
106
127
127
127
131
131
131
131
131
131
137
142
127
127
210
201
219
225
159
121
175
180
197
191
191
178
180
190
206
214
210
193
183
165
131
137
137
137
147
137
137
142
137
142
137
137
131
127
131
127
127
121
121
121
115
115
121
115
121
127
121
115
115
110
110
110
106
106
106
102
102
102
98
98
102
98
93
93
93
89
91
155
155
147
131
137
115
179
224
187
102
183
245
228
106
131
127
115
121
127
127
127
127
127
131
131
131
106
194
229
207
213
174
74
200
194
179
82
87
188
197
186
205
184
170
200
207
191
188
147
106
127
137
137
142
147
147
142
137
142
137
127
127
127
127
121
121
127
121
121
115
121
121
115
121
115
115
121
121
115
115
110
110
106
98
102
102
98
98
102
95
93
93
91
91
91
95
110
131
127
147
121
185
225
179
102
217
247
184
127
131
127
115
121
127
121
121
121
121
127
131
98
191
235
225
178
81
74
184
185
193
188
137
208
233
233
236
221
201
186
201
193
188
166
127
93
159
159
131
147
142
142
142
137
142
142
142
131
127
121
121
121
127
121
121
115
121
121
127
121
115
115
115
106
102
102
110
110
106
102
102
102
102
98
98
98
95
93
93
91
93
78
79
79
77
75
73
179
223
174
102
238
239
157
161
157
152
147
137
131
121
121
115
121
131
110
152
225
229
183
157
115
127
106
127
187
209
207
226
227
230
230
215
224
219
190
205
199
115
84
106
171
127
147
152
142
142
131
137
137
131
142
147
127
131
131
127
115
121
121
121
121
121
131
127
127
127
115
102
102
110
102
102
102
102
102
102
102
98
98
93
91
93
91
91
91
85
82
82
78
68
27
169
216
152
170
245
223
102
142
147
163
159
159
155
147
147
142
131
115
159
202
214
182
127
142
110
115
187
180
195
221
208
200
219
205
189
137
201
230
216
205
185
179
127
98
121
102
147
159
155
147
147
137
131
137
142
142
137
142
137
131
127
127
121
121
121
115
115
121
127
127
121
115
106
102
102
98
98
95
95
98
98
98
95
95
93
91
89
91
89
82
84
77
79
84
66
172
210
102
224
246
179
74
82
87
91
106
121
152
155
157
161
157
147
171
204
201
147
121
152
163
196
197
194
199
184
179
213
231
212
198
225
208
196
201
211
194
186
161
93
87
84
102
142
147
155
155
147
142
142
137
131
131
131
127
131
127
127
127
127
127
121
110
115
115
115
115
115
115
106
110
110
102
95
95
98
98
98
98
98
98
95
91
91
87
79
78
70
79
81
75
185
206
166
240
238
102
89
95
84
82
79
84
89
89
98
115
147
137
186
215
183
155
137
163
171
204
190
200
174
180
186
219
233
208
216
231
210
211
217
209
204
199
179
106
95
85
81
95
152
155
155
157
155
152
142
131
131
121
115
121
121
121
127
127
127
127
127
127
115
110
110
110
110
106
106
110
110
106
110
106
102
98
95
95
95
93
95
93
91
84
75
77
93
87
78
191
202
200
247
220
87
115
127
115
115
106
95
91
85
82
89
89
87
200
217
193
137
175
169
176
208
202
188
226
186
176
228
236
225
200
214
213
212
211
222
206
193
175
157
142
85
73
77
106
159
155
155
155
152
152
147
131
127
115
115
121
115
121
121
121
121
142
137
127
121
115
110
106
106
102
110
106
106
110
110
102
106
98
98
95
91
93
93
91
84
75
89
115
106
85
196
198
230
245
178
77
98
115
131
137
152
137
137
127
121
110
93
157
207
201
172
165
185
115
200
229
211
227
210
198
212
231
237
229
197
208
216
215
225
213
199
178
165
127
84
106
167
89
81
152
157
142
142
147
147
147
137
142
131
127
121
121
115
121
115
121
121
127
127
121
115
121
115
115
106
102
98
98
102
102
106
110
110
106
102
95
93
89
87
81
78
93
115
110
127
205
196
239
236
95
77
82
89
121
121
142
155
159
155
152
137
169
193
201
186
152
169
142
167
229
223
192
185
193
195
181
199
231
208
230
199
223
219
210
221
203
194
159
102
206
244
246
234
161
84
142
142
137
131
131
131
137
137
137
131
131
127
121
127
115
115
115
115
115
110
115
121
121
121
121
115
115
110
98
98
95
93
102
102
102
98
98
93
89
75
81
121
142
137
152
205
210
246
220
87
81
81
82
87
95
115
142
155
155
159
152
163
201
202
187
179
172
159
194
217
202
172
210
172
157
202
184
184
223
231
222
206
212
209
226
228
191
181
204
245
243
230
236
231
95
110
147
142
127
127
121
127
121
127
121
127
127
127
131
121
115
121
110
110
115
115
110
110
115
115
115
115
121
106
102
98
98
95
95
93
93
93
93
89
77
93
137
155
147
166
206
233
245
178
75
84
85
78
79
87
95
106
131
152
157
147
186
226
174
191
182
172
176
181
199
179
191
169
85
179
189
89
186
196
188
190
190
214
227
232
215
210
224
223
234
206
239
241
239
199
75
163
157
142
142
131
115
110
110
110
110
115
115
121
127
121
131
121
115
121
110
106
106
102
102
106
106
106
106
98
106
106
95
95
91
89
89
87
85
82
110
147
137
131
165
201
241
236
110
85
87
85
87
82
81
84
93
102
127
152
137
192
228
178
169
157
166
163
181
142
185
179
93
155
159
81
71
152
188
176
187
196
210
230
230
208
214
209
203
215
228
247
248
246
236
110
155
166
161
157
155
152
131
115
110
106
106
106
121
127
121
127
131
127
121
115
115
106
102
102
98
95
98
95
98
102
102
106
106
98
98
95
89
87
106
115
161
188
207
194
205
246
208
89
121
106
93
85
84
81
79
82
91
102
121
95
197
237
198
155
195
178
169
127
142
161
142
137
127
115
102
127
196
180
199
185
181
216
230
216
212
208
200
206
234
235
211
223
237
243
207
84
127
106
127
142
147
147
152
142
137
131
121
102
106
110
110
115
115
115
115
115
121
110
110
110
102
102
106
106
102
98
95
95
95
95
98
98
91
82
155
197
223
233
231
234
242
174
95
157
163
147
95
79
78
81
78
82
87
91
131
215
208
204
205
205
147
98
95
110
131
102
110
91
203
200
205
185
213
218
180
198
221
208
219
228
205
193
209
236
238
195
171
217
241
236
98
78
78
79
85
95
115
127
142
155
155
152
142
131
115
110
110
115
115
115
110
115
121
115
115
115
106
106
98
95
93
91
89
85
87
89
89
87
39
172
205
219
231
202
238
234
115
110
165
170
166
159
110
81
81
82
81
82
84
121
194
181
176
202
197
87
82
85
176
175
82
175
219
226
197
197
230
236
227
195
197
197
194
208
218
215
207
220
236
244
235
182
228
247
241
163
81
74
74
77
78
82
84
89
98
106
127
142
152
152
152
142
127
127
121
110
110
110
110
110
115
115
102
102
102
98
93
91
85
85
87
89
87
43
98
175
170
89
75
234
194
93
82
110
159
166
165
165
131
82
78
82
78
74
152
202
181
170
185
167
84
85
106
161
85
121
197
188
127
180
222
236
238
236
227
213
189
191
204
214
208
200
212
239
251
250
233
237
242
233
170
102
82
77
81
85
89
87
84
82
84
85
89
98
115
127
142
142
142
137
131
127
121
115
121
121
110
106
106
102
98
98
98
95
89
89
95
91
39
69
81
62
13
147
195
142
71
31
48
66
74
82
98
110
93
79
78
81
78
91
175
193
178
175
163
84
85
98
89
95
84
78
87
180
186
213
237
238
235
239
234
219
210
219
230
210
200
208
238
251
252
244
237
235
240
196
131
102
84
85
95
102
102
106
102
95
89
87
85
87
87
89
91
93
106
127
137
137
127
137
127
102
110
115
115
115
106
106
102
102
102
95
98
43
56
70
64
39
152
182
163
20
27
27
23
20
27
31
48
56
59
56
75
84
82
155
186
178
127
98
102
142
78
75
81
73
81
152
163
182
207
231
231
241
245
241
240
241
239
239
243
239
229
235
249
253
253
247
247
244
232
169
121
89
89
89
91
110
115
121
127
127
115
106
102
95
93
89
89
85
84
85
87
91
91
95
102
102
115
121
121
127
127
121
115
110
106
98
52
56
66
66
48
70
188
180
20
35
35
27
27
27
27
20
23
20
31
48
75
84
159
199
184
102
91
163
98
68
71
91
89
142
159
169
180
182
209
236
245
247
247
249
252
251
251
251
251
244
240
249
253
253
252
247
243
241
205
180
142
87
85
84
85
91
110
137
142
137
131
121
121
121
115
91
78
79
91
91
84
81
89
106
79
77
84
87
89
91
98
98
106
110
110
52
43
77
70
23
121
196
106
18
31
35
43
23
27
27
27
23
23
27
23
39
70
147
202
188
93
98
131
84
69
79
127
157
161
163
170
165
185
225
238
242
245
248
250
251
248
249
250
251
249
248
251
251
251
251
247
247
245
235
208
175
102
159
159
142
93
91
106
127
152
142
152
152
121
78
174
222
198
91
87
110
110
91
82
68
71
74
74
74
71
71
71
74
75
77
56
43
131
91
233
235
193
64
27
31
27
31
27
27
27
23
23
20
27
27
31
31
79
185
191
147
155
142
89
93
155
169
165
163
165
169
165
184
219
235
239
244
249
252
249
244
243
247
249
250
251
251
248
248
248
248
248
246
241
233
223
186
102
167
184
185
127
85
102
127
147
152
142
172
223
242
249
242
223
161
81
93
89
82
77
82
87
81
81
78
75
73
71
70
69
35
75
172
230
247
234
181
27
35
43
31
31
35
35
27
23
31
27
27
27
27
27
35
127
180
181
198
197
165
172
176
174
170
166
167
170
165
169
205
233
239
246
251
249
244
239
241
247
249
251
250
248
246
244
244
246
247
246
243
240
240
235
178
75
165
196
189
87
84
102
115
106
166
238
248
241
238
241
247
237
174
95
106
84
75
87
87
85
84
84
85
85
84
82
79
14
155
219
242
243
224
121
16
35
27
31
31
35
35
27
27
23
27
27
35
27
31
39
62
84
170
191
227
194
176
176
176
174
171
172
171
163
174
216
236
241
246
243
236
218
228
244
251
252
251
249
246
243
241
242
244
246
246
245
243
242
242
238
193
106
175
185
176
98
89
87
73
202
243
238
237
238
238
245
247
234
199
87
84
81
115
106
93
91
87
85
85
85
84
81
59
195
230
245
238
203
74
52
62
59
35
31
35
39
27
35
27
27
31
31
23
35
27
23
31
39
102
228
231
191
181
179
179
178
174
167
161
186
222
234
235
233
217
191
170
231
249
252
252
250
248
246
242
241
241
241
244
245
246
245
243
244
244
240
218
95
180
201
175
87
167
235
242
226
230
239
238
234
244
242
235
217
89
81
89
142
142
131
131
115
106
93
91
87
84
155
201
233
244
231
183
106
131
147
121
52
27
43
35
39
35
31
23
31
27
23
23
35
31
20
20
20
185
231
216
191
182
180
176
172
171
170
187
197
199
183
179
178
175
202
239
248
251
249
249
247
246
243
241
240
240
242
245
246
244
244
246
247
246
243
216
174
207
190
155
235
247
222
193
237
237
232
236
231
193
205
180
95
81
93
142
142
142
127
131
137
121
121
110
102
186
193
231
234
193
205
211
68
73
77
95
56
27
35
27
35
35
35
35
31
27
35
35
31
31
31
20
68
206
231
204
181
176
176
175
174
176
182
180
152
115
181
183
174
216
236
240
243
245
246
245
245
244
242
240
240
240
242
243
243
243
246
248
249
249
239
197
206
197
228
240
220
191
236
235
232
235
232
93
81
159
175
87
78
98
137
121
121
131
131
121
115
121
121
115
191
201
235
223
165
235
212
56
66
77
159
79
23
35
31
31
31
31
35
35
31
27
27
31
35
31
35
14
102
227
232
195
175
176
176
180
182
187
165
87
167
179
159
163
201
212
233
236
238
240
242
245
246
244
241
239
239
240
241
241
242
245
247
249
250
244
216
219
241
242
217
190
236
235
231
233
239
241
89
11
98
161
91
78
91
127
121
127
121
121
115
121
115
121
115
188
196
230
202
161
187
81
66
71
68
115
95
31
31
31
39
35
35
35
31
31
27
31
39
43
31
31
35
18
190
238
228
189
182
184
187
188
178
115
121
121
102
110
176
178
188
203
209
231
237
240
243
245
244
242
239
238
238
239
239
240
243
246
248
250
246
225
236
241
228
224
237
234
232
235
239
242
238
220
196
84
137
98
79
93
137
142
147
142
131
127
115
115
115
110
70
201
219
127
93
70
59
68
70
69
98
98
31
39
43
39
35
35
39
39
35
31
31
35
35
39
35
39
14
102
231
233
203
183
182
184
182
169
137
121
95
110
161
167
174
183
182
189
227
237
239
240
241
242
241
239
236
236
236
236
238
241
244
246
249
245
236
239
215
208
238
234
233
222
235
241
234
93
200
218
89
93
89
81
89
121
127
115
121
115
115
106
110
102
106
165
240
208
59
73
68
82
71
78
78
95
78
31
39
43
35
43
35
35
35
39
39
35
35
35
31
39
35
39
52
170
196
176
165
152
115
142
169
155
106
106
152
167
175
181
183
182
189
217
234
237
238
239
239
239
238
234
233
228
225
235
240
242
244
245
242
241
216
212
237
231
233
219
194
237
237
197
66
52
157
163
79
85
77
82
102
95
98
106
98
98
98
102
98
98
225
241
166
78
152
84
89
89
81
79
82
69
48
35
35
27
39
35
35
35
35
39
35
31
39
31
39
35
52
27
43
56
62
179
200
121
161
176
175
142
121
121
155
169
178
187
187
182
186
211
234
238
237
235
235
236
232
228
193
192
229
238
240
242
243
239
218
229
238
233
233
227
219
235
236
205
152
121
93
188
159
77
70
73
84
106
110
121
115
106
98
98
95
98
98
240
230
169
161
179
106
87
87
85
93
95
89
79
74
70
64
48
35
31
27
31
35
39
31
35
35
39
35
35
35
35
27
16
178
230
203
171
197
212
147
106
95
82
95
142
182
190
186
180
190
222
234
235
233
228
228
229
212
172
178
225
236
240
244
239
219
233
238
234
234
229
229
237
241
238
121
165
169
87
93
179
175
115
87
68
70
84
106
131
137
131
131
115
110
98
241
201
195
170
202
167
71
70
77
91
93
95
95
102
98
93
82
77
69
64
56
43
35
27
31
31
31
39
48
35
39
43
23
64
201
223
189
192
216
179
102
110
216
240
194
152
185
188
186
179
182
208
233
235
222
202
217
200
169
176
218
235
241
239
217
235
238
235
235
231
233
239
225
220
188
66
91
196
84
176
163
188
219
204
175
81
27
27
64
70
79
89
98
115
121
237
190
187
161
191
155
75
59
59
64
69
74
81
85
91
95
89
89
91
93
91
84
79
74
56
39
43
35
31
35
35
39
43
31
70
187
216
202
206
201
127
232
251
244
186
137
171
179
176
176
176
192
226
231
218
190
189
176
166
175
209
237
237
225
236
235
234
236
233
235
238
239
197
157
98
176
166
157
228
247
175
201
226
220
215
202
176
77
11
11
16
20
35
59
66
219
165
165
152
169
82
71
64
59
56
56
56
59
64
66
69
71
78
81
89
93
102
121
93
62
84
85
70
48
39
48
52
39
39
20
62
187
214
223
222
199
242
233
169
95
147
163
165
172
169
178
186
187
193
208
191
171
176
167
176
231
238
233
238
235
234
234
233
239
237
237
238
115
78
180
166
142
196
216
199
152
220
223
220
221
216
210
193
106
16
7
13
13
11
9
176
84
188
201
208
81
69
66
62
59
59
56
52
56
52
52
56
62
62
68
71
75
84
71
74
102
106
98
82
69
77
81
75
73
68
48
59
174
220
223
223
215
163
165
166
159
163
170
157
115
167
176
170
174
206
193
181
174
159
217
241
240
238
236
238
238
236
239
239
224
191
110
121
127
147
68
70
182
196
78
174
223
219
220
216
213
210
204
191
142
27
9
14
13
11
121
91
198
209
206
77
62
66
62
59
56
56
52
52
48
43
48
43
43
48
43
52
56
39
62
73
77
85
87
81
81
82
91
102
102
91
78
78
157
193
197
203
210
182
180
179
179
166
102
155
167
174
170
171
194
197
172
102
192
243
245
240
241
243
242
240
240
239
245
202
73
167
193
197
190
174
121
71
39
31
214
228
216
214
214
216
213
208
203
193
161
27
5
13
13
85
110
201
208
200
71
59
62
64
59
62
59
56
56
56
52
43
48
48
43
39
35
35
39
39
39
39
48
64
69
71
71
74
77
87
106
127
110
91
110
169
223
220
189
183
184
167
142
161
181
178
175
169
171
194
184
216
233
245
249
241
244
246
242
238
240
234
220
202
79
79
184
202
207
189
167
172
68
23
84
225
228
219
211
211
218
215
210
208
201
197
131
14
9
13
69
166
207
215
198
74
62
64
64
62
59
59
56
56
56
52
52
48
48
48
43
39
35
43
39
39
35
39
39
35
52
56
56
62
68
74
79
98
95
87
178
205
188
191
215
179
175
170
184
188
182
175
170
181
188
221
250
255
252
247
246
246
240
235
239
243
232
87
127
191
198
191
185
195
159
62
68
62
35
81
207
225
221
209
203
212
213
213
212
206
198
191
85
5
13
68
179
205
216
197
74
62
68
64
62
59
59
56
52
56
52
56
43
48
48
43
43
39
48
35
39
39
31
35
43
39
35
43
48
48
52
59
66
62
157
189
188
106
169
191
187
180
188
190
188
186
179
186
192
178
244
255
253
249
247
246
236
236
240
235
236
188
64
181
228
222
215
210
214
170
56
66
56
23
87
205
219
216
207
204
205
217
214
210
213
201
199
187
69
1
68
190
203
213
186
68
66
66
64
64
62
62
59
56
56
52
52
48
48
48
43
39
43
39
39
39
35
35
39
43
39
35
43
39
43
52
43
20
157
170
171
178
87
69
84
102
152
205
205
188
191
196
196
106
233
253
255
253
248
245
236
237
242
238
178
147
121
180
189
207
220
218
214
214
161
66
62
48
27
121
214
218
210
204
212
210
214
215
206
213
208
201
203
174
18
82
191
201
210
178
66
68
66
64
64
62
59
62
59
59
56
48
48
48
48
48
43
39
39
48
43
48
43
39
39
35
43
48
39
52
31
31
184
193
77
85
93
106
89
75
66
77
171
180
187
189
184
81
198
252
252
253
252
250
245
242
241
242
233
75
127
218
227
216
197
197
201
212
208
155
64
48
39
23
182
223
214
201
202
218
207
207
213
206
208
212
200
201
196
121
98
193
202
212
170
62
66
66
66
64
64
59
59
56
56
56
48
48
48
48
43
39
43
43
43
39
39
43
39
35
43
43
48
43
43
43
189
203
93
66
66
93
110
98
89
74
74
68
81
93
93
77
106
245
252
250
253
253
250
248
239
204
201
142
152
175
210
224
223
217
211
206
216
206
170
62
43
35
56
203
224
206
195
202
210
200
194
208
211
208
215
205
200
200
188
131
197
205
211
159
66
66
68
66
64
62
62
59
52
56
56
52
48
48
48
39
39
39
43
48
43
39
39
43
43
39
48
48
39
48
178
180
167
71
66
68
106
84
157
152
82
78
74
75
81
87
73
236
252
250
251
255
252
239
234
195
159
106
189
220
209
195
199
211
219
219
214
211
209
181
48
48
23
84
218
214
196
192
211
216
203
199
201
214
209
213
213
208
203
198
161
197
201
207
127
66
66
68
66
62
62
59
59
56
59
59
52
48
48
48
43
43
43
43
43
43
43
43
43
52
48
48
43
35
166
155
161
137
62
68
75
115
157
161
84
81
87
81
81
91
71
205
252
251
249
252
243
228
191
206
219
217
204
221
220
218
213
201
198
219
219
214
212
220
176
35
52
23
157
222
205
191
201
225
222
216
216
201
214
214
212
216
217
204
197
170
196
202
205
106
66
68
68
66
62
62
59
62
56
59
59
56
52
48
48
48
43
43
39
43
39
39
39
48
43
43
31
27
166
159
95
176
74
64
68
81
121
89
71
70
95
106
91
89
78
159
246
252
249
251
241
131
131
192
223
227
223
228
220
217
217
221
213
209
218
217
213
215
221
165
35
43
20
183
219
200
197
220
229
225
227
225
208
199
208
221
227
222
209
193
174
199
208
206
102
64
69
66
66
64
62
59
62
56
59
59
52
52
48
48
48
43
39
39
48
43
39
43
39
43
18
64
197
180
82
131
155
62
68
71
81
71
68
70
81
142
127
169
87
74
238
252
250
251
248
185
121
171
170
209
225
224
226
217
215
216
217
211
216
218
214
210
221
214
137
31
39
52
197
216
201
215
220
220
225
228
222
214
202
208
200
204
225
213
202
179
204
211
205
93
62
69
66
64
64
62
56
62
59
59
59
52
52
48
48
43
43
43
48
39
43
43
48
52
18
95
205
186
79
77
102
78
66
69
73
77
70
73
70
121
115
147
191
79
219
252
250
249
251
223
84
181
110
77
165
204
227
230
217
213
219
215
216
219
217
211
212
220
208
106
31
27
77
207
212
205
220
213
213
226
230
226
220
210
182
163
209
229
223
211
182
204
206
197
82
66
69
68
66
64
62
59
62
59
56
56
56
56
52
48
48
43
43
48
48
52
48
48
23
102
204
161
69
73
70
75
68
69
70
78
74
71
77
75
165
91
157
193
197
248
252
249
252
239
95
176
163
81
81
74
115
188
207
222
224
217
214
218
219
213
215
220
219
201
87
35
20
106
213
205
216
225
218
225
228
228
223
225
215
208
223
223
228
228
224
183
205
204
189
75
68
70
66
66
64
62
59
64
59
56
59
56
52
48
48
52
48
43
48
43
48
48
48
48
188
178
77
62
66
69
70
70
68
71
79
77
79
81
91
166
85
155
193
243
252
249
250
248
180
170
180
89
85
84
78
62
137
189
190
204
218
214
220
219
213
223
225
218
195
78
31
27
169
214
209
227
227
228
227
228
223
221
230
233
231
229
226
225
229
228
187
205
202
183
73
68
68
68
62
62
59
59
62
56
56
56
56
52
48
52
52
48
48
48
43
43
48
27
95
181
155
87
59
68
73
70
69
69
71
79
84
89
78
137
167
85
89
234
252
249
249
251
227
171
199
127
81
87
79
70
185
227
227
191
197
216
214
217
213
221
225
221
204
191
71
23
48
183
215
225
225
227
229
225
219
225
233
234
233
231
231
229
228
227
228
191
206
201
178
70
70
68
68
64
64
62
59
56
59
59
56
56
48
48
52
52
43
43
52
52
52
43
31
169
159
152
93
62
70
73
69
68
70
74
78
89
98
81
169
161
74
189
251
251
250
251
240
163
219
172
84
87
79
75
199
229
228
228
227
217
214
216
219
223
226
223
212
200
181
66
23
62
185
221
225
227
227
228
223
231
232
230
233
233
232
232
231
228
227
227
199
206
201
170
69
69
68
68
64
62
59
59
56
56
59
59
56
52
48
52
52
43
48
48
56
56
39
69
167
79
137
110
68
75
73
69
68
71
75
78
102
95
89
186
137
95
243
253
249
250
249
190
216
201
93
89
85
85
212
230
224
228
229
225
211
214
220
223
227
223
216
201
193
170
62
27
66
191
217
216
217
228
232
232
208
93
137
215
233
233
232
230
227
223
224
207
205
199
159
69
68
68
66
66
62
59
62
59
56
59
59
52
52
52
52
48
48
48
48
48
48
39
78
131
66
91
152
79
74
70
70
69
71
73
81
121
89
127
192
78
233
253
249
250
252
229
195
233
183
89
89
91
209
229
225
227
229
230
219
212
217
223
228
225
215
203
197
192
166
48
27
73
193
217
206
219
227
213
176
39
7
43
192
231
233
231
228
223
223
227
212
202
196
131
69
64
68
64
64
62
62
62
59
59
59
56
52
52
48
52
52
48
48
48
52
52
43
91
165
71
74
159
121
74
70
69
69
73
75
84
137
110
188
163
201
251
251
249
251
242
180
235
239
211
121
188
206
226
226
225
227
228
226
215
215
219
226
227
216
205
200
192
191
152
43
35
77
194
206
200
212
182
85
27
23
35
59
187
225
233
232
227
227
229
225
215
202
195
121
68
66
66
64
64
62
62
62
56
56
59
56
48
52
52
52
48
48
48
48
56
59
35
127
176
68
64
166
157
71
70
69
71
73
77
84
165
190
194
169
245
252
249
250
249
198
216
244
249
227
192
223
223
219
225
224
229
227
223
214
219
224
228
218
205
201
195
189
186
106
27
48
91
191
188
200
176
70
23
23
27
31
48
175
217
232
233
230
232
231
228
216
201
194
110
66
68
66
64
64
59
62
62
56
56
59
59
52
52
52
48
48
48
52
52
52
52
31
157
176
71
56
142
155
74
71
70
73
74
82
98
193
203
172
238
255
250
250
252
233
178
239
252
253
247
230
214
220
225
225
225
228
230
223
212
221
227
223
207
201
195
187
187
180
87
27
48
91
172
186
188
75
35
35
27
23
18
78
157
198
229
234
233
232
232
231
218
198
191
93
64
68
66
64
62
59
62
59
56
64
68
64
56
52
43
48
48
43
48
52
64
66
62
170
174
74
66
93
142
79
70
71
73
77
87
142
205
216
233
252
251
249
252
245
179
214
240
252
253
255
248
231
215
223
224
225
228
227
212
212
222
223
206
197
195
179
170
171
175
85
23
52
75
106
180
89
48
27
27
31
23
31
74
69
172
216
233
234
233
232
232
221
197
185
85
64
68
64
62
59
59
59
64
69
68
64
64
64
64
52
48
48
52
52
70
79
78
79
175
171
75
66
75
137
91
74
74
77
82
95
165
234
249
253
252
251
250
252
216
179
212
240
249
255
253
255
252
239
216
224
227
224
218
209
215
221
212
198
191
183
169
166
159
166
71
23
43
52
75
131
52
31
27
27
20
27
23
31
52
91
190
230
234
233
233
231
216
197
183
87
62
66
64
62
59
64
68
69
62
48
52
56
56
64
64
64
52
52
48
69
78
81
77
193
181
73
68
70
137
121
77
74
77
95
85
212
251
255
253
252
251
252
235
178
182
232
246
250
255
255
253
255
252
235
219
225
224
215
210
219
215
202
194
181
172
166
169
179
163
68
23
43
43
59
68
27
27
27
20
20
23
23
39
43
56
137
216
231
232
231
231
211
195
182
84
62
68
64
62
69
70
62
52
56
56
52
52
52
56
62
68
64
56
48
66
78
75
131
229
167
74
68
62
110
137
75
77
79
82
110
243
255
255
255
255
255
243
181
161
183
236
252
252
253
255
253
255
255
248
229
223
227
212
211
210
201
196
192
174
167
171
179
180
147
59
27
35
43
48
43
27
27
23
18
20
20
20
35
39
39
70
191
228
230
230
229
205
194
181
79
59
66
70
71
64
59
56
59
52
52
56
52
52
48
48
59
64
69
66
62
74
74
204
212
121
73
71
64
85
137
81
75
68
165
239
253
255
253
253
253
255
248
242
238
222
232
234
230
243
253
255
255
255
255
244
226
220
208
205
199
189
191
185
171
176
183
166
165
131
56
31
27
35
35
43
31
23
23
20
20
20
20
31
39
39
31
137
213
230
230
229
199
191
178
77
69
74
69
62
59
59
59
59
59
56
56
56
48
52
52
52
52
64
68
69
73
91
210
186
98
73
70
68
75
131
87
70
127
244
255
252
246
243
247
249
252
255
253
255
247
216
170
106
199
247
255
255
255
253
255
241
214
202
199
191
182
185
182
179
186
178
159
159
106
39
20
31
23
23
39
31
27
23
20
18
16
20
27
27
35
31
66
195
227
225
225
194
191
172
78
68
59
59
59
59
56
59
62
56
48
48
56
56
52
52
56
48
52
59
66
64
147
216
176
102
73
71
69
73
110
95
59
188
249
255
255
237
220
231
236
242
247
251
253
252
229
161
137
147
238
252
255
255
255
255
253
237
193
193
200
199
172
176
176
176
165
152
115
87
39
27
31
20
20
35
23
23
23
16
16
16
20
31
23
35
27
16
188
219
216
216
192
191
163
68
62
59
62
59
62
59
59
56
52
52
52
52
48
48
56
56
52
52
59
59
48
190
212
179
127
74
73
74
73
93
131
66
155
246
249
248
234
181
181
186
199
218
233
241
241
208
167
155
95
225
250
255
255
255
255
255
252
237
201
200
218
209
196
180
161
161
87
75
75
39
31
23
23
20
31
27
23
20
14
14
14
20
20
27
7
7
178
205
201
208
209
191
188
155
62
66
62
62
62
59
59
59
56
56
56
52
52
52
48
52
56
56
56
62
62
64
197
200
170
147
87
69
68
73
81
89
110
239
245
240
245
219
176
205
232
231
227
215
216
231
194
170
159
93
189
242
251
253
253
255
253
255
253
228
161
163
207
230
220
188
152
35
70
74
27
27
31
20
20
23
27
23
20
18
13
5
1
1
31
152
212
218
186
194
203
208
188
184
142
62
62
64
62
62
59
59
59
59
56
52
52
56
52
48
52
52
59
56
64
66
73
174
178
131
127
137
127
127
66
115
225
243
253
245
243
249
244
222
225
240
246
249
247
245
247
213
142
142
110
127
199
232
241
251
253
253
252
237
194
193
161
161
188
222
231
216
180
110
59
23
16
9
9
16
27
20
23
20
11
20
95
176
199
223
234
220
178
185
201
209
216
188
186
155
62
64
62
62
59
56
56
56
56
52
52
52
52
56
52
56
56
59
64
64
52
79
220
238
240
221
179
206
233
234
244
249
251
248
247
240
245
244
235
225
199
220
238
250
252
251
221
115
131
110
98
93
98
193
238
247
247
239
152
152
172
193
181
98
176
226
233
234
216
137
35
81
171
127
14
1
20
23
18
11
171
219
205
191
180
115
77
81
157
196
221
227
186
193
137
56
64
59
62
62
56
56
52
52
52
52
52
52
48
52
56
62
62
66
48
152
233
255
255
255
249
233
199
239
253
255
252
247
246
237
197
196
192
201
204
184
184
223
234
239
236
194
137
131
106
98
102
93
93
187
231
242
225
31
64
127
203
216
191
147
170
205
230
225
183
62
167
192
196
186
131
39
3
0
13
71
59
23
13
7
5
3
7
31
75
170
197
187
192
89
56
56
48
56
56
56
56
52
52
52
52
56
56
52
59
56
59
64
52
159
227
245
255
253
255
255
250
241
244
251
253
253
248
243
239
240
230
208
197
179
170
189
204
195
188
179
166
165
155
147
102
95
91
87
87
216
242
171
23
62
95
180
194
190
155
106
187
206
198
131
48
85
199
235
231
170
11
75
184
71
0
11
5
11
7
16
23
31
13
7
13
43
188
184
78
52
59
56
56
52
52
52
52
52
52
48
52
52
56
56
62
64
62
68
197
237
251
251
255
255
253
252
252
252
252
248
244
240
239
241
242
236
250
236
187
182
176
182
185
176
161
165
161
161
157
155
127
110
91
95
220
213
31
66
59
68
75
110
166
185
198
190
175
106
71
70
166
190
212
191
77
163
233
235
207
74
9
166
205
207
210
211
204
197
89
0
9
187
166
64
56
56
52
52
52
52
52
52
52
52
48
48
48
52
59
62
62
27
186
231
247
252
247
248
252
251
249
248
248
248
243
236
232
238
236
224
232
230
194
190
180
172
183
192
180
159
155
155
157
159
155
137
121
102
102
175
64
39
52
52
48
43
69
157
188
192
176
171
106
68
89
64
1
27
77
142
186
170
131
91
85
74
186
216
188
179
185
189
147
82
78
0
187
161
56
48
52
52
52
52
48
48
48
48
48
43
48
48
52
52
52
35
205
233
231
249
255
249
246
244
243
242
242
244
249
247
233
221
234
194
213
238
205
182
181
180
175
185
194
185
174
167
163
163
159
152
147
131
102
98
77
39
56
39
43
43
43
64
95
121
157
181
174
93
87
79
3
27
172
200
152
0
0
0
31
81
98
87
74
0
3
14
11
11
205
204
127
190
157
56
43
39
39
43
39
43
43
39
39
43
43
48
48
56
52
27
202
236
191
215
251
255
253
253
247
245
247
248
250
252
244
216
222
208
110
242
247
225
121
155
167
176
183
186
185
175
169
166
163
159
161
152
131
102
115
66
52
52
39
43
39
31
52
59
66
155
199
197
93
71
20
68
205
218
221
219
186
127
194
229
197
155
78
7
13
102
142
62
183
222
207
199
194
163
87
87
89
89
91
89
93
95
98
102
110
121
137
152
166
167
206
234
208
78
219
250
255
253
252
251
252
252
251
252
248
238
232
216
191
210
242
223
74
87
89
85
87
102
152
174
176
167
167
165
159
155
152
152
137
93
48
43
43
35
39
35
31
35
31
62
106
182
194
163
20
48
205
210
204
206
212
223
229
231
229
216
179
82
14
31
174
216
225
216
208
197
192
190
170
167
171
169
169
169
171
171
170
170
171
172
175
175
176
178
188
227
211
161
16
198
248
253
249
246
246
246
247
247
246
240
244
247
223
225
240
212
98
102
95
91
82
74
69
70
84
87
82
82
93
115
131
137
137
131
79
43
48
48
43
35
35
31
31
35
43
62
121
185
182
165
196
205
202
210
207
204
211
218
221
228
227
206
85
9
11
64
167
188
196
207
195
188
187
167
165
166
166
165
167
170
169
166
166
166
170
167
169
170
166
179
199
188
79
27
169
241
250
249
241
241
242
240
237
229
240
252
240
205
237
226
98
102
98
93
93
84
78
71
43
91
81
48
43
56
64
69
71
69
64
48
48
52
43
43
39
35
31
39
31
27
35
79
178
197
194
197
210
214
213
209
200
201
206
219
227
228
224
183
35
0
13
39
82
179
205
199
192
190
171
165
166
166
163
170
172
171
170
171
172
174
174
176
176
178
188
190
184
73
48
84
227
244
246
223
216
233
223
191
197
245
242
229
232
229
106
98
106
95
93
85
82
79
52
84
195
155
48
52
48
39
35
39
31
27
48
56
52
39
39
43
39
35
39
35
23
31
84
174
191
195
207
207
202
212
215
215
211
211
221
223
223
226
227
211
170
18
11
62
147
198
205
195
192
169
165
165
166
166
170
171
174
174
174
175
176
178
180
183
187
191
205
208
77
62
68
205
239
236
155
186
193
165
147
231
240
225
227
234
131
98
115
98
95
85
78
79
68
59
102
182
95
35
52
43
43
39
39
35
27
43
43
39
39
23
31
39
35
27
23
18
18
74
172
163
85
70
39
62
73
87
115
152
171
189
201
215
223
227
229
229
185
20
7
77
184
211
203
187
163
166
165
165
165
167
171
174
174
176
176
178
179
180
184
188
192
210
203
79
62
74
218
231
202
197
191
191
187
192
224
210
218
235
201
82
102
98
84
78
74
77
69
43
56
73
131
59
35
43
43
39
31
35
43
39
35
31
31
31
31
31
31
27
31
23
23
14
43
121
185
171
121
85
18
0
0
1
11
7
16
64
87
165
191
219
229
229
197
89
23
91
204
211
185
165
166
165
163
165
167
171
174
174
176
176
179
180
180
184
190
190
199
200
79
62
73
193
172
191
238
185
208
234
190
172
197
229
229
102
81
84
84
79
73
75
69
48
35
59
66
52
27
39
39
31
31
35
35
35
27
35
43
35
23
27
27
27
27
27
23
16
20
14
62
167
200
213
208
182
106
71
39
14
11
9
9
1
9
39
85
186
227
232
227
196
175
201
212
188
163
163
163
161
165
169
170
171
174
176
176
179
180
180
182
187
191
193
188
77
68
62
77
79
221
236
186
222
214
179
208
218
230
190
74
78
78
77
71
74
68
62
35
35
56
43
43
39
35
35
35
31
27
31
31
31
35
27
27
20
20
18
18
20
18
16
18
20
16
14
43
74
79
91
110
137
152
95
59
18
18
16
16
11
1
0
27
137
172
184
196
187
161
188
189
165
163
161
165
163
166
170
170
172
175
178
179
180
181
184
187
189
193
171
56
66
66
35
172
218
197
214
231
233
201
244
243
220
102
75
78
75
74
71
68
62
52
31
43
56
59
48
39
35
35
31
27
31
35
35
62
31
23
27
27
18
16
18
18
18
18
18
18
18
14
13
9
9
7
11
18
27
31
27
23
20
20
23
39
52
59
68
66
68
71
66
18
39
152
184
159
163
161
163
161
163
166
169
170
172
176
179
179
179
181
183
186
190
142
66
73
64
35
161
137
178
239
241
242
244
248
249
207
71
79
73
74
69
71
62
48
39
31
43
52
56
48
43
39
35
31
27
23
31
43
52
23
31
52
52
18
16
14
14
14
16
16
18
18
16
14
13
16
16
18
14
14
16
16
16
16
18
18
31
48
62
70
84
98
110
87
71
43
56
174
142
163
161
161
163
161
163
166
167
170
174
176
178
179
180
179
182
183
176
183
78
48
52
66
62
213
244
245
248
250
249
247
187
73
78
74
70
69
68
48
39
31
31
52
52
52
52
48
39
39
31
20
18
31
39
31
18
27
59
39
14
13
14
14
14
14
13
14
14
14
14
14
14
16
16
18
16
14
13
16
16
16
14
14
13
13
16
11
13
14
14
11
11
13
167
131
165
161
161
163
161
163
163
163
167
170
174
175
176
176
176
178
176
183
188
68
56
56
56
56
231
245
247
242
244
249
235
98
75
75
73
66
66
48
39
35
31
48
59
48
43
52
43
39
31
23
20
23
27
27
23
18
16
35
18
13
14
13
13
13
13
11
11
13
13
14
14
13
13
13
16
14
16
14
14
13
14
14
14
14
13
13
16
14
11
13
14
14
13
159
127
165
161
159
161
161
161
163
163
163
167
171
172
174
174
175
176
175
182
183
62
48
43
43
69
234
245
246
242
247
247
191
75
81
78
70
64
48
35
43
31
39
62
59
48
48
48
43
35
23
23
20
23
27
27
23
18
16
23
16
11
14
11
13
11
13
11
11
11
11
13
11
11
11
9
11
9
11
13
16
14
14
13
13
14
13
11
14
11
13
13
13
13
13
152
127
167
161
159
161
159
159
159
161
163
165
167
169
170
171
175
176
172
183
180
56
56
52
43
69
234
245
246
247
248
232
84
79
81
77
64
48
35
35
43
27
43
62
52
39
43
43
43
31
27
23
16
20
31
27
23
16
16
27
20
11
11
11
13
11
11
11
11
11
9
9
9
9
9
9
9
9
9
9
9
11
13
11
11
11
11
11
13
11
11
9
11
11
11
137
131
169
163
159
159
159
157
157
161
161
163
163
165
166
167
170
174
169
190
182
43
52
56
39
68
230
245
246
247
242
174
75
79
78
71
43
31
43
56
43
31
48
52
48
39
39
43
35
35
27
20
20
23
27
27
23
16
13
20
23
16
13
13
13
11
11
11
11
11
9
9
9
11
11
11
9
7
7
7
5
7
7
7
7
7
9
11
11
11
11
11
11
9
9
127
137
169
161
159
159
159
157
157
161
161
163
161
165
165
166
167
171
165
200
171
35
43
35
20
66
232
245
246
244
201
79
84
84
74
48
31
52
52
52
39
23
52
52
48
39
39
35
39
27
27
27
27
31
35
35
18
16
13
13
18
14
14
16
14
13
11
9
9
9
9
9
9
9
9
9
7
9
7
7
5
5
5
5
7
5
5
7
9
7
5
7
9
11
9
110
147
170
163
161
161
161
157
155
159
159
159
161
163
163
163
166
163
185
211
95
39
39
48
106
185
214
242
242
205
77
84
121
195
166
31
43
59
52
74
31
31
56
43
52
52
43
31
31
27
27
27
35
35
39
27
18
16
13
13
18
20
18
16
14
16
16
9
7
11
9
9
7
7
9
7
7
9
7
9
7
5
7
7
7
5
7
5
3
3
3
5
5
5
5
98
152
169
165
161
161
157
159
159
157
157
159
161
161
161
161
165
163
190
180
78
74
27
147
196
181
165
229
198
102
152
157
172
210
174
31
59
56
69
75
18
31
56
59
68
68
52
31
27
27
31
23
31
35
35
27
20
16
13
11
14
16
14
18
16
16
23
27
7
11
7
11
9
7
9
9
7
9
9
5
7
5
5
7
5
7
5
5
3
3
3
3
3
3
3
95
155
169
166
165
157
157
159
159
157
159
159
159
159
159
161
161
161
169
137
115
127
102
175
186
166
161
178
165
174
171
166
159
178
78
48
62
43
75
70
14
39
56
64
68
70
56
23
31
23
35
27
27
31
31
23
20
16
13
11
13
13
14
20
14
14
39
70
31
3
13
7
9
9
7
7
7
9
9
9
7
5
5
5
5
5
5
5
5
5
3
3
3
3
3
89
152
169
166
161
161
159
155
157
157
157
159
159
159
159
161
161
161
163
159
167
163
169
167
171
176
176
170
174
169
166
161
161
121
59
66
39
62
85
66
16
43
43
52
56
62
43
27
35
27
31
31
39
35
23
23
18
16
13
13
13
13
14
23
23
14
18
75
81
16
7
7
9
9
9
9
9
7
9
7
9
7
7
5
7
5
5
5
5
5
3
3
3
1
1
93
155
166
166
165
163
157
155
155
157
157
155
157
155
155
159
159
155
159
157
161
163
166
167
171
172
171
171
169
163
161
157
155
152
84
68
74
93
147
66
20
35
39
43
35
35
39
27
39
31
31
27
43
39
23
20
18
16
14
13
14
14
16
20
27
16
11
56
82
74
9
9
9
9
9
11
9
9
11
7
9
9
5
5
3
5
3
5
3
3
3
3
3
1
1
79
147
163
166
166
163
157
155
155
157
155
152
152
152
152
152
157
152
152
157
159
165
165
169
171
170
170
166
166
165
159
147
152
181
188
182
193
175
179
35
20
35
39
39
43
35
35
35
35
31
31
23
43
43
23
20
18
14
13
13
16
16
16
20
20
20
13
18
71
131
59
1
7
11
11
11
9
9
9
11
7
7
7
5
5
5
5
5
5
3
3
3
3
3
1
69
137
161
165
163
161
159
155
155
157
155
147
152
155
152
155
155
155
157
159
159
163
167
169
170
167
169
165
161
155
152
137
165
192
197
205
193
181
171
16
18
23
35
39
43
39
43
39
35
35
27
18
48
52
20
23
16
14
13
14
16
18
18
20
27
20
14
14
59
161
131
7
5
9
11
9
9
9
5
7
7
9
9
7
7
5
5
5
5
5
5
3
3
3
1
93
159
161
163
163
161
155
157
155
155
152
147
147
147
147
152
152
155
155
155
161
165
166
167
169
163
163
157
155
147
147
127
172
193
197
200
184
187
110
13
16
23
31
35
48
48
43
43
39
27
20
16
48
52
20
23
18
16
16
16
18
18
18
27
20
18
18
16
48
161
185
95
11
0
0
1
1
9
9
3
1
5
5
7
5
7
5
5
5
5
5
3
3
3
1
131
157
157
159
159
159
157
159
152
152
152
152
147
142
152
155
157
155
152
155
161
163
163
165
165
161
157
152
155
147
142
131
178
194
196
190
178
184
56
11
14
23
35
52
59
52
48
48
43
27
16
13
48
66
35
31
16
14
16
20
18
20
27
23
23
20
20
14
48
152
198
207
191
102
73
85
87
159
174
131
77
43
13
3
9
5
5
5
3
3
5
3
3
1
3
131
155
155
157
161
161
159
157
155
147
142
142
147
152
152
152
152
152
155
157
161
163
161
159
159
157
155
147
152
142
131
142
188
197
192
183
186
176
14
13
16
48
52
64
69
56
35
52
39
23
18
13
69
84
62
48
18
13
16
23
20
20
23
23
23
20
20
16
59
155
197
219
229
220
205
203
198
199
208
213
204
197
165
39
0
11
5
7
5
5
5
3
1
1
1
127
147
152
159
157
155
155
157
147
142
137
137
137
137
137
147
147
147
155
159
159
161
159
157
155
152
147
142
142
137
131
155
192
197
188
179
194
155
9
18
56
59
64
87
78
59
52
39
35
18
18
14
82
171
84
70
18
14
18
27
23
27
23
20
20
27
20
16
69
166
198
219
228
229
220
207
209
203
204
208
219
215
197
165
27
0
7
5
5
3
3
3
1
1
3
127
137
147
155
155
155
155
157
147
147
147
147
147
142
142
152
152
152
155
159
161
161
159
157
152
147
142
137
137
142
131
166
192
197
182
183
199
110
18
43
56
52
85
115
75
56
43
31
35
31
20
9
137
199
155
79
31
16
20
23
23
27
23
18
23
20
18
35
87
180
201
217
228
229
226
223
221
217
205
205
210
204
202
191
102
3
5
7
5
5
3
3
1
1
1
131
142
152
152
157
159
155
157
152
152
147
147
147
147
147
152
155
155
155
157
159
157
157
155
152
142
137
137
127
137
131
171
194
192
183
191
199
95
20
43
43
62
73
69
48
39
27
27
31
20
23
13
169
208
167
93
62
18
18
27
31
20
23
20
23
20
23
69
142
189
208
218
227
228
223
224
226
225
219
213
209
205
200
194
169
23
3
9
5
5
3
3
1
1
1
137
142
142
137
152
157
155
155
155
147
142
147
147
147
147
152
152
152
152
152
155
155
152
142
137
142
127
131
127
131
131
176
196
188
187
195
197
74
16
27
27
35
35
39
35
27
31
27
27
18
20
14
170
209
178
157
74
27
18
35
43
23
27
23
20
20
52
82
171
198
213
220
225
228
223
214
220
227
228
219
206
201
197
189
181
77
1
7
5
3
3
1
1
1
1
131
84
70
68
75
95
152
157
152
152
147
147
147
147
147
152
147
147
147
147
147
147
142
137
137
131
121
127
131
127
137
179
195
188
187
199
182
20
59
62
43
31
31
31
27
31
23
27
23
23
20
13
157
206
183
166
121
64
31
59
62
48
39
27
20
31
68
115
184
205
219
221
224
228
225
212
206
219
225
224
214
201
197
182
192
175
18
3
5
5
3
1
1
1
0
68
31
27
43
39
69
127
157
152
147
147
152
147
147
147
147
147
142
147
147
142
142
137
127
121
127
121
127
131
127
137
181
193
190
185
197
110
13
85
106
106
121
70
31
23
27
18
20
23
23
20
16
142
197
186
191
179
87
59
73
70
64
48
35
35
59
77
155
187
206
219
220
224
225
227
218
207
209
225
229
216
202
190
183
205
181
14
1
3
3
3
1
1
1
0
27
31
43
56
35
52
131
161
155
127
127
121
147
155
142
137
147
152
147
137
131
131
137
127
127
127
127
115
121
121
131
182
193
188
188
191
84
9
87
189
205
205
180
106
74
56
59
70
59
39
35
27
95
211
208
192
174
115
75
89
85
73
69
43
56
70
91
163
187
206
215
220
223
222
225
226
217
209
218
223
220
211
188
194
197
131
39
3
5
3
3
0
1
3
1
35
31
35
35
35
89
163
142
75
62
59
69
84
131
142
137
142
127
127
142
131
127
127
115
127
121
121
115
121
115
131
184
191
186
187
191
81
1
73
191
211
216
207
194
184
178
169
155
87
75
69
23
142
221
196
190
184
157
102
137
110
89
82
73
77
85
115
166
187
202
208
219
223
224
225
225
221
210
210
219
225
211
200
197
186
157
81
0
3
3
5
3
1
3
0
77
69
35
23
64
89
106
62
23
31
43
43
62
98
137
127
152
137
137
131
115
121
127
110
115
115
115
115
121
115
137
185
191
184
191
191
62
0
27
110
190
210
212
213
217
213
205
194
188
180
169
85
106
216
205
197
193
172
127
152
157
155
137
106
121
155
166
172
181
194
204
215
223
223
223
227
224
214
202
210
209
218
219
203
161
167
87
0
5
3
5
1
1
1
1
137
77
23
31
39
56
52
27
35
39
39
39
52
110
127
131
91
85
87
110
137
131
110
115
110
115
110
115
121
115
131
182
186
184
192
176
35
3
11
35
115
182
201
212
215
215
216
216
213
205
201
142
93
221
213
203
201
187
152
142
165
170
171
170
175
182
182
179
178
183
194
207
218
223
223
225
225
219
211
207
213
228
219
199
159
174
85
3
3
3
5
3
1
1
1
77
31
31
35
39
43
31
39
35
31
35
43
89
152
95
56
31
35
56
71
110
127
106
102
110
110
115
115
115
110
121
178
184
183
179
152
48
9
13
13
31
93
182
204
215
214
208
206
203
199
198
110
79
215
216
202
205
196
167
157
172
176
181
185
193
198
194
190
186
180
184
197
207
214
221
223
223
224
216
207
208
210
217
201
170
175
77
0
3
3
5
3
1
1
1
23
27
23
31
35
27
73
95
74
48
23
56
78
84
43
18
31
39
35
52
93
121
110
110
110
110
110
110
115
110
121
178
181
175
167
152
59
9
16
14
14
39
89
178
199
208
205
200
197
189
185
87
66
204
214
198
203
198
178
166
172
178
187
193
201
206
205
198
193
191
184
188
197
207
219
222
225
224
216
202
201
210
209
193
175
169
127
11
3
5
3
1
1
1
1
43
56
35
31
20
52
115
142
74
31
39
43
52
39
31
35
31
39
39
56
106
127
102
84
78
81
93
110
121
115
121
176
172
165
165
157
77
31
18
13
20
20
39
84
176
197
201
197
189
183
169
78
52
195
211
196
199
197
185
175
176
181
188
194
201
209
210
200
194
197
188
181
191
203
212
220
223
224
222
219
214
204
198
200
187
188
179
23
3
5
3
3
3
3
0
