P2
# CREATOR: ImageProcessing v0.1 - hfabioen UNIVALLE
95 127
255
53
54
55
56
56
55
57
88
99
97
65
55
58
58
79
133
150
131
76
59
56
57
57
59
61
62
61
59
58
58
58
58
58
58
58
58
59
59
58
58
58
58
59
59
59
58
58
58
58
57
57
57
57
56
56
56
55
55
55
55
55
55
54
54
54
54
54
53
53
52
52
53
52
53
53
53
53
52
52
52
52
51
50
50
50
49
49
48
47
47
48
48
48
47
47
54
54
55
56
56
55
58
89
99
95
64
56
57
58
89
138
148
120
70
59
57
58
58
59
60
61
61
59
58
58
58
58
58
58
58
58
58
59
58
58
58
58
59
59
59
58
58
58
58
57
57
57
57
56
56
56
55
55
55
55
55
55
54
54
54
54
54
53
53
52
52
53
53
53
53
53
53
52
52
52
51
51
50
50
50
49
49
48
48
47
48
48
48
48
47
54
55
55
56
56
55
62
92
98
91
60
57
57
61
106
142
136
92
57
58
57
56
56
57
57
58
58
58
58
58
58
58
58
57
57
58
58
58
58
58
58
58
59
59
59
58
58
58
58
57
57
57
56
56
56
56
56
55
55
55
55
55
54
54
53
54
53
53
53
52
52
52
53
52
52
53
52
52
52
52
51
51
50
50
50
49
49
48
48
48
48
48
48
47
47
54
55
55
56
56
54
65
94
97
86
58
57
56
73
128
148
128
73
54
58
57
56
56
56
57
57
57
57
57
57
57
58
57
57
57
57
57
58
57
58
58
58
58
58
59
58
58
58
58
57
57
56
56
56
56
56
55
55
55
55
54
54
53
53
53
53
53
53
53
52
53
53
52
52
52
52
52
51
51
51
51
50
50
50
50
50
50
49
49
48
48
49
48
49
47
54
54
55
55
55
54
69
95
96
81
55
56
57
92
143
148
113
62
56
58
57
56
56
56
57
57
57
57
57
57
57
57
57
57
57
57
57
57
57
57
58
58
58
58
58
58
58
58
58
58
57
56
56
56
56
56
55
55
55
55
54
53
53
53
53
53
53
53
53
53
53
52
52
51
51
51
51
51
51
50
50
50
50
50
50
50
50
49
49
49
49
48
48
48
48
53
54
54
55
55
53
71
94
94
76
54
55
64
113
152
144
94
57
57
57
57
56
56
56
56
57
57
56
56
56
56
56
56
57
57
57
57
57
57
57
57
57
58
58
58
58
58
58
58
58
57
57
56
56
55
55
55
55
55
54
54
53
53
53
53
53
53
52
53
53
53
52
52
51
50
51
51
51
51
50
50
50
50
50
50
50
50
49
49
49
48
48
48
49
47
53
54
55
55
54
53
73
93
92
72
53
54
76
133
155
132
76
55
57
57
56
56
56
56
56
56
56
56
56
56
56
56
56
56
56
57
57
57
56
57
57
58
58
58
58
58
58
58
58
58
57
57
56
56
55
55
55
55
55
54
54
53
53
53
53
53
52
52
52
52
53
52
52
51
50
50
50
50
50
50
50
50
50
50
49
50
49
49
49
49
49
48
48
48
47
54
55
55
54
53
54
75
91
89
68
53
56
93
145
153
114
63
55
56
56
56
55
55
55
56
56
56
55
55
55
56
56
56
56
56
56
56
55
55
56
57
58
58
58
58
58
57
57
57
57
57
57
56
56
56
56
55
55
55
55
54
53
52
52
52
52
52
52
52
52
52
52
52
51
51
51
50
50
50
50
50
50
49
49
49
49
49
49
48
48
48
48
47
48
47
55
55
54
54
53
55
77
92
89
67
52
64
114
152
144
93
56
55
56
56
55
55
55
55
55
55
55
55
55
56
56
56
55
56
56
58
59
60
59
57
57
57
58
57
57
57
57
57
56
57
56
56
56
56
56
56
56
56
55
55
54
53
52
52
52
52
52
52
52
52
52
52
52
51
51
51
50
50
50
50
50
49
49
49
48
48
48
48
48
48
48
47
47
47
46
54
54
54
54
53
56
79
93
89
66
53
78
133
153
128
74
54
55
55
55
55
55
55
55
55
55
55
55
55
55
55
57
67
75
76
76
75
78
70
63
57
55
57
58
57
57
57
56
56
56
56
56
56
56
56
56
56
56
55
55
54
54
53
52
52
52
52
52
52
52
52
52
52
51
51
51
51
51
50
50
50
49
48
48
48
48
48
48
47
47
47
46
46
45
45
54
54
54
54
53
57
80
93
89
65
55
98
146
150
108
61
54
55
55
55
55
55
55
55
55
55
55
55
55
61
65
74
86
90
85
79
80
88
84
78
70
67
65
63
60
59
58
57
56
56
56
55
55
55
55
56
56
56
55
55
54
54
53
53
52
52
52
52
52
52
52
52
52
51
51
51
51
50
50
50
49
49
48
48
48
48
48
48
48
47
47
46
45
45
44
55
55
55
55
54
58
82
94
88
63
63
118
150
140
87
56
55
55
55
55
54
55
55
55
56
56
55
55
62
74
84
89
95
92
88
86
96
110
113
110
99
86
77
72
70
68
63
59
57
56
56
56
55
56
56
56
56
56
55
55
55
54
53
53
52
52
52
52
52
52
53
52
52
52
51
51
50
50
50
49
49
49
49
49
48
48
48
48
48
48
47
46
45
44
44
56
56
56
56
54
59
83
95
88
62
77
133
149
123
69
53
55
55
55
55
54
55
55
55
56
56
55
61
74
95
107
105
91
75
72
77
91
104
112
112
107
100
94
91
87
80
70
62
57
56
56
56
56
56
56
56
56
56
55
55
55
55
54
53
53
52
52
52
52
52
52
52
52
52
52
51
50
50
50
49
49
49
49
49
48
48
48
48
48
48
47
46
45
45
44
57
57
57
57
55
61
85
96
88
65
96
142
144
102
58
53
54
54
54
54
54
54
54
55
55
55
58
75
94
112
111
94
77
67
74
79
85
95
105
109
108
100
95
95
97
94
83
69
60
55
55
56
56
56
56
56
56
56
56
55
54
54
54
53
53
53
52
52
52
52
52
52
52
52
52
52
51
51
50
50
50
50
49
49
48
48
48
48
48
47
47
46
45
44
44
55
55
56
56
54
62
87
97
88
72
116
146
135
82
54
53
53
53
53
54
53
53
54
54
54
57
74
100
111
107
90
78
73
75
82
77
75
86
102
112
110
106
99
99
99
98
86
71
59
54
55
57
57
56
57
57
56
56
56
56
55
54
54
53
53
53
53
53
52
52
52
52
52
52
52
52
51
51
50
50
50
50
49
49
48
48
48
48
48
47
46
46
45
45
44
49
49
49
49
47
58
86
96
86
85
131
146
122
68
56
55
54
54
53
53
53
53
53
53
54
66
93
115
112
90
68
59
62
75
87
84
86
98
120
132
130
120
106
99
98
98
88
70
56
53
56
58
57
57
57
57
56
56
56
56
55
55
54
53
53
53
53
53
52
52
52
53
53
53
52
52
51
50
50
50
50
50
49
49
48
48
48
48
47
47
46
45
45
45
45
42
43
43
42
39
50
80
91
84
100
139
142
102
60
58
58
57
56
55
55
54
54
53
54
60
80
105
111
94
67
52
55
63
78
91
98
107
117
132
138
125
117
111
112
109
100
86
68
54
53
54
57
57
58
58
57
56
56
56
56
56
56
55
54
54
54
53
53
52
52
52
53
53
53
53
52
52
50
49
49
49
49
48
48
48
48
48
48
47
46
46
45
45
45
44
39
39
38
36
32
44
73
85
88
118
143
131
78
51
54
55
56
57
57
57
57
57
56
57
69
90
101
91
71
59
60
67
73
82
92
101
109
119
127
125
113
111
114
115
113
103
91
72
57
52
50
52
54
57
58
58
57
56
56
56
56
56
55
55
55
54
53
53
53
53
53
52
52
53
53
53
52
51
50
49
49
49
48
47
47
48
48
48
47
47
46
45
45
45
44
39
38
37
36
33
45
72
82
102
135
144
114
58
45
48
49
50
52
53
54
55
57
56
61
79
95
93
74
60
58
69
79
89
90
92
92
101
117
125
120
110
109
115
116
116
108
98
82
66
53
46
46
49
54
57
59
58
58
57
57
56
55
55
54
54
53
53
53
53
53
53
53
52
52
52
52
51
51
50
50
49
49
49
48
48
48
48
47
47
47
46
46
45
45
44
38
37
37
38
38
52
75
88
123
147
142
93
48
45
45
45
46
47
48
49
50
52
53
64
85
98
89
70
60
64
79
91
99
98
93
87
96
122
137
130
121
120
120
113
115
113
106
89
72
57
47
43
42
47
54
58
60
59
59
58
57
56
55
53
53
53
53
53
53
53
53
53
53
53
52
52
51
51
50
50
50
50
50
49
49
49
48
48
48
47
47
46
45
46
45
37
37
39
42
42
57
78
100
142
151
130
73
47
49
49
49
48
48
47
47
47
48
50
67
89
99
86
70
64
71
88
102
111
106
101
95
106
134
146
136
122
118
122
121
121
117
106
89
72
58
49
46
44
46
50
56
60
59
59
58
57
56
55
54
53
53
52
52
52
53
53
53
54
54
53
52
51
51
51
50
50
49
49
49
49
49
49
49
48
48
47
46
45
46
44
37
39
42
46
47
63
81
116
153
147
110
56
44
49
52
54
54
54
53
52
51
51
56
74
92
94
80
69
65
80
99
113
112
107
103
99
104
130
143
138
119
117
119
122
123
118
106
87
69
63
75
93
97
80
61
54
57
58
57
57
57
56
56
55
54
53
53
53
52
52
52
53
53
53
53
52
52
51
51
51
50
50
50
49
49
49
49
49
49
48
48
47
46
44
44
37
41
46
51
52
69
87
133
156
140
89
44
41
46
49
52
55
57
58
58
57
57
67
84
94
89
76
68
68
87
107
114
110
99
97
93
99
116
126
132
125
122
119
121
123
122
110
90
75
88
119
144
144
119
86
62
54
56
56
56
55
55
55
55
54
54
53
53
53
53
52
52
52
52
52
52
52
52
52
52
51
51
50
50
49
48
48
48
48
48
47
47
46
46
44
39
43
49
54
56
74
97
149
155
128
69
40
39
41
44
48
51
55
58
59
59
63
80
92
97
84
76
68
71
89
102
104
92
80
78
79
81
90
98
115
115
114
112
118
128
128
121
104
95
118
148
178
183
167
126
81
56
55
57
56
55
54
53
53
53
53
53
53
53
53
53
52
52
52
51
51
51
51
51
51
51
51
51
50
49
48
48
48
47
47
46
46
45
46
44
42
45
52
56
59
76
110
158
150
111
55
40
40
40
41
43
46
50
54
57
58
66
88
97
97
79
74
69
73
81
88
87
81
71
67
67
65
68
77
94
103
101
106
116
132
134
126
114
111
131
146
172
184
196
168
114
71
55
60
58
57
56
54
53
52
51
51
51
52
53
53
53
53
53
52
52
51
51
50
50
49
49
50
49
49
48
48
48
48
47
46
46
45
43
43
47
50
58
67
72
86
126
158
140
90
48
43
42
41
40
40
42
45
49
53
55
67
98
108
102
78
74
73
70
70
72
73
68
61
57
58
55
60
70
84
86
87
97
117
134
134
125
117
116
127
135
157
171
191
186
144
94
60
57
58
57
57
56
54
53
53
52
52
51
51
52
52
53
53
52
52
51
51
50
50
49
49
49
48
48
49
49
48
48
47
46
46
45
44
44
50
56
72
90
101
112
147
153
126
72
50
50
48
44
40
39
39
41
44
48
51
69
100
114
105
87
78
71
62
58
60
61
59
54
59
63
67
69
79
91
92
91
98
116
130
130
123
114
109
123
143
156
154
158
174
163
120
71
50
51
51
52
54
54
55
55
55
54
54
53
52
52
52
52
52
52
52
51
51
51
50
50
49
49
48
48
48
47
47
46
46
45
45
48
44
52
62
88
114
123
136
157
144
109
62
55
59
55
50
44
40
38
39
41
43
47
67
93
107
103
95
83
70
52
53
57
57
57
61
77
85
89
93
106
117
110
99
98
109
119
122
121
115
112
131
160
163
137
123
153
177
144
86
44
41
42
44
47
49
51
52
54
55
54
54
54
54
53
53
52
52
52
51
51
51
51
51
50
50
49
48
48
47
46
45
44
44
44
44
44
48
59
87
106
107
128
141
128
86
53
56
62
62
57
51
44
40
38
39
39
45
67
84
93
91
91
79
60
45
50
55
55
59
69
86
92
101
113
135
146
136
118
105
103
107
114
119
115
112
135
173
190
163
140
155
181
152
93
46
38
37
39
42
44
46
47
49
50
51
52
53
54
54
54
54
54
53
52
52
52
51
51
51
50
49
49
48
47
46
45
44
43
43
44
44
39
47
65
71
69
94
107
99
61
41
45
51
54
55
52
48
42
39
38
38
42
60
75
82
81
79
68
53
43
49
53
53
56
66
81
87
97
123
155
170
162
143
124
110
106
115
121
118
114
137
181
215
205
180
174
186
156
103
55
41
38
39
41
43
44
45
45
46
46
48
49
50
52
52
52
52
52
53
53
53
53
52
52
51
50
50
49
49
48
47
46
45
45
47
45
29
34
40
37
38
63
78
72
42
28
30
34
38
40
42
40
37
34
34
36
40
54
71
79
76
67
57
50
45
46
45
44
47
54
62
69
88
123
154
175
181
176
161
146
139
144
148
145
135
147
185
227
237
220
204
199
168
119
70
48
43
42
43
45
47
47
47
47
46
46
47
47
48
48
48
48
49
49
50
50
50
50
50
50
50
50
51
50
50
50
49
48
48
47
47
24
26
28
25
31
51
67
58
35
19
19
20
22
24
27
28
28
27
28
31
37
48
66
78
76
62
54
50
46
41
39
39
42
46
56
68
84
110
140
172
195
205
202
194
190
192
193
191
178
175
197
228
247
239
226
216
193
147
96
61
50
44
44
45
47
49
50
51
51
50
49
48
47
47
46
45
44
45
46
47
47
47
48
47
47
47
48
49
49
49
49
49
49
50
49
22
25
27
26
31
51
66
55
32
17
18
17
17
16
17
18
18
19
20
25
31
43
64
79
76
59
50
50
45
38
37
42
48
53
60
67
77
99
131
171
202
222
228
231
232
231
232
232
224
213
218
234
250
250
245
236
218
178
130
85
61
50
47
49
49
49
50
52
54
54
54
53
52
49
49
55
60
57
49
44
44
45
45
43
41
40
42
43
43
44
44
44
44
51
45
22
28
32
46
61
81
76
53
28
17
18
17
17
16
16
16
15
16
16
20
24
35
59
78
78
62
53
51
45
40
44
51
57
60
64
67
73
92
127
169
202
224
238
246
245
241
239
243
244
239
238
242
248
248
244
239
229
204
166
121
87
65
55
55
58
56
52
50
52
55
56
56
57
62
80
106
120
108
79
55
46
44
44
40
37
36
38
39
38
38
38
38
38
35
39
24
33
51
88
113
118
83
46
22
17
18
18
18
17
17
16
16
16
16
17
19
26
47
68
75
71
66
63
56
52
57
62
64
64
66
66
70
88
124
164
197
222
239
244
235
226
226
236
245
247
247
244
241
238
237
237
234
221
194
162
130
99
72
61
65
68
60
51
49
52
55
57
73
100
134
162
173
165
134
95
65
49
44
39
37
37
38
38
37
37
36
35
35
31
35
31
47
85
140
164
144
83
37
18
18
18
18
18
17
17
16
16
16
17
17
17
20
32
49
64
74
83
82
76
67
68
69
68
67
67
67
69
86
120
161
196
219
229
219
201
197
212
233
245
248
246
239
230
224
225
230
232
227
212
195
174
145
107
78
71
75
70
58
49
48
49
58
93
140
181
197
201
200
185
149
105
67
50
41
40
42
44
43
41
40
39
38
38
40
36
48
65
124
174
180
134
68
31
20
20
19
18
18
18
17
17
17
17
17
17
17
17
22
32
44
60
87
102
102
85
76
74
72
71
69
67
69
86
120
158
187
197
191
168
156
173
209
239
248
248
242
232
220
212
213
219
225
227
221
214
206
188
156
116
87
78
76
70
57
51
61
88
130
166
188
190
188
199
206
189
145
90
59
41
43
46
49
48
46
45
44
43
42
41
40
68
87
149
182
170
112
61
36
32
28
23
19
18
19
18
17
17
17
17
17
17
17
18
21
26
36
68
101
115
102
84
77
75
73
71
68
71
87
114
138
151
148
136
117
124
164
215
245
249
246
239
227
215
207
205
210
218
224
224
220
217
215
201
172
128
96
85
81
71
70
96
129
147
156
168
177
178
182
184
174
142
98
61
42
46
51
54
52
51
50
48
47
46
43
44
84
102
151
167
149
103
67
47
37
35
29
22
19
18
18
18
18
17
17
17
17
17
17
17
17
20
42
82
113
116
97
82
76
74
72
70
73
84
98
103
104
99
92
90
116
166
212
236
240
238
233
225
216
207
202
203
209
217
221
220
221
224
227
216
180
132
103
92
92
104
134
155
152
148
158
170
169
157
139
122
106
83
58
43
47
52
55
55
54
53
52
51
49
51
48
93
113
144
145
131
106
83
56
39
41
37
29
21
18
18
18
18
18
18
17
17
17
17
17
17
16
24
53
93
119
113
92
78
74
73
73
77
79
77
71
70
72
73
84
113
156
191
210
218
221
223
223
219
211
203
199
202
208
213
215
219
227
235
238
218
170
130
114
127
143
150
149
143
148
158
167
171
143
102
67
64
63
51
43
46
52
54
54
54
53
53
53
52
53
51
94
114
130
121
109
95
79
49
30
39
41
35
23
17
18
18
18
18
18
18
17
17
18
18
18
18
18
31
67
110
126
110
86
77
76
78
79
75
65
57
59
63
67
78
99
127
149
169
185
199
211
219
220
215
205
197
195
198
202
205
212
223
234
242
235
193
156
141
156
161
149
142
147
158
165
173
179
148
101
57
54
53
48
43
46
52
54
54
54
54
53
52
52
53
52
91
106
115
101
83
70
60
39
29
38
43
38
26
18
19
19
18
18
18
18
18
17
18
18
19
19
18
20
44
93
128
127
99
82
79
80
80
72
61
54
54
57
61
70
82
98
111
133
156
181
199
210
215
213
204
194
188
187
188
192
201
214
228
238
237
205
177
160
164
159
149
153
154
160
166
178
172
141
104
71
58
48
46
42
45
51
54
54
54
53
52
52
51
52
51
108
107
108
79
52
43
37
32
31
38
41
37
27
19
19
19
19
19
19
19
18
18
18
19
19
19
18
17
29
67
106
118
98
79
73
73
72
67
59
52
51
54
61
69
76
82
89
107
136
167
188
199
204
205
199
188
180
172
169
172
185
203
218
229
230
210
184
159
151
149
156
158
148
149
163
174
145
109
88
76
63
47
42
41
44
49
52
52
52
52
51
50
50
49
49
138
115
103
62
39
38
34
35
35
38
39
34
25
19
19
19
19
19
19
19
19
19
18
18
18
19
19
19
22
42
67
80
78
74
72
69
66
66
62
55
52
55
62
69
75
79
83
94
117
149
174
187
190
189
187
179
169
153
142
144
165
190
208
219
219
202
176
153
148
152
156
152
140
147
156
149
104
69
63
68
62
45
38
38
42
47
50
51
50
50
49
49
48
48
48
166
132
102
60
46
46
40
40
39
41
40
35
29
24
22
21
20
19
18
18
18
19
19
18
18
19
19
19
19
25
34
39
52
71
82
78
71
75
72
63
52
53
57
63
71
79
83
88
100
125
153
171
176
172
168
163
153
132
114
117
145
179
202
210
202
183
163
156
157
157
154
147
149
160
150
123
79
53
50
56
60
52
42
38
39
42
46
49
51
51
50
50
49
48
48
161
136
95
71
63
57
43
39
40
42
42
40
36
34
32
29
27
24
22
21
20
19
19
18
18
18
18
19
19
19
19
19
32
65
91
96
86
88
85
73
54
58
76
84
84
78
81
83
86
100
124
148
162
159
150
142
133
113
92
97
131
171
195
195
183
165
161
165
165
161
156
153
157
154
126
90
64
57
61
59
67
67
65
59
49
41
38
40
43
45
47
48
49
51
50
140
130
87
79
71
62
42
34
35
38
40
41
41
41
41
38
36
33
31
29
28
27
25
23
20
19
19
19
19
19
19
18
25
50
80
98
100
103
98
82
71
91
125
123
99
74
76
80
80
84
99
123
145
148
134
120
109
95
80
89
124
165
183
180
167
162
166
169
166
162
166
158
148
125
96
72
62
69
89
88
92
88
95
90
75
59
45
36
32
32
35
37
40
52
42
114
113
77
77
69
58
38
29
29
31
33
35
37
38
40
40
39
38
38
38
38
37
35
30
27
25
25
23
21
20
20
20
20
30
50
76
95
108
110
98
103
128
159
138
98
68
68
75
75
75
82
99
120
129
118
103
91
81
75
90
127
162
176
169
164
165
168
170
168
172
177
153
120
80
67
61
65
80
107
101
103
101
119
120
106
88
69
49
31
22
20
22
26
25
29
85
90
73
81
70
56
35
28
25
25
26
27
29
30
32
32
34
35
37
39
40
42
41
36
33
34
35
32
27
25
25
26
25
24
31
49
73
100
115
113
126
138
146
113
80
63
65
68
68
68
73
84
95
106
104
95
81
72
76
103
144
172
175
171
171
172
172
175
173
165
152
121
87
59
56
56
62
83
108
104
104
106
126
127
122
114
99
77
52
29
17
12
13
10
15
61
72
75
91
76
55
31
27
26
24
24
24
24
24
24
24
26
27
29
31
33
35
35
33
34
37
41
39
35
32
31
33
33
32
31
37
52
77
100
111
125
123
110
82
66
65
66
65
62
63
69
73
76
86
93
91
77
70
92
134
174
189
188
186
187
183
181
188
175
148
115
90
77
68
64
59
57
65
67
72
89
114
128
125
123
120
114
101
80
55
32
17
11
11
10
49
66
84
105
85
57
29
26
26
25
24
24
23
23
23
22
22
22
23
23
24
26
25
26
28
31
35
36
35
35
35
36
38
39
39
39
43
56
74
89
103
107
99
85
75
72
69
63
61
63
69
70
70
79
87
94
92
103
138
177
204
207
203
199
196
189
182
175
146
107
70
68
79
83
74
61
51
47
41
61
92
123
128
122
121
120
117
111
100
82
57
32
15
11
10
49
67
92
109
85
54
28
26
26
25
25
24
24
23
23
22
22
21
21
21
20
20
20
20
22
23
25
27
29
30
30
32
34
37
40
42
43
46
53
64
86
102
104
96
86
81
71
66
67
71
74
71
71
77
89
114
135
163
192
213
222
215
207
201
199
191
166
140
109
87
71
76
92
92
79
61
44
32
26
57
97
128
127
119
117
118
119
116
110
100
81
53
27
9
9
54
69
97
109
84
53
28
26
26
26
25
24
24
23
23
23
22
22
21
21
20
19
20
19
20
19
19
20
21
23
24
25
26
28
31
35
39
40
44
56
79
91
93
89
87
83
75
73
77
80
79
75
76
79
103
145
191
224
234
233
223
209
200
192
191
172
132
93
78
86
92
96
102
94
73
51
36
28
28
58
97
126
124
117
114
116
119
118
115
109
98
76
48
7
13
61
72
102
108
82
51
28
27
27
26
25
25
24
24
23
23
22
22
21
21
21
20
20
20
20
19
19
19
19
20
20
21
21
22
24
26
28
34
44
60
75
76
71
69
72
74
76
84
89
88
84
83
79
87
126
186
235
251
243
229
212
200
191
175
161
131
99
73
78
102
115
112
110
94
67
39
25
22
28
58
95
121
120
115
112
115
118
118
117
112
107
94
71
30
27
67
75
104
104
78
48
28
27
27
26
25
25
24
24
23
23
22
22
21
21
21
20
20
20
20
20
19
19
19
20
19
20
20
21
21
21
28
41
52
60
63
61
54
50
52
55
66
79
88
88
86
81
79
105
161
219
250
251
241
225
206
196
189
158
124
92
88
88
97
110
117
117
117
100
69
38
24
21
32
65
101
119
115
113
112
116
117
117
116
114
110
104
89
72
52
73
78
104
100
73
44
28
27
27
26
26
25
25
24
24
23
22
22
21
21
21
20
20
20
20
20
20
20
20
19
20
20
20
21
20
28
43
59
59
52
49
50
48
42
39
40
49
62
72
74
73
69
86
135
199
242
253
251
242
222
194
176
157
122
84
72
91
109
113
113
113
116
116
99
68
38
23
20
39
75
108
117
110
110
112
113
112
113
115
115
112
109
100
97
77
78
82
106
97
71
41
28
28
27
27
26
25
24
24
24
23
22
22
21
21
21
20
20
20
20
20
20
20
20
20
20
21
21
21
26
40
61
68
57
40
37
42
48
48
43
38
38
43
50
55
55
65
109
176
231
252
252
246
230
201
166
137
115
98
85
88
105
119
121
118
114
114
114
100
69
38
21
22
49
86
113
111
105
109
112
110
107
110
114
116
114
112
106
103
94
82
86
106
94
68
39
27
28
27
27
26
25
24
24
24
23
23
22
21
21
20
20
20
20
20
20
20
20
20
20
21
21
21
25
36
54
68
62
46
31
36
43
52
52
47
41
36
36
38
40
47
86
153
216
247
246
235
211
188
162
135
107
92
94
100
106
109
113
118
121
121
119
118
103
71
39
20
27
59
94
113
105
105
113
117
113
108
110
114
118
117
116
112
107
102
85
88
105
91
65
37
28
28
27
26
25
25
24
24
24
24
23
22
22
21
21
20
20
20
20
20
20
20
21
21
21
20
25
35
48
60
61
50
36
30
38
44
50
48
45
43
41
40
39
41
70
132
200
241
244
219
186
149
136
127
120
108
106
113
121
120
114
111
114
120
123
121
120
105
72
38
19
32
68
99
111
104
111
123
127
123
116
113
112
117
121
123
119
108
105
88
91
106
89
63
35
28
28
27
26
25
25
24
24
24
24
23
22
22
21
21
21
20
20
20
20
20
20
21
20
21
28
40
51
54
58
52
43
32
31
37
42
44
41
42
44
49
47
43
57
109
180
232
248
224
177
125
93
97
112
127
130
128
126
124
123
120
116
117
120
122
121
122
104
69
35
19
39
75
104
111
109
119
129
134
131
124
116
112
113
118
122
121
115
109
92
95
108
90
61
35
28
28
27
26
25
25
25
25
24
24
23
22
22
21
21
21
20
20
20
20
20
21
20
22
32
48
59
57
52
51
45
38
29
32
35
37
35
35
41
48
57
54
58
91
158
219
247
234
188
126
76
62
76
98
121
134
133
129
123
123
122
121
121
122
120
121
121
101
65
31
20
47
81
108
114
115
123
130
135
136
131
120
110
102
107
118
125
119
116
96
98
108
88
59
34
28
28
27
26
25
25
25
25
24
24
23
23
22
21
21
21
20
21
21
21
21
20
23
34
50
64
62
51
43
41
38
33
30
33
33
33
32
39
45
53
64
67
92
140
204
242
243
206
145
90
61
55
57
72
96
116
125
127
124
123
122
122
123
122
120
122
120
96
60
28
24
54
87
112
118
121
126
129
135
137
134
124
114
105
106
118
129
132
126
98
99
106
83
55
32
28
28
27
26
25
25
25
25
24
24
23
23
22
22
21
21
21
21
21
21
21
21
30
49
65
64
49
37
34
34
33
30
32
34
35
35
35
44
48
55
66
89
138
190
234
248
222
167
107
69
56
48
42
48
66
90
107
116
119
121
123
124
124
123
123
125
119
91
55
26
28
61
94
117
123
128
130
132
136
136
136
133
127
119
118
126
134
141
135
100
99
102
77
51
31
29
28
27
26
25
25
25
25
24
24
23
23
22
22
22
21
21
21
21
21
21
23
40
60
66
51
34
29
31
31
30
30
32
35
37
37
40
49
51
54
71
120
183
227
247
235
191
132
85
63
53
43
38
42
60
86
102
109
113
118
123
123
124
125
127
126
115
84
50
24
33
68
101
123
129
134
135
135
135
137
140
144
143
142
139
139
138
142
139
101
100
99
73
48
30
29
28
27
26
25
25
25
24
24
24
23
22
22
22
22
22
21
21
22
21
20
28
46
62
60
44
32
29
30
30
30
30
33
36
40
40
46
53
53
56
90
157
219
244
242
208
157
106
76
60
46
40
45
59
84
105
112
112
112
117
123
124
126
128
129
123
109
77
45
23
38
74
109
129
133
138
137
138
138
141
147
153
155
153
148
143
140
138
139
104
102
97
70
45
30
29
28
27
26
25
25
24
24
24
24
23
22
22
22
22
22
21
22
22
22
21
34
47
59
54
43
34
30
31
30
30
31
34
38
42
43
51
57
57
72
126
195
240
248
224
177
129
93
73
53
42
48
65
92
117
133
133
124
118
119
123
126
129
130
126
115
99
69
41
23
42
78
113
128
133
138
141
138
127
120
126
142
153
155
151
146
140
137
136
107
105
94
67
43
29
29
28
27
26
25
25
24
24
24
24
23
22
22
22
22
21
21
22
22
22
23
37
44
53
49
45
38
32
31
30
30
31
34
40
44
46
57
59
71
105
171
227
249
236
196
151
115
91
66
46
50
69
97
121
135
141
139
132
124
122
127
131
132
128
118
107
91
64
37
23
44
81
112
125
129
135
132
117
94
79
89
118
145
155
151
144
138
132
134
109
106
90
64
40
29
28
28
27
26
25
25
24
24
24
24
23
22
22
22
22
22
21
22
22
22
26
39
44
46
44
47
43
35
32
30
30
32
35
42
46
53
63
69
99
152
213
245
244
212
169
144
126
102
68
57
74
98
123
135
138
139
137
129
123
124
130
133
129
120
109
100
85
59
35
24
47
81
108
118
117
115
102
78
51
36
52
93
135
153
151
143
137
131
135
110
107
87
61
38
28
27
27
26
26
25
25
25
24
24
24
23
22
22
22
22
22
21
22
22
22
29
43
46
43
42
49
48
38
31
30
31
32
35
44
53
65
71
91
139
197
239
248
227
183
154
158
157
124
87
82
103
120
132
136
137
139
133
127
123
128
132
130
122
111
102
94
80
55
32
25
50
79
101
106
98
82
59
37
22
18
40
80
125
149
151
145
141
143
139
110
107
84
59
36
28
27
27
26
26
25
25
24
24
24
24
23
22
22
22
22
22
22
22
23
22
32
48
51
43
40
49
51
40
31
31
31
34
37
50
65
79
90
128
183
231
249
239
198
159
157
192
203
164
124
111
123
130
133
136
138
138
131
126
125
131
131
124
113
103
95
89
74
50
29
27
49
73
92
88
72
48
28
19
16
20
39
73
115
143
153
152
149
149
146
109
106
82
57
35
28
27
27
26
26
25
25
24
25
25
24
23
22
22
22
21
21
22
23
24
23
35
51
55
43
38
47
50
41
32
31
32
35
40
59
81
100
127
173
220
247
246
217
167
144
170
221
234
206
167
140
130
130
133
136
138
136
128
124
126
130
124
114
102
93
85
80
68
46
28
26
44
65
77
68
47
27
18
16
16
21
34
61
97
132
152
157
155
155
151
109
105
78
54
34
28
27
26
25
25
25
25
26
26
26
26
25
23
22
22
22
22
23
25
28
28
41
55
57
44
35
43
47
43
34
32
34
38
45
74
112
147
183
214
243
250
232
184
136
135
184
233
250
239
212
178
149
136
132
135
136
131
125
123
125
124
114
102
91
82
75
72
61
42
25
24
36
52
58
49
31
20
17
16
16
20
27
46
76
115
145
158
158
156
155
107
103
75
51
33
27
27
26
25
25
26
26
26
26
26
25
25
24
24
23
22
22
24
28
32
33
48
61
61
45
33
40
46
45
37
34
36
39
54
99
154
201
227
241
250
241
204
147
116
139
196
237
252
253
241
219
182
153
135
133
132
126
121
121
122
115
103
91
80
73
69
68
57
39
23
21
28
39
39
33
21
17
16
16
16
19
21
31
53
92
130
153
157
157
153
106
100
73
49
32
27
27
26
26
26
27
26
26
25
24
24
25
25
25
25
24
23
25
29
34
39
60
72
69
44
31
37
45
46
40
35
37
41
73
134
203
243
253
253
248
219
164
111
104
151
208
243
252
254
254
247
221
182
149
134
129
123
119
118
115
107
94
83
73
70
70
68
54
35
21
19
23
27
27
23
17
16
15
15
15
16
18
23
36
69
110
141
152
150
150
103
97
72
48
31
27
28
27
27
27
26
25
24
23
23
23
23
24
25
25
26
25
25
29
33
46
73
83
72
43
30
35
44
47
42
35
40
59
113
181
234
254
254
253
247
213
165
118
121
157
197
224
237
249
254
254
244
213
173
143
128
121
115
111
105
97
87
78
72
71
72
67
52
34
20
18
20
22
21
19
16
15
15
14
15
16
18
20
25
48
87
125
144
147
147
99
93
70
47
31
28
29
28
27
26
25
24
24
23
23
23
23
23
24
25
26
26
27
29
33
55
81
87
68
40
30
33
41
45
42
37
60
104
171
217
243
245
247
251
247
223
194
165
155
153
153
167
195
230
252
254
253
237
204
163
132
116
108
100
94
88
82
77
74
73
70
63
48
31
19
17
18
19
19
18
16
15
15
14
14
15
17
18
20
33
66
106
134
147
142
95
89
68
46
31
28
28
27
26
25
24
24
24
23
23
23
23
22
23
23
24
26
27
28
35
64
84
85
58
38
31
32
39
44
42
43
87
155
221
236
225
211
212
226
236
239
237
224
192
148
107
102
144
201
244
254
254
251
231
194
148
116
101
96
89
83
78
76
75
71
65
57
43
29
18
17
17
17
18
17
16
15
14
14
14
15
16
18
18
23
50
89
123
134
133
92
85
65
44
30
27
26
25
25
25
24
24
24
23
23
23
22
22
23
23
23
24
26
27
39
69
87
82
54
38
32
32
38
44
42
47
108
183
243
231
194
162
155
170
187
204
221
229
198
141
82
63
102
168
230
254
254
254
248
225
182
137
108
100
96
91
83
77
72
65
57
48
37
26
18
16
16
16
17
17
16
15
14
13
13
14
16
16
15
22
50
86
114
122
123
90
82
61
41
27
26
25
25
25
25
24
24
23
23
23
23
22
22
23
23
23
23
25
25
44
73
89
80
54
40
33
31
36
42
42
65
126
193
235
210
163
121
114
135
153
165
178
190
170
128
80
58
81
140
208
248
254
254
254
246
220
172
126
99
95
100
99
91
76
59
47
39
31
24
17
16
15
15
16
16
15
14
13
11
11
11
13
19
31
49
70
91
105
114
115
87
78
57
37
26
26
25
25
25
25
24
24
23
23
23
23
22
22
23
23
23
24
25
26
46
70
84
73
55
46
40
36
38
51
74
114
164
204
227
209
167
124
115
138
158
167
174
183
162
123
77
57
66
108
166
214
237
248
254
254
237
190
134
94
88
96
106
107
97
75
55
39
29
21
15
14
14
14
15
16
15
14
13
15
22
31
42
57
72
84
89
95
101
107
113
85
77
56
37
26
26
26
25
25
24
24
24
23
23
23
23
23
23
23
23
24
25
25
28
52
84
109
103
82
68
68
73
86
106
139
180
209
220
221
208
181
146
134
149
170
187
197
204
175
128
77
55
56
77
110
151
188
220
241
242
214
165
112
82
77
83
96
109
116
108
89
64
41
26
24
27
23
17
13
14
15
13
19
34
51
62
68
77
86
88
83
84
97
115
119
86
76
56
36
26
26
25
25
24
24
24
23
23
23
23
23
23
23
23
24
25
25
29
46
88
134
164
161
136
109
107
123
152
178
207
228
229
208
191
179
166
146
129
133
154
183
209
220
186
130
75
53
52
55
66
87
123
167
205
212
170
113
73
73
82
83
83
93
112
126
121
95
58
38
39
50
48
38
26
18
12
10
19
38
57
66
68
71
67
57
50
57
79
129
109
88
76
55
34
25
25
24
24
24
23
23
23
23
23
23
23
23
23
24
25
25
29
45
83
142
195
227
226
202
170
163
183
218
238
245
240
224
199
175
153
140
124
105
96
108
137
163
171
147
107
70
55
52
49
47
51
70
111
162
171
126
66
41
62
83
89
79
75
89
114
125
108
68
45
53
81
92
77
46
25
22
22
28
35
44
45
37
30
24
21
23
32
48
69
75
88
73
52
31
24
24
24
24
23
23
23
23
22
23
23
23
23
23
24
25
26
37
70
132
196
239
254
253
242
219
209
219
240
248
238
225
209
191
167
153
138
122
97
82
88
100
112
112
99
80
65
59
56
52
49
47
50
78
123
128
90
40
30
47
68
81
79
74
78
92
99
87
59
46
59
93
110
96
64
50
60
67
52
29
22
29
38
43
44
45
44
38
33
11
32
81
67
46
28
23
23
23
23
23
23
23
23
22
22
22
23
23
24
25
24
31
57
111
177
224
246
250
252
252
244
239
239
240
233
216
203
195
189
177
170
150
125
93
78
80
85
86
79
70
64
62
61
59
56
52
49
47
66
90
87
58
27
26
34
45
58
69
76
80
82
78
63
45
38
47
70
86
82
66
64
80
84
63
35
32
50
67
72
69
70
66
52
34
4
15
75
61
40
25
23
23
23
23
22
22
22
22
22
22
22
22
23
24
24
33
55
91
148
202
239
246
242
240
239
236
235
239
238
220
191
174
166
164
161
165
152
122
92
78
77
81
83
78
69
64
63
62
61
59
56
52
49
58
60
51
33
22
23
24
28
39
56
72
79
79
67
51
40
35
35
46
60
65
59
58
66
69
57
42
44
61
73
74
68
68
64
62
56
37
40
71
58
36
23
22
22
22
22
21
21
21
21
21
21
21
22
23
23
32
57
87
117
165
213
248
247
240
235
231
229
231
237
235
207
171
147
133
138
150
158
133
94
75
74
76
81
84
80
71
65
63
62
61
60
57
53
51
48
39
30
22
21
21
20
22
30
42
57
70
78
71
54
38
29
32
45
67
80
75
59
49
53
59
58
53
52
47
44
42
45
47
61
76
108
74
71
60
40
29
28
29
29
29
29
29
30
30
31
32
33
35
36
41
61
92
108
119
158
211
251
250
243
236
232
232
235
239
233
201
162
132
112
129
150
152
111
70
60
62
65
71
76
77
73
68
65
63
62
60
58
55
52
42
32
24
21
20
20
19
20
24
29
40
59
77
75
56
35
34
51
76
98
105
96
79
73
83
90
83
62
39
22
23
39
54
63
81
98
112
98
73
66
51
44
44
44
44
44
45
45
45
46
47
48
50
52
55
67
92
111
97
93
136
205
250
250
245
240
238
240
242
238
227
203
169
137
120
137
146
129
85
56
49
50
51
54
58
62
62
59
58
58
58
58
58
56
51
40
30
22
21
20
19
19
19
19
21
30
49
72
78
64
48
55
79
103
114
117
115
111
114
125
129
114
80
43
20
24
48
71
88
100
106
98
99
74
71
61
59
59
59
59
60
61
61
61
62
63
64
65
67
71
87
105
103
72
63
116
193
243
242
234
229
229
227
220
214
213
208
178
150
135
137
117
81
55
44
43
41
38
37
42
47
49
45
43
44
46
48
48
47
43
34
26
21
21
20
19
18
18
18
19
23
36
57
74
74
70
80
99
113
113
112
113
117
126
134
136
126
98
58
25
20
38
64
85
99
102
96
95
74
74
67
66
66
66
67
69
69
68
68
69
70
71
71
72
76
88
96
83
52
43
93
167
224
222
204
190
190
185
171
177
197
208
183
158
137
117
82
56
47
46
43
40
35
31
40
46
45
34
28
30
32
34
35
34
31
27
24
22
21
20
19
19
18
18
18
19
27
47
70
84
92
100
108
113
114
114
113
113
119
127
133
132
116
87
54
31
25
33
53
78
95
101
98
75
74
66
65
65
66
67
69
69
69
69
70
71
72
73
74
78
86
93
76
50
34
72
139
195
189
161
140
140
131
124
148
178
188
167
142
115
84
58
48
46
44
42
38
33
32
45
53
47
30
21
22
22
23
23
22
21
21
21
21
20
19
19
19
19
18
17
16
23
42
64
78
80
80
82
85
88
91
92
94
102
112
123
129
127
115
94
67
40
25
32
59
87
109
105
74
73
66
65
65
66
67
70
70
71
71
73
74
75
77
79
83
92
98
80
53
31
61
115
160
151
121
103
102
95
100
128
154
161
149
123
89
59
48
46
43
40
38
34
29
31
47
54
47
28
21
21
20
19
19
18
19
19
20
20
19
18
18
18
18
17
16
15
20
37
58
71
71
64
57
52
52
55
59
62
67
76
87
99
110
120
123
109
79
48
34
46
74
117
109
72
72
65
65
65
66
67
69
71
72
73
74
75
77
78
82
86
95
102
84
57
31
55
93
123
125
107
99
96
94
100
111
129
140
129
100
65
45
45
42
39
36
33
29
25
28
38
39
33
23
20
20
19
19
19
19
19
19
19
19
18
17
17
17
17
17
15
14
16
28
47
64
70
66
55
42
31
27
26
27
30
37
46
57
69
85
103
116
110
90
67
59
75
108
111
71
71
64
64
64
65
67
69
70
72
73
75
76
77
78
82
86
93
97
80
54
31
47
67
93
116
115
116
106
107
105
101
118
128
111
78
47
40
40
37
34
32
28
24
22
23
28
26
24
19
19
19
18
18
18
18
18
18
18
17
17
16
16
16
16
15
15
14
14
19
34
52
65
68
61
50
38
30
23
16
12
12
16
21
29
41
59
83
100
102
88
75
76
104
96
71
71
64
64
64
65
67
68
70
71
73
75
76
77
79
81
85
90
90
71
49
29
35
46
74
109
121
126
124
123
124
123
139
126
90
56
38
37
36
34
31
29
25
21
21
22
23
21
20
19
19
18
18
18
18
19
19
19
18
17
16
15
15
14
15
14
14
14
13
14
20
32
45
53
52
47
41
34
27
19
14
12
12
12
13
17
27
46
67
80
80
71
64
63
70
70
71
63
63
63
64
65
67
69
70
72
74
76
77
78
80
83
87
83
64
43
28
27
36
61
92
117
136
152
153
162
173
171
126
73
42
35
34
33
31
29
26
22
20
20
22
22
21
20
19
18
18
17
17
18
20
19
18
17
18
17
15
13
13
13
13
13
13
13
13
13
14
17
19
22
24
27
27
24
19
15
14
14
14
15
16
20
28
38
48
53
51
44
20
41
67
68
62
63
63
64
64
66
67
69
71
73
75
77
78
79
81
84
79
66
48
34
26
33
47
73
114
155
190
195
209
219
191
126
61
36
34
33
31
29
26
22
20
20
21
23
23
22
20
19
19
17
16
16
18
20
19
18
18
19
18
15
12
12
12
12
12
13
13
13
12
11
11
11
11
12
13
13
14
14
13
13
13
14
16
18
21
23
26
29
29
25
21
21
21
63
65
61
63
63
63
63
64
65
67
69
71
73
75
76
77
78
79
77
72
56
40
26
28
31
63
121
182
217
223
230
229
180
110
50
34
33
31
29
26
23
20
19
20
21
22
22
22
21
20
18
17
16
16
17
18
17
16
17
19
17
14
11
11
11
11
11
11
11
12
12
11
11
11
12
12
12
12
12
12
12
12
12
13
13
14
16
18
21
23
23
21
18
10
14
59
62
61
63
63
63
63
63
64
65
67
69
71
73
74
74
75
76
77
79
63
45
25
23
24
65
131
198
223
227
231
213
154
85
42
34
32
29
26
23
21
19
19
21
22
22
22
21
21
19
18
16
15
15
16
17
16
15
16
16
15
12
11
11
11
11
10
10
10
10
11
11
11
11
11
11
11
11
11
11
12
12
12
11
11
11
11
11
11
11
11
11
11
12
10
57
60
61
63
62
62
62
62
63
64
65
67
69
70
71
72
73
73
76
78
62
43
24
22
24
70
137
204
223
226
220
181
117
59
38
34
30
26
22
21
19
19
20
22
23
22
21
21
20
19
17
15
15
15
16
16
15
14
14
14
13
11
10
10
10
10
10
10
10
10
10
10
10
10
9
10
10
10
10
10
10
11
11
11
11
10
10
10
10
10
10
10
10
11
10
55
60
61
63
62
62
62
62
62
63
64
65
66
68
68
70
71
72
75
77
62
42
23
22
24
69
137
203
226
228
203
145
81
43
36
33
27
23
21
20
19
19
21
23
22
21
21
20
20
18
17
15
15
15
16
16
15
13
13
14
13
12
10
10
10
10
10
10
9
9
9
9
9
9
9
9
9
9
9
9
9
10
10
9
9
9
9
10
10
10
10
10
10
10
9
55
59
61
64
62
62
61
61
61
62
63
64
65
65
66
68
69
70
77
78
62
40
21
21
23
67
136
203
228
215
167
104
55
38
35
29
24
21
21
21
19
19
21
22
22
20
20
20
19
18
17
16
15
16
17
17
15
13
12
13
13
12
11
11
11
10
10
9
9
9
9
9
9
9
9
9
8
8
8
8
8
8
8
8
8
8
8
9
9
9
9
9
9
9
9
55
59
62
64
62
62
61
61
61
61
62
63
63
64
65
66
67
69
81
80
62
35
20
23
32
71
135
194
210
176
118
70
50
49
42
29
21
21
23
23
21
20
20
22
21
21
20
19
18
17
17
16
17
17
18
17
15
12
12
12
13
13
12
12
11
11
10
9
9
9
9
8
8
9
9
8
8
8
8
7
7
7
7
7
7
7
7
8
8
8
8
8
8
10
8
55
59
63
65
63
62
61
61
61
61
62
62
63
63
64
64
65
70
81
76
58
31
25
35
50
76
122
161
166
124
79
55
61
65
53
32
21
23
26
24
21
19
21
23
23
23
21
19
17
17
17
17
17
18
18
17
15
12
11
11
12
13
13
12
12
12
12
11
9
8
9
8
8
8
8
8
8
8
8
7
7
7
7
7
7
7
7
7
7
6
6
6
7
7
7
55
58
64
65
63
62
61
61
61
61
61
62
62
62
63
63
63
69
75
69
55
36
38
52
68
78
100
116
114
85
62
57
71
72
57
33
22
25
28
25
22
19
22
25
26
25
22
19
17
17
17
17
17
18
18
16
14
12
11
11
11
12
13
13
13
13
16
15
12
9
9
9
8
8
8
8
8
8
8
8
7
7
7
7
7
7
7
6
6
6
6
6
6
6
6
55
57
64
65
63
62
61
61
61
61
61
61
62
62
62
62
63
66
67
63
55
49
53
64
74
74
78
80
79
69
63
64
70
63
49
30
23
27
30
26
21
18
22
25
27
26
22
19
17
17
17
17
18
18
17
16
14
12
11
10
11
11
12
13
13
14
18
21
19
13
9
8
8
8
8
8
8
8
8
8
7
7
7
7
7
7
7
6
6
6
6
6
5
6
5
54
57
64
65
64
62
61
60
60
61
61
61
61
61
61
62
62
63
62
61
60
60
63
68
71
71
70
69
69
67
65
63
62
52
41
29
28
34
35
29
20
18
21
23
24
23
21
19
17
18
17
18
18
18
17
15
14
12
11
11
11
11
13
14
14
14
19
25
26
19
11
8
8
8
8
8
8
8
8
8
8
7
7
7
7
6
6
6
6
6
6
6
5
5
5
53
55
63
65
64
63
61
60
60
60
60
60
60
60
60
61
61
61
61
62
63
64
66
67
69
70
70
69
67
66
63
61
61
58
53
48
47
52
44
32
19
18
20
20
21
20
19
18
18
18
17
18
19
18
17
15
14
12
11
11
11
12
13
14
14
13
16
24
31
28
18
10
8
9
9
9
9
8
8
8
8
8
7
7
6
6
6
6
6
6
6
6
5
5
5
51
53
62
65
64
63
61
60
60
60
60
59
59
59
59
60
60
60
60
61
62
64
66
67
68
69
68
67
65
63
60
60
65
71
75
74
70
69
51
34
17
17
19
20
19
19
19
19
18
18
17
18
19
19
17
14
13
12
11
11
12
13
13
14
15
13
14
20
33
37
29
15
8
9
9
9
9
8
8
8
8
8
8
7
7
6
6
6
6
6
6
6
5
6
5
51
53
62
64
64
62
61
60
60
60
59
58
58
58
58
59
59
59
60
61
62
64
66
67
67
67
65
64
62
61
58
60
69
82
93
93
88
78
53
31
15
16
18
20
20
20
20
19
19
18
16
17
19
19
17
14
13
12
12
12
13
13
14
15
15
14
13
17
33
46
44
27
11
7
7
7
8
8
8
7
7
7
7
7
7
7
7
6
6
6
6
6
6
6
5
54
55
61
63
63
62
61
60
60
59
59
58
58
58
58
59
59
59
60
61
62
64
65
66
66
65
63
62
60
59
57
61
73
87
97
94
88
71
47
24
13
15
18
20
21
21
21
20
19
17
15
16
19
21
19
15
14
12
12
13
13
14
15
15
15
14
13
16
32
54
65
56
37
23
18
17
21
25
26
22
17
12
9
8
7
7
7
6
6
6
6
6
5
6
5
58
58
61
62
62
62
61
60
60
58
58
58
58
58
58
59
59
59
59
60
62
63
64
64
64
63
61
60
58
58
56
63
76
89
94
89
83
63
40
17
13
16
20
22
23
23
21
21
19
17
14
16
22
25
23
17
14
12
13
14
14
14
15
15
15
14
14
16
32
59
83
89
78
63
53
49
52
57
60
58
50
39
27
15
8
7
7
6
6
6
6
6
5
5
5
58
58
60
61
61
61
61
60
59
58
57
57
57
57
58
58
59
59
59
61
62
63
63
62
62
60
59
58
57
57
56
65
79
91
90
86
79
57
32
14
16
20
25
28
28
25
22
20
19
16
13
18
29
35
32
22
16
12
13
14
15
15
15
15
15
15
14
17
33
62
94
115
117
106
94
87
87
91
94
94
88
76
56
32
15
8
7
7
6
6
6
6
5
5
5
56
57
59
60
61
60
60
60
59
57
57
57
57
57
57
58
58
59
60
61
62
62
62
61
60
59
58
57
57
56
57
68
83
91
87
86
78
55
29
15
19
24
31
35
33
26
21
20
18
16
13
22
41
51
47
29
19
13
14
15
16
16
15
15
15
15
15
20
38
67
98
122
134
133
126
118
113
111
111
114
113
105
85
57
29
12
7
7
7
6
6
5
5
5
5
56
56
58
59
60
60
60
59
59
57
57
57
57
57
57
58
58
59
60
61
62
62
61
60
59
58
57
56
56
55
58
71
84
90
87
88
78
54
27
18
22
27
33
35
31
24
20
19
17
16
13
26
53
68
63
37
23
15
14
15
16
16
15
15
15
15
17
26
47
75
102
123
134
137
132
127
124
121
117
116
115
111
99
77
45
20
7
7
7
6
6
5
5
5
5
56
56
57
58
59
60
60
59
59
58
57
57
57
57
58
58
59
59
59
60
61
61
60
59
58
57
56
55
55
55
60
73
85
89
87
90
77
52
25
18
21
24
29
30
26
21
18
18
17
16
13
30
61
80
75
47
29
18
15
16
17
16
15
15
15
16
20
34
58
86
109
125
134
136
133
130
130
129
125
119
113
107
100
86
58
30
11
7
7
6
6
5
5
5
4
52
52
49
49
52
55
59
59
59
58
58
57
57
57
58
58
59
58
59
59
59
59
58
57
57
55
55
54
54
54
61
75
85
89
89
90
73
47
23
19
20
21
22
21
20
18
17
17
16
15
13
30
63
84
81
56
38
24
18
19
19
19
17
16
15
18
26
44
69
96
115
127
133
135
132
127
126
130
130
124
115
107
97
89
69
43
19
7
7
6
5
5
5
5
4
41
40
36
36
39
47
54
59
59
58
58
57
58
57
58
58
58
58
58
58
58
58
57
55
55
54
54
54
54
54
62
75
86
89
89
86
64
41
25
28
30
27
23
19
17
16
16
16
16
15
14
29
60
83
86
69
52
34
24
23
24
22
19
17
17
21
33
52
78
103
119
128
133
135
131
124
121
126
131
129
118
105
94
90
79
55
26
7
6
6
5
5
4
5
4
28
27
24
24
27
38
50
59
59
57
56
57
57
58
57
57
57
57
57
57
56
56
55
55
54
54
53
53
53
54
62
76
86
88
89
79
55
35
34
50
58
54
43
31
23
20
19
19
19
17
15
28
59
85
94
80
63
44
33
31
31
28
23
20
20
26
40
59
84
106
121
128
131
134
132
125
120
121
128
130
122
107
95
92
84
61
30
9
6
6
5
5
5
5
5
19
19
19
19
24
36
50
56
52
47
46
48
52
55
57
57
57
57
56
56
56
55
54
54
53
53
53
53
53
54
62
76
86
88
88
73
48
30
41
69
87
87
74
57
45
39
36
33
29
24
20
30
61
88
100
88
73
55
44
40
40
35
29
27
27
34
46
64
85
104
119
126
130
133
133
129
122
120
124
128
125
111
99
93
84
61
31
11
5
6
5
5
5
6
5
22
21
20
20
26
38
47
47
39
34
33
36
43
50
55
56
56
56
56
55
54
54
53
53
52
53
52
52
52
53
63
76
85
87
87
70
43
24
37
70
99
108
102
90
80
73
67
60
52
44
36
38
66
93
107
94
79
63
53
50
50
46
40
38
38
45
55
68
84
100
114
123
129
132
133
132
127
120
119
122
123
116
108
95
80
58
33
15
5
6
5
5
5
6
5
31
27
21
19
25
35
38
34
26
22
22
25
35
45
53
54
53
51
51
53
54
53
52
52
52
52
52
52
52
53
63
75
84
86
85
67
39
17
26
53
81
101
109
110
108
104
99
91
83
74
60
52
72
95
111
100
87
73
61
56
57
57
54
53
55
60
65
72
81
93
106
118
127
131
133
133
129
121
117
118
122
122
115
96
79
59
37
17
5
6
6
5
5
5
5
32
29
21
19
23
27
26
23
19
18
19
23
34
45
49
45
41
40
42
46
51
52
52
51
51
51
51
52
52
53
61
73
82
84
80
61
34
13
15
30
53
78
98
112
118
119
114
109
103
97
79
61
73
95
115
108
97
82
67
61
64
67
67
69
73
77
79
79
81
86
96
109
120
126
130
132
131
124
118
114
118
122
118
98
80
58
38
17
5
6
6
5
5
5
4
27
25
19
18
19
21
24
25
24
20
20
24
35
41
40
32
28
27
30
38
46
51
51
50
50
51
51
51
51
52
60
70
79
79
73
54
31
13
11
17
29
50
75
97
111
116
115
112
106
101
81
61
69
92
114
110
101
89
74
65
67
73
77
83
89
94
93
89
85
84
89
99
110
120
127
131
131
128
120
114
115
119
115
96
79
60
40
18
6
6
6
5
5
5
4
21
20
18
18
18
24
32
34
29
22
19
25
32
34
29
21
18
19
22
32
43
50
50
47
46
47
49
51
51
52
60
68
75
73
67
52
33
17
11
12
17
30
49
73
94
106
108
103
97
90
72
52
60
86
109
109
101
93
80
71
71
77
83
91
100
105
104
98
92
87
86
90
100
112
122
128
131
130
124
117
113
112
109
96
84
69
47
23
7
6
6
5
5
5
5
21
24
19
18
15
23
52
57
34
18
20
21
23
20
18
19
18
20
20
24
50
54
49
41
37
39
46
51
53
52
53
75
71
65
65
61
36
18
14
11
15
15
20
41
74
99
104
99
88
81
68
37
23
96
117
97
102
98
83
73
74
79
87
95
105
115
116
103
95
98
86
79
91
107
118
128
132
133
130
126
120
108
100
103
85
86
77
16
6
7
6
6
6
6
4
