P2
# CREATOR: GIMP PNM Filter Version 1.1
95 127
255
53
54
55
56
56
57
55
53
147
98
51
58
57
56
71
114
227
163
74
50
59
59
61
62
65
68
68
61
59
60
59
59
59
59
58
59
59
59
60
59
58
59
59
59
59
59
58
59
57
57
57
58
57
57
56
55
56
56
55
55
56
55
54
54
55
54
54
55
53
52
54
54
54
53
54
54
54
53
52
52
53
51
51
50
50
50
50
49
47
47
48
48
48
48
49
54
54
57
57
56
57
54
63
154
82
53
58
57
61
51
127
218
80
62
58
58
56
56
58
60
60
60
57
58
60
58
58
58
58
58
59
59
59
59
58
58
59
60
59
59
59
58
59
58
58
58
58
57
57
57
56
56
56
55
55
56
56
55
54
55
55
54
54
53
52
52
53
53
52
54
54
53
53
53
53
53
51
51
50
50
50
49
48
48
48
48
49
48
48
47
55
55
56
56
58
56
51
80
151
67
57
58
59
57
59
209
169
34
57
60
58
58
57
55
57
58
58
59
58
58
59
60
58
58
58
58
59
58
59
58
58
59
59
59
59
59
58
58
59
58
57
57
57
57
57
57
55
55
55
55
56
56
55
54
54
54
54
53
53
53
52
54
54
53
53
54
53
52
52
53
51
51
51
50
50
50
49
49
48
48
49
48
49
47
46
54
56
56
56
57
56
52
90
140
58
58
58
57
53
101
238
108
46
59
59
57
55
56
57
58
57
57
59
58
57
58
58
58
58
57
58
58
58
58
58
59
59
59
59
59
59
59
58
58
58
57
56
56
56
56
57
56
56
56
55
54
54
54
53
54
53
54
53
53
54
52
54
53
53
52
52
52
52
51
52
50
51
50
50
50
51
50
50
48
49
49
50
48
49
46
54
54
55
55
56
56
51
102
135
53
56
59
57
53
162
224
70
56
58
58
57
56
56
57
58
57
57
58
56
56
58
57
57
57
58
58
58
57
58
58
58
58
58
59
59
59
59
59
58
58
57
57
56
56
56
56
56
55
56
55
54
54
53
52
54
53
54
53
53
54
53
53
53
50
51
52
51
52
51
51
51
51
50
49
51
51
51
50
50
49
50
49
50
48
48
53
53
55
55
57
54
49
114
125
49
56
56
54
74
217
169
52
57
58
59
58
58
56
56
58
57
57
57
56
58
58
56
57
57
57
58
58
57
57
57
57
58
58
59
59
58
59
59
59
59
58
58
57
56
56
56
55
55
56
55
54
54
54
53
54
53
54
53
52
54
53
53
52
50
51
51
51
51
51
51
51
51
50
50
51
51
50
49
50
49
49
49
47
49
47
53
53
57
57
54
54
51
116
110
49
57
55
50
118
238
117
50
59
57
57
57
56
56
56
56
57
58
56
55
57
56
56
57
57
56
57
57
57
57
57
58
59
58
59
59
58
58
58
58
58
58
58
57
56
56
56
56
55
55
55
54
53
53
53
53
53
53
52
52
54
53
53
52
52
51
51
51
51
51
51
51
50
50
50
50
51
51
50
49
48
49
48
48
48
46
55
55
55
55
54
53
55
119
99
49
56
54
55
169
223
78
50
56
58
55
56
56
56
57
55
56
57
56
56
58
56
56
57
56
56
57
58
57
56
56
59
59
57
58
59
58
58
57
57
57
58
58
56
56
56
56
56
55
55
55
54
52
52
53
52
54
53
51
52
52
52
53
53
51
51
51
50
51
51
51
49
50
51
50
48
48
50
49
49
50
50
50
49
48
46
56
56
56
54
53
52
60
123
93
51
56
52
75
218
166
52
56
56
56
56
56
55
55
56
56
56
55
56
54
55
56
57
57
57
55
56
54
54
53
55
59
57
59
57
58
57
57
56
57
57
57
55
57
58
56
57
56
56
57
56
55
54
53
50
52
53
53
53
53
52
53
53
52
52
52
52
51
51
51
51
51
50
49
48
49
48
48
48
48
48
49
47
47
47
46
54
55
55
52
55
52
62
124
96
51
54
51
125
234
107
51
56
56
56
56
56
55
55
56
56
55
57
55
57
56
56
56
55
52
59
56
77
70
69
62
53
59
58
58
58
57
57
57
57
57
56
55
56
56
57
56
57
56
56
55
54
54
54
53
53
52
52
52
53
53
53
53
52
51
51
51
51
51
51
51
50
48
49
49
49
48
49
47
48
46
46
47
46
45
44
53
54
55
54
55
52
65
125
91
50
53
60
182
205
71
53
56
55
55
55
55
55
55
56
55
56
56
55
56
53
54
56
74
147
120
85
128
97
106
70
48
52
58
60
59
57
58
58
56
56
56
56
56
55
56
56
57
56
56
55
54
54
54
53
52
52
52
52
53
53
53
54
53
52
52
52
52
51
50
51
50
49
49
48
49
48
49
48
49
48
47
47
46
45
44
55
56
56
54
56
51
66
127
90
49
51
85
224
150
53
55
56
55
55
54
55
55
55
56
56
56
56
57
49
61
108
92
117
129
62
63
66
84
101
103
97
89
89
69
63
65
58
56
57
58
57
55
56
56
55
56
56
56
56
55
56
55
54
52
53
53
52
52
53
53
52
53
52
52
52
51
51
51
50
51
49
49
49
49
49
48
48
49
49
49
48
47
45
44
44
56
56
57
57
58
53
71
130
85
50
49
128
231
93
51
55
56
56
56
55
55
55
55
56
57
56
56
50
63
116
113
108
85
48
53
90
114
142
154
168
147
122
79
81
96
82
74
62
53
58
58
55
57
57
57
56
55
56
56
55
56
55
55
53
53
53
52
52
52
53
53
54
52
53
53
51
50
49
49
49
50
49
50
50
49
48
49
49
49
49
48
47
46
45
44
58
56
58
58
56
52
74
131
86
50
54
181
196
61
50
54
54
54
55
55
55
55
55
55
56
57
54
54
116
104
127
134
62
53
73
78
98
91
91
76
78
89
111
120
116
94
81
65
55
56
56
56
58
56
56
57
56
57
56
56
55
54
55
54
54
53
53
53
52
52
53
52
53
54
53
52
52
51
51
51
50
50
50
49
49
49
48
48
49
48
46
46
46
44
45
60
60
58
55
56
52
77
133
85
49
81
225
139
50
55
54
52
53
54
54
54
54
54
55
55
55
50
95
142
112
119
72
34
103
95
77
40
43
87
99
84
109
82
69
103
112
90
87
58
50
54
56
56
57
58
58
57
56
57
56
54
54
54
54
53
53
54
53
53
52
53
53
52
53
52
52
53
53
52
52
51
51
50
48
49
49
48
48
49
47
46
46
45
45
45
47
51
55
54
58
53
83
135
77
49
124
235
82
54
55
54
52
53
54
53
53
53
53
54
55
48
90
168
134
76
39
34
82
83
94
86
56
113
160
159
174
129
104
84
105
94
87
66
54
46
62
62
55
58
57
57
57
56
57
57
57
55
54
53
53
53
54
53
53
52
53
53
54
53
52
52
52
50
49
49
51
51
50
49
49
49
49
48
48
48
47
46
46
45
46
37
38
38
36
35
33
77
131
72
49
184
191
61
63
61
59
58
56
55
53
53
52
53
55
51
59
135
142
81
61
52
54
50
54
85
115
112
136
137
147
148
121
133
126
89
109
101
52
41
50
70
54
58
59
57
57
55
56
56
55
57
58
54
55
55
54
52
53
53
53
53
53
55
54
54
54
52
49
49
51
49
49
49
49
49
49
49
48
48
46
45
46
45
45
45
42
40
40
37
29
17
68
123
59
69
224
131
49
57
58
64
62
62
60
58
58
57
55
52
62
106
120
80
54
57
51
52
85
78
96
129
114
103
127
110
88
56
105
147
123
109
83
77
54
48
53
49
58
62
60
58
58
56
55
56
57
57
56
57
56
55
54
54
53
53
53
52
52
53
54
54
53
52
50
49
49
48
48
47
47
48
48
48
47
47
46
45
44
45
44
40
41
36
38
41
28
71
116
49
133
231
77
34
40
43
45
50
53
59
60
61
63
61
58
70
108
104
58
53
59
64
97
98
95
101
82
77
119
151
118
100
135
113
97
104
117
95
84
63
46
43
41
49
57
58
60
60
58
57
57
56
55
55
55
54
55
54
54
54
54
54
53
51
52
52
52
52
52
52
50
51
51
49
47
47
48
48
48
48
48
48
47
45
45
43
38
37
31
38
39
35
83
111
66
197
188
49
44
47
41
40
38
41
44
44
48
52
58
56
84
121
81
60
56
64
70
108
89
103
72
78
84
127
158
114
122
152
116
117
124
115
108
102
77
50
47
42
39
47
59
60
60
61
60
59
57
55
55
53
52
53
53
53
54
54
54
54
54
54
52
51
51
51
51
50
50
51
51
50
51
50
49
48
47
47
47
46
47
46
45
41
35
36
46
43
37
91
106
103
233
128
43
52
54
52
52
50
47
45
42
40
44
44
43
103
124
93
56
73
68
75
113
106
87
136
84
75
139
176
134
103
120
119
118
117
130
111
94
73
61
57
42
33
36
50
62
60
60
60
59
59
58
55
54
52
52
53
52
53
53
53
53
57
56
54
53
52
51
50
50
49
51
50
50
51
51
49
50
48
48
47
45
46
46
45
41
35
44
52
50
42
97
100
148
222
76
36
48
52
55
56
59
56
56
54
53
51
46
61
112
104
71
65
83
52
103
144
117
137
116
100
118
151
180
143
99
114
123
121
135
119
101
76
65
54
41
50
67
44
39
59
61
57
57
58
58
58
56
57
55
54
53
53
52
53
52
53
53
54
54
53
52
53
52
52
50
49
48
48
49
49
50
51
51
50
49
47
46
44
43
39
37
46
52
51
54
109
97
196
177
47
36
40
44
53
53
57
60
62
60
59
56
68
93
104
84
59
68
57
67
143
131
92
83
94
96
79
101
151
114
146
101
131
126
116
129
107
95
62
49
111
218
227
162
63
41
57
57
56
55
55
55
56
56
56
55
55
54
53
54
52
52
52
52
52
51
52
53
53
53
53
52
52
51
48
48
47
46
49
49
49
48
48
46
44
35
39
53
57
56
59
110
116
228
128
43
39
39
40
43
47
52
57
60
60
62
59
64
105
106
85
77
71
62
95
124
106
71
116
71
61
106
82
82
131
150
130
111
118
115
136
141
91
79
108
226
215
147
174
149
47
51
58
57
54
54
53
54
53
54
53
54
54
54
55
53
52
53
51
51
52
52
51
51
52
52
52
52
53
50
49
48
48
47
47
46
46
46
46
44
36
46
56
60
58
66
111
158
223
76
35
41
42
37
38
43
47
50
55
59
61
58
84
136
72
90
80
71
75
79
101
77
91
68
42
77
88
44
84
97
86
89
89
120
138
155
121
116
133
131
164
111
191
206
192
101
35
64
61
57
57
55
52
51
51
51
51
52
52
53
54
53
55
53
52
53
51
50
50
49
49
50
50
50
50
48
50
50
47
47
45
44
44
43
42
40
51
58
56
55
65
105
202
173
51
42
43
42
43
40
39
41
46
49
54
59
56
92
139
76
68
61
66
64
79
57
83
77
46
60
62
39
32
59
87
74
85
97
116
147
146
113
120
115
107
121
140
236
241
231
177
51
60
66
63
61
60
59
55
52
51
50
50
50
53
54
53
54
55
54
53
52
52
50
49
49
48
47
48
47
48
49
49
50
50
48
48
47
44
43
50
52
63
87
112
95
110
227
114
44
53
50
46
42
41
39
38
40
45
49
53
47
98
179
100
60
96
76
68
54
57
63
57
56
54
52
49
54
97
78
101
83
79
122
148
123
118
114
103
111
164
171
117
131
183
214
112
41
54
50
54
57
58
58
59
57
56
55
53
49
50
51
51
52
52
52
52
52
53
51
51
51
49
49
50
50
49
48
47
47
47
47
48
48
45
40
60
98
131
157
152
162
212
72
47
61
64
58
47
38
37
39
37
40
43
45
55
121
114
108
109
109
58
48
47
51
55
49
51
45
107
103
109
83
119
125
78
100
129
114
127
139
110
94
115
178
184
96
70
124
204
178
48
37
37
38
42
47
52
54
57
60
60
59
57
55
52
51
51
52
52
52
51
52
53
52
52
52
50
50
48
47
46
45
44
42
43
44
44
43
20
71
109
126
149
106
186
165
52
51
65
69
66
62
51
39
39
40
39
40
41
53
95
79
75
106
98
43
40
42
75
73
40
73
127
136
98
99
146
174
137
96
99
99
95
114
125
121
112
128
178
218
169
80
140
238
203
64
39
34
34
36
37
40
41
44
48
50
54
57
59
59
59
57
54
54
53
51
51
51
51
51
52
52
49
49
49
48
46
45
42
42
43
44
43
21
48
73
69
44
35
165
95
46
40
51
62
66
65
65
55
40
37
40
37
34
59
106
79
69
83
67
41
42
50
63
42
53
98
86
54
78
130
174
189
176
138
119
88
90
108
120
114
103
118
191
251
248
157
180
209
158
69
49
40
36
39
42
44
43
41
40
41
42
44
48
52
54
57
57
57
56
55
54
53
52
53
53
51
50
50
49
48
48
48
47
44
44
47
45
20
30
39
26
11
58
96
57
32
18
22
28
34
40
48
51
46
38
37
39
37
45
73
94
76
73
64
41
42
48
44
47
41
37
43
78
84
119
180
187
169
194
165
126
116
126
148
116
103
113
187
250
252
220
182
168
200
97
55
49
41
42
47
49
49
50
49
47
44
43
42
43
43
44
45
46
50
54
56
56
54
56
54
49
51
52
52
52
50
50
49
49
49
47
48
21
24
31
27
20
59
80
64
15
17
17
16
15
17
18
22
24
25
24
35
41
40
60
84
76
54
48
49
57
37
35
39
33
39
59
64
80
112
150
152
203
222
206
198
206
194
194
213
194
145
170
247
254
254
236
238
221
156
68
53
44
44
44
45
51
52
53
54
54
52
50
49
47
46
44
44
42
41
42
43
45
45
47
49
49
52
53
53
54
54
53
52
51
50
48
23
24
28
28
22
31
86
78
15
19
19
17
17
17
17
15
16
15
18
22
35
41
62
101
82
49
45
64
48
29
32
45
44
57
62
68
78
80
115
172
222
234
234
245
252
251
250
250
251
221
198
244
254
254
253
237
217
205
110
78
57
43
42
41
42
45
51
56
57
56
55
53
53
53
52
45
37
38
45
45
41
39
44
50
38
36
41
43
44
45
48
48
50
51
51
23
21
36
31
16
53
97
50
14
18
19
21
16
17
17
17
16
16
17
16
20
31
58
106
86
46
48
55
41
30
38
54
61
63
64
69
65
83
135
186
209
225
243
249
251
243
245
249
250
247
241
250
250
251
251
237
236
223
170
113
73
49
62
62
57
46
45
50
54
59
57
59
59
53
37
72
130
100
45
43
51
51
45
40
29
32
34
34
34
32
32
32
34
35
36
24
21
55
45
161
170
94
27
17
18
17
18
17
17
17
16
16
15
17
17
18
18
38
83
91
58
60
57
44
46
60
68
65
64
65
68
65
82
127
170
190
218
245
252
247
220
215
233
247
249
250
250
243
240
240
242
241
231
205
160
131
84
49
67
82
83
54
42
49
54
58
59
57
71
131
211
244
209
131
63
39
46
44
40
36
40
43
39
39
37
35
33
32
31
30
19
35
71
148
237
162
79
17
19
21
18
18
19
19
17
16
18
17
17
17
17
17
19
54
78
79
100
98
65
71
74
72
69
66
67
69
65
68
110
158
193
230
251
244
218
191
205
236
247
250
248
242
229
220
220
232
237
230
217
198
198
171
76
35
65
97
88
43
41
49
52
50
66
186
243
206
188
206
234
181
72
47
50
41
35
43
43
42
41
41
42
42
41
40
38
12
60
126
210
215
133
53
13
19
17
18
18
19
19
17
17
16
17
17
19
17
18
20
26
41
69
91
137
95
75
74
74
72
70
71
70
64
72
123
174
204
231
217
176
125
141
218
250
252
250
246
232
215
205
210
220
231
232
226
215
209
207
185
94
50
73
83
74
48
44
43
33
106
213
189
179
185
188
222
234
166
102
43
41
39
52
50
46
45
43
42
42
42
41
39
25
96
146
226
188
107
34
23
26
25
19
18
19
20
17
19
17
17
18
18
16
19
17
16
18
20
49
140
149
90
79
77
77
76
72
67
63
84
130
166
167
160
124
91
69
151
244
252
252
249
242
228
212
202
203
206
219
226
229
222
216
219
219
198
125
47
78
104
73
43
67
170
211
136
148
193
184
166
219
210
169
124
44
39
44
57
57
55
55
52
50
46
45
43
41
60
104
160
220
153
81
50
55
58
53
23
17
21
19
20
19
18
16
18
17
16
16
19
18
15
15
15
83
150
123
90
80
78
74
71
70
69
85
99
101
81
77
76
73
106
190
240
250
247
244
236
227
213
205
199
199
208
222
227
221
220
230
233
231
216
122
72
112
89
60
169
236
130
94
181
179
155
175
150
94
110
78
47
39
46
57
57
57
54
55
56
53
53
51
49
84
94
153
166
94
109
117
29
33
36
47
24
17
19
17
19
19
19
19
18
17
19
19
18
18
18
15
29
111
149
108
79
75
75
73
72
75
80
78
59
52
79
81
72
123
173
199
217
223
227
225
226
221
211
201
198
200
210
217
215
217
231
239
246
244
191
98
111
99
139
200
128
91
172
171
154
168
156
46
39
62
73
43
37
48
56
53
53
55
55
53
52
53
53
52
90
105
170
132
65
167
118
24
28
36
62
38
16
19
18
18
18
18
19
19
18
17
17
18
19
18
19
12
49
137
156
96
73
74
74
78
80
85
65
43
67
77
62
64
105
118
157
176
186
198
209
222
229
220
206
195
194
199
203
204
211
226
238
247
249
221
123
126
202
210
124
89
178
171
151
157
192
204
44
10
48
63
45
37
45
54
53
54
53
53
52
53
52
53
52
86
97
148
106
63
85
39
28
32
29
52
47
18
18
18
20
19
19
19
18
18
17
18
20
21
18
18
19
14
89
184
140
88
80
82
85
86
76
52
53
53
49
51
74
76
86
107
115
150
180
200
215
224
220
208
190
184
189
190
192
201
216
229
242
249
231
134
172
204
141
133
180
164
156
170
190
210
185
128
97
41
56
48
38
46
56
57
58
57
55
54
52
52
52
51
31
104
126
54
46
31
25
29
31
30
48
48
18
20
21
20
19
19
20
20
19
18
18
19
19
20
19
20
12
49
150
157
107
81
80
82
80
68
56
53
47
51
63
67
72
81
80
88
138
180
193
198
206
209
204
192
176
176
173
172
186
205
220
230
246
222
175
190
121
113
188
166
157
130
167
204
165
46
103
125
44
46
44
39
44
53
54
52
53
52
52
50
51
49
50
65
198
114
25
33
29
40
32
37
37
47
37
18
20
21
19
21
19
19
19
20
20
19
19
19
18
20
19
20
23
69
97
74
65
59
52
57
68
60
50
50
59
67
73
79
81
80
88
124
162
181
186
190
192
193
187
165
161
140
134
168
197
207
220
226
211
202
123
118
179
150
159
127
95
181
180
99
28
23
61
64
38
42
36
40
49
47
48
50
48
48
48
49
48
48
134
204
66
37
59
41
44
44
39
38
40
30
22
19
19
17
20
19
19
19
19
20
19
18
20
18
20
19
23
17
21
24
26
77
103
53
63
74
73
57
53
53
60
68
76
85
85
80
84
117
165
185
179
167
168
175
156
140
94
92
145
187
200
212
217
195
125
142
189
157
158
138
127
168
176
110
59
53
46
86
62
36
31
33
41
50
51
53
52
50
48
48
47
48
48
198
148
68
63
77
50
43
43
42
46
47
44
38
34
31
27
22
19
18
17
18
19
20
18
19
19
20
19
19
19
19
17
13
76
147
107
70
98
118
58
50
47
40
47
57
80
89
84
78
89
130
162
168
157
140
139
144
118
71
76
135
178
198
221
195
126
157
187
163
163
144
145
183
204
187
53
65
68
43
46
77
73
52
43
29
31
41
50
55
56
55
55
52
51
48
206
104
96
69
106
67
32
31
36
45
46
47
47
49
48
46
40
36
30
27
24
21
19
17
18
18
18
20
22
19
20
21
16
27
104
132
88
92
123
77
49
51
122
197
95
59
83
86
84
77
80
113
159
168
130
106
124
103
68
75
125
169
206
190
124
168
185
168
170
149
160
192
134
128
87
28
45
97
41
74
64
87
127
108
73
39
17
17
27
31
38
44
48
52
53
181
89
85
63
90
60
35
25
25
27
30
34
39
42
45
47
44
44
45
46
45
41
38
34
24
20
21
19
18
19
19
20
21
18
31
85
123
106
111
105
54
156
251
219
84
56
70
77
75
75
74
92
136
152
125
89
88
75
66
73
115
179
180
135
176
171
163
172
157
170
184
190
99
61
48
75
66
61
141
236
73
105
136
128
121
106
75
36
10
10
13
15
19
25
28
126
65
65
59
68
40
32
27
25
24
24
24
25
27
28
30
32
37
39
44
46
49
53
46
26
41
42
31
22
20
22
23
20
20
15
26
85
120
132
130
102
211
160
68
47
58
64
65
71
68
76
84
85
94
113
91
70
74
67
75
150
184
157
184
170
163
166
157
194
183
183
188
52
37
78
66
57
97
123
102
59
128
131
128
129
123
116
94
50
13
8
11
11
10
9
75
41
86
105
113
39
30
28
26
25
25
24
23
24
23
23
24
26
26
29
32
35
41
32
34
49
50
48
40
30
36
39
35
33
29
22
25
72
128
132
131
121
64
65
66
62
64
69
61
52
67
75
69
72
111
94
79
72
62
124
203
197
184
177
184
187
176
196
196
133
91
51
53
54
58
29
31
80
97
37
72
131
127
128
123
119
116
108
91
57
17
9
12
11
10
53
45
100
115
111
36
26
28
26
25
24
24
23
23
22
21
22
21
21
22
21
23
24
20
26
33
36
42
43
39
39
40
45
49
49
45
37
37
61
94
98
107
116
80
78
77
77
66
49
60
67
72
69
70
95
99
71
49
92
216
223
201
203
213
208
201
197
194
222
106
33
67
93
99
89
72
53
32
20
18
120
140
123
120
120
122
119
113
107
93
63
17
7
11
11
42
51
105
114
103
32
25
26
27
25
26
25
24
24
24
23
21
22
22
21
20
19
19
20
20
20
20
22
27
30
32
32
34
36
43
50
54
51
45
51
68
131
128
88
81
82
67
57
63
79
76
73
68
70
95
82
123
160
224
247
205
220
228
212
188
198
166
128
106
38
38
82
106
112
88
67
71
29
16
41
134
140
127
117
117
125
121
116
113
104
98
55
12
9
11
30
66
112
121
100
34
26
27
27
26
25
25
24
24
24
23
23
22
22
22
21
20
19
21
20
20
19
20
20
19
23
24
24
26
29
34
38
48
47
43
76
109
86
91
121
77
73
69
82
87
80
73
69
79
86
129
248
255
253
234
228
229
198
167
196
215
155
43
54
90
100
90
83
96
62
26
29
26
19
39
112
134
129
115
107
118
119
119
118
111
100
91
42
7
11
29
77
110
122
98
34
26
29
27
26
25
25
24
23
24
23
24
21
22
22
21
21
20
22
19
20
20
18
19
21
20
19
21
22
22
23
25
28
26
61
88
87
50
68
91
85
78
87
89
86
84
77
84
92
76
218
255
254
245
235
231
178
173
201
170
177
87
27
79
139
130
121
116
120
69
24
28
24
16
43
110
127
122
112
108
110
124
120
116
119
105
101
85
30
5
29
89
107
119
84
29
28
28
27
27
26
26
25
24
24
23
23
22
22
22
21
20
21
20
20
20
19
19
20
21
20
19
21
20
21
23
21
15
61
69
70
76
43
30
41
49
59
109
110
87
90
97
97
50
158
254
255
254
241
224
173
180
210
189
76
58
53
78
88
112
128
125
120
120
63
28
26
22
17
53
120
125
116
108
118
116
120
121
111
119
113
104
107
72
14
40
91
105
116
76
28
29
28
27
27
26
25
26
25
25
24
22
22
22
22
22
21
20
20
22
21
22
21
20
20
19
21
22
20
23
18
18
82
94
36
42
46
50
44
35
28
36
70
78
85
88
82
39
100
252
253
254
253
249
223
209
205
209
160
35
54
125
137
123
98
99
104
118
114
60
27
22
20
16
80
132
120
105
106
125
112
112
119
111
114
118
103
104
97
53
48
94
106
118
69
26
28
28
28
27
27
25
25
24
24
24
22
22
22
22
21
20
21
21
21
20
20
21
20
19
21
21
22
21
21
21
88
107
46
28
28
46
51
48
44
34
34
29
39
46
46
36
50
224
252
249
254
254
249
239
192
108
104
57
59
73
116
133
131
124
117
111
122
111
69
26
21
19
24
107
133
111
96
106
116
103
95
113
117
113
121
109
103
103
86
55
98
109
117
62
28
28
29
28
27
26
26
25
23
24
24
23
22
22
22
20
20
20
21
22
21
20
20
21
21
20
22
22
20
22
76
78
67
32
28
29
50
41
61
59
40
37
34
35
39
43
33
173
252
249
250
255
253
194
163
96
62
50
88
128
115
96
102
117
127
126
120
117
115
79
22
22
16
41
125
120
97
92
117
123
107
101
105
120
115
119
119
113
107
100
63
98
105
112
54
28
28
29
28
26
26
25
25
24
25
25
23
22
22
22
21
21
21
21
21
21
21
21
21
23
22
22
21
19
66
60
63
56
26
29
35
52
61
63
41
39
43
39
39
45
32
110
252
250
245
252
213
141
91
111
127
124
108
129
128
125
119
104
100
126
126
120
118
128
75
19
23
16
61
130
110
90
104
135
130
122
122
104
120
120
118
122
124
108
98
69
97
106
109
50
28
29
29
28
26
26
25
26
24
25
25
24
23
22
22
22
21
21
20
21
20
20
20
22
21
21
18
17
66
62
47
75
34
27
29
39
53
44
32
31
47
50
45
44
37
62
232
252
246
251
203
55
55
92
131
138
132
140
128
124
124
129
119
115
125
124
119
121
129
65
19
21
15
81
127
103
98
128
145
134
138
134
114
101
114
129
137
130
115
94
72
102
114
111
49
27
30
28
28
27
26
25
26
24
25
25
23
23
22
22
22
21
20
20
22
21
20
21
20
21
14
27
98
78
40
55
60
26
29
32
39
32
29
31
39
57
54
68
43
34
184
253
249
250
239
83
53
70
69
115
135
133
136
124
121
122
124
117
123
125
120
116
129
120
56
18
20
23
99
123
104
121
128
128
135
140
130
120
106
113
103
108
134
119
106
77
108
117
109
46
26
30
28
27
27
26
24
26
25
25
25
23
23
22
22
21
21
21
22
20
21
21
22
23
14
47
110
84
38
36
49
37
28
30
33
36
31
33
31
53
52
58
90
38
127
253
248
246
250
131
41
79
51
36
65
108
137
147
124
119
126
121
122
127
124
117
118
128
113
50
18
17
36
112
118
109
128
119
119
136
146
136
128
116
80
64
115
143
132
117
80
108
111
98
40
28
30
29
28
27
26
25
26
25
24
24
24
24
23
22
22
21
21
22
22
23
22
22
16
49
108
63
30
33
31
35
29
30
31
37
34
32
36
35
65
45
61
94
98
239
252
247
252
196
47
75
64
39
39
34
52
86
112
130
133
124
120
125
127
119
121
128
127
105
43
19
15
50
119
109
122
135
125
134
140
141
132
134
121
114
131
131
139
141
133
81
109
108
88
35
29
31
28
28
27
26
25
27
25
24
25
24
23
22
22
23
22
21
22
21
22
22
22
22
87
76
36
26
28
30
31
31
29
32
38
36
38
39
45
66
42
60
93
213
253
245
248
241
78
69
78
44
42
41
37
26
56
88
89
108
125
120
128
127
119
131
134
125
96
37
18
17
68
120
115
138
138
139
137
140
132
129
147
157
149
143
136
134
142
141
85
110
106
81
33
29
29
29
26
26
25
25
26
24
24
24
24
23
22
23
23
22
22
22
21
21
22
17
47
79
60
43
25
29
33
31
30
30
32
38
41
44
37
56
67
42
44
165
253
247
245
251
138
70
102
54
39
43
38
31
83
138
137
90
99
122
120
124
119
129
134
129
108
90
32
16
22
81
121
134
134
138
143
134
127
135
157
162
159
152
153
145
140
138
140
91
111
105
76
31
31
29
29
27
27
26
25
24
25
25
24
24
22
22
23
23
21
21
23
23
23
21
18
68
62
59
46
26
31
33
30
29
31
34
37
44
48
39
68
63
34
88
250
250
248
251
197
64
127
71
41
43
38
35
101
145
139
141
137
124
120
123
126
131
136
131
118
103
79
28
16
26
83
129
134
137
138
141
132
149
156
147
161
161
154
154
149
141
137
138
102
111
105
69
30
30
29
29
27
26
25
25
24
24
25
25
24
23
22
23
23
21
22
22
24
24
20
30
67
38
56
51
29
35
33
30
29
32
35
37
49
47
44
84
56
47
213
254
246
249
244
89
122
104
46
44
42
42
118
147
133
140
144
135
117
120
128
132
138
131
122
104
94
69
26
17
28
90
124
122
124
139
155
154
113
46
56
121
157
157
154
146
137
132
133
112
110
101
62
30
29
29
28
28
26
25
26
25
24
25
25
23
23
23
23
22
22
22
22
22
22
20
37
55
28
45
59
38
34
31
31
30
32
33
39
53
44
54
92
37
160
254
247
248
252
142
96
160
81
44
44
45
115
144
135
137
143
147
127
118
124
132
139
135
121
107
99
92
66
22
17
33
93
124
111
126
138
119
74
20
8
21
92
150
160
152
139
131
131
138
118
106
97
55
30
27
29
27
27
26
26
26
25
25
25
24
23
23
22
23
23
22
22
22
23
23
21
45
65
32
34
62
53
34
31
30
30
33
35
41
56
51
87
64
104
251
250
247
250
208
78
171
194
117
53
87
111
136
136
135
137
140
136
121
121
126
136
138
122
109
103
92
90
59
21
19
36
95
111
103
118
80
42
17
16
19
25
85
135
159
154
138
137
143
135
121
106
96
53
29
28
28
27
27
26
26
26
24
24
25
24
22
23
23
23
22
22
22
22
24
25
19
54
75
29
27
66
61
32
31
30
32
33
36
41
65
89
95
68
225
253
247
249
247
100
123
219
246
137
92
132
132
127
134
133
142
138
132
120
126
133
140
125
109
105
96
88
84
50
17
22
45
91
86
103
75
31
16
16
17
18
22
73
124
156
158
148
154
149
140
123
104
95
51
28
29
28
27
27
25
26
26
24
24
25
25
23
23
23
22
22
22
23
23
23
23
18
61
74
32
24
57
60
34
32
31
33
34
40
48
94
107
71
185
255
249
248
252
161
76
193
252
254
237
146
120
128
134
134
135
140
147
131
118
129
138
132
112
104
96
85
85
78
43
17
22
45
71
84
86
35
19
19
17
16
14
37
61
100
143
163
161
156
155
152
125
100
90
46
27
29
28
27
26
25
26
25
24
27
29
27
24
23
21
22
22
21
22
23
27
28
26
69
72
34
28
46
57
38
31
32
33
36
43
57
109
122
157
253
251
247
252
222
77
120
201
252
254
255
241
150
121
132
133
135
139
137
118
118
130
131
111
99
96
77
69
70
73
42
16
23
35
50
78
44
22
17
17
18
16
18
34
30
71
123
158
162
160
156
154
129
99
83
42
27
29
27
26
25
25
25
27
30
29
27
27
27
27
23
22
22
23
23
31
38
37
38
73
70
35
28
35
56
45
34
34
36
40
47
65
166
246
254
252
251
249
252
122
77
118
199
245
255
254
255
252
190
122
133
137
133
125
115
121
129
118
100
90
81
68
66
62
66
32
16
21
23
35
55
23
18
17
17
15
17
16
18
23
45
89
147
162
159
157
153
123
98
81
43
26
28
27
26
25
27
29
30
26
22
23
24
24
27
27
27
23
23
22
30
37
39
36
93
79
33
29
31
56
53
36
34
36
47
42
118
251
255
254
252
250
253
171
76
80
154
232
248
255
255
254
255
253
170
127
135
133
121
116
127
121
106
95
79
71
66
68
77
64
29
16
21
21
25
29
17
17
17
15
15
16
16
20
21
24
56
123
153
155
150
150
117
96
80
41
26
29
27
26
30
31
26
23
24
24
23
23
23
24
26
29
27
24
22
28
37
35
55
142
67
34
29
26
51
56
35
36
38
40
51
216
255
255
255
255
255
215
79
63
81
172
253
253
254
255
254
255
255
243
145
131
137
118
117
116
105
97
92
72
67
70
77
78
58
25
17
19
21
22
21
17
17
16
14
15
15
15
19
20
20
31
90
139
146
147
145
110
95
79
38
25
28
31
32
27
25
24
25
23
23
24
23
23
22
22
25
27
30
28
26
34
34
108
118
53
33
32
27
42
56
39
35
29
65
190
254
255
254
254
254
255
239
207
184
130
154
165
146
213
254
255
255
255
255
221
136
128
114
109
102
88
91
83
70
75
81
66
65
55
24
18
17
19
19
21
18
16
16
15
15
15
15
18
20
20
18
56
119
146
147
142
102
91
76
36
30
34
30
26
25
25
25
25
25
24
24
24
22
23
23
23
23
27
29
30
33
45
116
84
48
33
31
29
35
55
43
31
54
219
255
253
232
216
236
247
252
255
254
255
238
123
69
50
102
235
255
255
255
254
255
202
120
106
102
90
80
83
80
77
84
76
62
62
50
20
15
18
16
16
20
18
17
16
15
14
13
15
17
17
19
18
28
96
137
134
135
95
91
71
37
29
25
25
25
25
24
25
26
24
22
22
24
24
23
23
24
22
23
25
28
27
58
122
75
49
33
32
30
33
51
47
25
86
245
255
255
183
128
149
178
210
237
250
254
252
143
63
56
58
184
253
255
255
255
255
254
182
94
93
103
101
71
74
74
74
65
59
52
43
20
17
18
15
15
19
16
16
16
13
13
13
15
18
16
19
17
13
87
126
122
122
92
90
64
29
26
25
26
25
26
25
25
24
23
23
23
23
22
22
24
24
23
23
25
25
22
89
118
77
54
34
33
34
33
46
55
28
60
230
245
239
164
79
79
84
101
125
158
204
202
113
67
60
47
134
249
255
255
255
255
255
252
180
104
103
125
115
97
78
63
63
43
35
35
20
18
16
16
15
18
17
16
15
12
12
12
15
15
17
8
8
76
109
105
114
115
90
87
60
26
28
26
26
26
25
25
25
24
24
24
23
23
23
22
23
24
24
24
26
26
27
98
103
69
58
43
30
29
33
39
44
51
191
225
201
225
126
74
109
154
151
137
121
122
151
95
69
62
46
88
208
251
254
254
255
254
255
254
141
63
64
112
146
128
86
59
19
31
34
17
17
18
15
15
16
17
16
15
14
11
7
5
5
18
59
118
125
84
95
107
113
87
82
57
26
26
27
26
26
25
25
25
25
24
23
23
24
23
22
23
23
25
24
27
28
33
72
76
55
54
56
54
54
28
52
134
217
254
222
217
247
221
130
135
200
232
246
236
224
235
119
57
57
51
54
102
154
206
250
254
254
253
181
95
93
63
63
87
130
150
122
78
51
25
16
13
9
9
13
17
15
16
15
10
15
47
74
101
132
162
128
76
83
104
115
122
86
84
60
26
27
26
26
25
24
24
24
24
23
23
23
23
24
23
24
24
25
27
27
23
38
128
188
198
129
77
111
159
162
221
246
251
240
238
198
222
219
171
134
102
128
188
248
253
251
129
52
55
51
48
46
48
94
187
233
234
190
59
59
71
93
79
48
75
136
160
165
123
56
19
39
70
54
12
5
15
16
14
10
70
127
109
91
78
52
36
39
61
97
129
138
84
94
56
24
27
25
26
26
24
24
23
23
23
23
23
23
22
23
24
26
26
28
22
59
161
255
255
255
245
161
102
190
254
255
253
235
227
183
98
97
92
104
108
82
82
132
164
192
177
95
56
55
50
48
49
46
46
85
149
207
135
18
27
54
107
123
91
58
69
109
147
134
81
26
67
92
97
84
55
20
6
0
11
32
25
16
11
8
7
6
8
18
35
69
98
85
92
44
24
24
22
24
24
24
24
23
23
23
23
24
24
23
25
24
25
27
23
62
137
222
255
254
255
255
249
203
220
250
254
254
239
217
194
199
146
114
99
77
69
88
108
96
87
77
66
65
60
58
49
47
45
43
43
122
207
70
16
26
47
78
95
89
60
50
85
111
100
55
22
42
102
167
152
69
10
35
82
32
3
10
7
10
8
13
16
18
11
8
11
21
87
82
37
23
25
24
24
23
23
23
23
23
23
22
23
23
24
24
26
27
26
29
98
181
251
250
255
255
254
253
252
252
252
240
220
197
190
205
211
177
248
173
85
80
74
80
83
74
63
65
63
63
61
60
54
51
45
47
128
119
18
28
25
29
35
51
66
83
100
89
73
50
32
31
66
89
118
91
36
64
159
167
112
34
9
66
109
112
116
117
108
98
44
4
9
85
66
27
24
24
23
23
23
23
23
23
23
23
22
22
22
23
25
26
26
17
84
153
238
253
236
242
252
251
244
239
242
243
216
175
154
184
175
133
155
148
95
89
78
71
81
92
78
62
60
60
61
62
60
56
53
49
49
73
27
20
23
23
22
21
30
61
87
92
75
70
50
29
44
27
5
17
36
57
84
69
55
45
42
34
84
123
87
77
83
88
58
40
37
4
85
63
24
22
23
23
23
23
22
22
22
22
22
21
22
22
23
23
23
19
109
159
149
246
255
247
227
218
213
211
209
218
244
238
158
129
165
95
119
188
110
80
79
78
73
83
95
83
72
67
64
64
62
59
58
55
49
48
36
20
24
20
21
21
21
27
47
53
61
79
72
46
43
38
6
17
71
103
59
2
0
1
18
39
48
43
34
4
6
12
10
10
110
108
54
89
61
24
21
20
20
21
20
21
21
20
20
21
21
22
22
24
23
17
106
173
91
121
250
255
254
254
234
225
236
240
248
253
221
123
130
114
51
207
233
135
53
60
67
75
81
84
83
73
68
66
64
62
63
59
55
49
52
28
23
23
20
21
20
18
23
25
28
60
102
99
46
32
15
29
109
125
129
127
84
54
95
143
98
60
37
8
11
49
57
26
81
130
112
101
95
64
43
43
44
44
45
44
46
47
48
49
51
53
56
59
66
67
111
165
113
37
126
248
255
254
253
251
252
252
251
252
240
184
156
123
90
116
212
132
34
43
44
42
43
49
59
72
74
67
67
65
62
60
59
59
56
46
22
21
21
19
20
19
18
19
18
26
50
80
95
64
15
22
110
116
108
111
118
131
144
153
145
123
77
40
12
18
72
122
134
123
113
98
92
89
69
67
70
68
68
68
70
70
69
69
70
71
73
73
75
76
87
137
117
63
13
100
239
254
246
229
230
232
234
238
229
197
221
233
131
135
197
118
48
49
47
45
40
34
30
31
41
43
40
40
46
52
55
56
56
55
38
21
22
22
21
19
19
18
18
19
21
26
53
83
80
65
97
110
106
116
112
108
117
125
129
139
138
111
42
9
10
27
67
87
97
112
96
86
85
67
65
66
66
65
67
69
68
66
66
66
69
67
68
69
66
77
102
86
38
17
68
203
248
244
204
203
208
200
181
143
198
253
197
109
181
136
48
49
48
46
46
41
37
32
21
45
39
22
21
24
27
30
32
30
27
22
22
23
21
21
20
19
18
20
18
17
19
38
76
98
95
98
116
120
119
115
103
104
111
126
137
139
133
81
19
3
11
20
40
77
109
101
92
89
70
65
66
66
64
69
71
70
69
70
71
72
72
74
75
76
87
89
82
33
22
41
138
220
230
131
122
157
132
90
99
222
211
142
155
142
50
48
50
47
46
42
40
38
23
41
96
60
22
23
22
20
19
20
18
17
22
24
23
20
20
21
20
19
20
19
16
18
41
72
91
96
112
112
106
118
121
121
117
117
129
131
132
136
138
117
69
14
10
26
58
100
109
96
92
68
65
65
66
66
69
70
72
72
72
73
75
76
78
81
85
90
110
114
36
26
29
110
196
172
60
84
93
65
58
149
199
134
138
164
55
48
52
48
47
42
37
38
29
25
49
80
47
19
23
21
21
20
20
19
17
21
21
20
20
16
18
20
19
17
16
14
14
34
71
64
42
31
20
26
33
43
52
59
70
88
104
121
132
138
145
142
83
15
8
36
82
117
107
85
64
66
65
65
65
67
70
72
72
74
74
76
77
78
82
87
92
116
107
38
26
34
125
150
106
99
90
91
85
92
133
116
125
169
105
40
49
48
41
37
34
36
30
21
24
33
55
25
19
21
21
20
18
19
21
20
19
18
18
18
18
18
18
17
18
16
16
12
21
53
83
70
53
42
14
4
4
5
10
8
13
27
43
65
91
126
144
142
98
44
16
45
108
117
83
65
66
65
64
65
67
70
72
72
74
75
77
78
78
82
89
89
102
103
38
26
33
93
71
91
184
83
114
165
89
71
98
142
142
49
39
41
41
38
33
35
30
22
19
25
28
23
17
20
20
18
18
19
19
19
17
19
21
19
16
17
17
17
17
17
16
13
15
12
26
67
103
119
114
80
50
32
20
12
10
9
9
5
9
20
42
84
137
154
138
97
73
104
118
87
64
64
64
63
65
68
69
70
72
74
75
77
78
78
80
85
90
94
87
36
29
26
36
38
129
177
84
130
120
77
113
125
147
89
34
37
37
36
32
34
29
26
19
19
24
21
21
20
19
19
19
18
17
18
18
18
19
17
17
15
15
14
14
15
14
13
14
15
13
12
21
34
38
45
51
56
59
47
25
14
14
13
13
10
5
3
17
56
71
82
97
85
63
86
88
65
64
63
65
64
66
69
69
71
73
76
77
78
79
82
85
88
93
70
24
28
28
19
71
125
98
120
151
158
105
218
216
128
49
35
37
35
34
32
29
26
23
18
21
24
25
22
20
19
19
18
17
18
19
19
26
18
16
17
17
14
13
14
14
14
14
14
14
14
12
11
9
9
8
10
14
17
18
17
16
15
15
16
20
23
25
29
28
29
32
28
14
20
59
82
62
64
63
64
63
64
66
68
69
71
74
77
77
77
79
81
84
89
57
28
33
27
19
63
56
76
192
204
211
221
241
244
112
32
38
33
34
30
32
26
22
20
18
21
23
24
22
21
20
19
18
17
16
18
21
23
16
18
23
23
14
13
12
12
12
13
13
14
14
13
12
11
13
13
14
12
12
13
13
13
13
14
14
18
22
26
31
41
48
51
43
32
21
24
72
57
64
63
63
64
63
64
66
67
69
72
75
76
77
78
77
80
81
74
81
37
22
23
28
26
119
219
222
240
248
244
235
85
33
37
34
31
30
29
22
20
18
18
23
23
23
23
22
20
20
18
15
14
18
20
18
14
17
25
20
12
11
12
12
12
12
11
12
12
12
12
12
12
13
13
14
13
12
11
13
13
13
12
12
11
11
13
10
11
12
12
10
10
11
67
55
65
63
63
64
63
64
64
64
67
69
72
73
75
75
75
76
74
81
86
29
24
24
24
24
153
225
234
209
219
245
171
48
35
35
33
28
28
22
20
19
18
22
25
22
21
23
21
20
18
16
15
16
17
17
16
14
13
19
14
11
12
11
11
11
11
10
10
11
11
12
12
11
11
11
13
12
13
12
12
11
12
12
12
12
11
11
13
12
10
11
12
12
11
62
54
65
63
62
63
63
63
64
64
64
67
70
71
72
72
73
75
73
80
81
26
22
21
21
30
163
225
227
209
236
233
90
35
39
37
31
27
22
19
21
18
20
26
25
22
22
22
21
19
16
16
15
16
17
17
16
14
13
16
13
10
12
10
11
10
11
10
10
10
10
11
10
10
10
9
10
9
10
11
13
12
12
11
11
12
11
10
12
10
11
11
11
11
11
59
54
67
63
62
63
62
62
62
63
64
65
67
68
69
70
73
75
71
81
78
24
24
23
21
30
165
222
228
235
241
154
41
38
39
36
27
22
19
19
21
17
21
26
23
20
21
21
21
18
17
16
13
15
18
17
16
13
13
17
15
10
10
10
11
10
10
10
10
10
9
9
9
9
9
9
9
9
9
9
9
10
11
10
10
10
10
10
11
10
10
9
10
10
10
56
55
68
64
62
62
62
61
61
63
63
64
64
65
66
67
69
72
68
89
80
21
23
24
20
29
148
224
231
236
211
72
35
38
37
32
21
18
21
24
21
18
22
23
22
20
20
21
19
19
17
15
15
16
17
17
16
13
11
15
16
13
11
11
11
10
10
10
10
10
9
9
9
10
10
10
9
8
8
8
7
8
8
8
8
8
9
10
10
10
10
10
10
9
9
54
56
68
63
62
62
62
61
61
63
63
64
63
65
65
66
67
70
65
103
70
19
21
19
15
28
154
225
231
221
104
38
41
41
34
22
18
23
23
23
20
16
23
23
22
20
20
19
20
17
17
17
17
18
19
19
14
13
11
11
14
12
12
13
12
11
10
9
9
9
9
9
9
9
9
9
8
9
8
8
7
7
7
7
8
7
7
8
9
8
7
8
9
10
9
51
58
69
64
63
63
63
61
60
62
62
62
63
64
64
64
66
64
83
117
47
20
20
22
50
83
120
207
212
109
36
41
53
96
66
18
21
25
23
34
18
18
24
21
23
23
21
18
18
17
17
17
19
19
20
17
14
13
11
11
14
15
14
13
12
13
13
9
8
10
9
9
8
8
9
8
8
9
8
9
8
7
8
8
8
7
8
7
6
6
6
7
7
7
7
48
59
68
65
63
63
61
62
62
61
61
62
63
63
63
63
65
64
89
78
37
34
17
58
97
79
65
143
100
49
59
61
71
116
72
18
25
24
30
35
14
18
24
25
29
29
23
18
17
17
18
16
18
19
19
17
15
13
11
10
12
13
12
14
13
13
16
17
8
10
8
10
9
8
9
9
8
9
9
7
8
7
7
8
7
8
7
7
6
6
6
6
6
6
6
47
60
68
66
65
61
61
62
62
61
62
62
62
62
62
63
63
63
68
56
52
54
49
73
84
66
63
76
65
72
70
66
62
76
37
22
26
21
35
31
12
20
24
27
29
31
24
16
18
16
19
17
17
18
18
16
15
13
11
10
11
11
12
15
12
12
20
31
18
6
11
8
9
9
8
8
8
9
9
9
8
7
7
7
7
7
7
7
7
7
6
6
6
6
6
44
59
68
66
63
63
62
60
61
61
61
62
62
62
62
63
63
63
64
62
67
64
68
67
70
74
75
69
72
68
66
63
63
53
25
28
20
26
42
28
13
21
21
23
24
26
21
17
19
17
18
18
20
19
16
16
14
13
11
11
11
11
12
16
16
12
14
35
39
13
8
8
9
9
9
9
9
8
9
8
9
8
8
7
8
7
7
7
7
7
6
6
6
5
5
46
60
66
66
65
64
61
60
60
61
61
60
61
60
60
62
62
60
62
61
63
64
66
67
70
71
70
70
68
64
63
61
60
59
41
29
34
46
58
28
15
19
20
21
19
19
20
17
20
18
18
17
21
20
16
15
14
13
12
11
12
12
13
15
17
13
10
24
40
34
9
9
9
9
9
10
9
9
10
8
9
9
7
7
6
7
6
7
6
6
6
6
6
5
5
38
58
64
66
66
64
61
60
60
61
60
59
59
59
59
59
61
59
59
61
62
65
65
68
70
69
69
66
66
65
62
58
59
79
87
80
93
73
77
19
15
19
20
20
21
19
19
19
19
18
18
16
21
21
16
15
14
12
11
11
13
13
13
15
15
15
11
14
32
55
25
5
8
10
10
10
9
9
9
10
8
8
8
7
7
7
7
7
7
6
6
6
6
6
5
30
56
63
65
64
63
62
60
60
61
60
58
59
60
59
60
60
60
61
62
62
64
67
68
69
67
68
65
63
60
59
56
65
92
99
109
94
79
70
13
14
16
19
20
21
20
21
20
19
19
17
14
22
23
15
16
13
12
11
12
13
14
14
15
17
15
12
12
25
63
55
8
7
9
10
9
9
9
7
8
8
9
9
8
8
7
7
7
7
7
7
6
6
6
5
46
62
63
64
64
63
60
61
60
60
59
58
58
58
58
59
59
60
60
60
63
65
66
67
68
64
64
61
60
58
58
54
71
94
98
103
82
85
51
11
13
16
18
19
22
22
21
21
20
17
15
13
22
23
15
16
14
13
13
13
14
14
14
17
15
14
14
13
22
63
83
47
10
3
4
5
5
9
9
6
5
7
7
8
7
8
7
7
7
7
7
6
6
6
5
55
61
61
62
62
62
61
62
59
59
59
59
58
57
59
60
61
60
59
60
63
64
64
65
65
63
61
59
60
58
57
55
76
95
97
89
76
82
24
10
12
16
19
23
25
23
22
22
21
17
13
11
22
28
19
18
13
12
13
15
14
15
17
16
16
15
15
12
22
59
100
112
90
49
33
42
43
62
72
55
36
21
11
6
9
7
7
7
6
6
7
6
6
5
6
55
60
60
61
63
63
62
61
60
58
57
57
58
59
59
59
59
59
60
61
63
64
63
62
62
61
60
58
59
57
55
57
86
98
92
81
84
74
12
11
13
22
23
27
30
24
19
23
20
16
14
11
30
41
26
22
14
11
13
16
15
15
16
16
16
15
15
13
25
60
99
127
142
128
109
107
100
101
114
119
108
99
65
20
4
10
7
8
7
7
7
6
5
5
5
54
58
59
62
61
60
60
61
58
57
56
56
56
56
56
58
58
58
60
62
62
63
62
61
60
59
58
57
57
56
55
60
92
98
86
77
95
60
9
14
24
25
27
43
37
25
23
20
19
14
14
12
40
70
41
31
14
12
14
17
16
17
16
15
15
17
15
13
30
66
100
126
140
142
128
112
115
107
108
114
127
121
99
65
17
4
8
7
7
6
6
6
5
5
6
54
56
58
60
60
60
60
61
58
58
58
58
58
57
57
59
59
59
60
62
63
63
62
61
59
58
57
56
56
57
55
66
92
98
80
81
102
51
14
21
24
23
42
52
35
24
21
18
19
18
15
9
56
102
60
38
18
13
15
16
16
17
16
14
16
15
14
19
43
78
105
124
139
142
136
131
129
124
110
110
116
108
106
91
49
6
7
8
7
7
6
6
5
5
5
55
57
59
59
61
62
60
61
59
59
58
58
58
58
58
59
60
60
60
61
62
61
61
60
59
57
56
56
54
56
55
70
95
92
81
90
101
47
15
21
21
26
33
30
22
20
17
17
18
15
16
11
68
114
67
46
26
14
14
17
18
15
16
15
16
15
16
30
57
88
114
125
137
140
132
133
136
134
127
119
115
110
103
95
68
16
6
9
7
7
6
6
5
5
5
56
57
57
56
59
61
60
60
60
58
57
58
58
58
58
59
59
59
59
59
60
60
59
57
56
57
54
55
54
55
55
74
97
86
85
96
99
34
13
17
17
19
19
20
19
17
18
17
17
14
15
12
69
115
76
61
34
17
14
19
21
16
17
16
15
15
23
40
70
100
119
128
135
139
131
120
128
137
139
126
111
104
98
88
79
36
5
8
7
6
6
5
5
5
5
55
41
31
29
35
47
59
61
59
59
58
58
58
58
58
59
58
58
58
58
58
58
57
56
56
55
53
54
55
54
56
77
96
86
85
101
80
15
25
26
21
18
18
18
17
18
16
17
16
16
15
11
61
111
81
66
53
27
18
25
26
22
20
17
15
18
29
52
82
109
126
129
133
140
135
118
111
126
135
133
120
104
99
80
92
73
14
6
7
7
6
5
5
5
4
29
18
17
21
20
30
54
61
59
58
58
59
58
58
58
58
58
57
58
58
57
57
56
54
53
54
53
54
55
54
56
79
94
89
83
98
51
11
42
50
50
53
31
18
16
17
14
15
16
16
15
13
57
98
84
90
77
43
25
33
31
27
22
19
19
25
36
60
85
111
126
128
133
135
137
125
112
115
134
142
122
106
89
81
109
79
12
5
6
6
6
5
5
5
4
17
18
21
24
19
23
55
63
60
54
54
53
58
60
57
56
58
59
58
56
55
55
56
54
54
54
54
52
53
53
55
80
93
87
87
91
41
9
43
88
110
109
78
50
34
24
25
31
25
20
19
17
47
117
113
92
72
52
35
44
42
33
30
21
24
31
45
64
85
111
121
128
131
130
134
136
124
115
125
132
128
117
86
95
98
55
20
6
7
6
6
4
5
6
5
19
18
19
19
19
44
64
57
35
26
25
30
41
55
57
56
57
54
54
57
55
54
54
52
54
53
53
52
53
52
55
82
91
84
85
90
39
5
33
90
117
123
112
95
82
76
68
60
43
35
30
16
57
129
97
89
82
61
49
56
51
44
40
33
36
42
52
66
85
106
114
127
132
133
134
135
129
116
116
126
135
117
103
98
84
61
39
4
6
6
7
6
5
6
4
36
30
19
16
27
44
50
26
16
18
21
21
26
48
56
54
59
56
56
55
52
53
54
51
52
52
52
52
53
52
56
83
91
82
90
90
26
4
17
51
89
116
118
119
124
119
110
95
86
78
68
42
50
123
110
99
94
71
54
59
61
60
56
50
53
60
66
71
79
95
108
121
131
132
132
137
133
120
106
116
115
125
126
107
63
67
43
4
7
6
7
5
5
5
5
56
36
16
18
20
24
23
17
19
20
20
20
23
51
54
55
45
42
43
51
56
55
51
52
51
52
51
52
53
52
55
80
84
82
92
74
19
6
10
19
52
80
104
118
121
121
123
122
119
110
104
57
46
129
119
107
104
85
59
57
65
69
70
69
73
80
80
77
76
81
95
112
125
131
131
134
135
126
117
112
119
139
126
102
62
72
42
6
6
6
7
6
5
5
5
36
18
18
19
20
21
18
20
19
18
19
21
44
59
47
24
18
19
24
32
51
54
50
49
51
51
52
52
52
51
53
76
82
81
77
59
22
9
11
11
18
46
80
108
121
120
114
111
107
101
100
51
38
121
123
106
110
97
67
61
71
75
79
83
93
100
95
89
84
78
82
99
112
120
129
132
131
133
123
112
114
116
124
105
69
73
36
4
6
6
7
6
5
5
5
16
17
16
18
19
17
33
47
34
22
16
24
37
41
21
14
18
20
19
23
46
53
51
51
51
51
51
51
52
51
53
76
79
73
67
59
25
9
13
12
12
20
44
76
101
114
110
103
99
88
83
43
28
108
120
100
107
100
76
66
71
76
85
94
104
111
110
100
94
90
82
87
99
112
126
130
134
133
122
106
104
116
115
94
73
68
54
10
6
7
6
5
5
5
5
21
24
19
18
15
23
52
57
34
18
20
21
23
20
18
19
18
20
20
24
50
54
49
41
37
39
46
51
53
52
53
75
71
65
65
61
36
18
14
11
15
15
20
41
74
99
104
99
88
81
68
37
23
96
117
97
102
98
83
73
74
79
87
95
105
115
116
103
95
98
86
79
91
107
118
128
132
133
130
126
120
108
100
103
85
86
77
16
6
7
6
6
6
6
4
